<svg xmlns="http://www.w3.org/2000/svg" xmlns:xlink="http://www.w3.org/1999/xlink" width="50" zoomAndPan="magnify" viewBox="0 0 37.5 37.499999" height="50" preserveAspectRatio="xMidYMid meet" version="1.0"><defs><clipPath id="a0b4c561a5"><path d="M 1.457031 0 L 35.503906 0 L 35.503906 37.007812 L 1.457031 37.007812 Z M 1.457031 0 " clip-rule="nonzero"/></clipPath></defs><g clip-path="url(#a0b4c561a5)"><path fill="#0096d2" d="M 32.71875 7.542969 L 21.035156 0.96875 C 19.414062 0.0546875 17.402344 0.0546875 15.78125 0.96875 L 4.097656 7.542969 C 2.410156 8.484375 1.367188 10.277344 1.367188 12.210938 L 1.367188 25.183594 C 1.367188 27.113281 2.410156 28.902344 4.09375 29.847656 L 15.78125 36.421875 C 16.589844 36.878906 17.5 37.109375 18.40625 37.109375 C 19.316406 37.109375 20.226562 36.878906 21.035156 36.421875 L 32.722656 29.847656 C 34.40625 28.902344 35.449219 27.113281 35.449219 25.183594 L 35.449219 12.210938 C 35.449219 10.277344 34.40625 8.484375 32.722656 7.542969 Z M 17.214844 3.515625 C 17.578125 3.308594 17.992188 3.207031 18.40625 3.207031 C 18.820312 3.207031 19.230469 3.308594 19.597656 3.515625 L 30.902344 9.875 L 18.402344 17.015625 L 5.90625 9.875 L 17.210938 3.515625 Z M 5.527344 27.308594 C 4.761719 26.875 4.285156 26.0625 4.285156 25.183594 L 4.285156 12.3125 L 16.945312 19.546875 L 16.945312 33.730469 L 5.527344 27.304688 Z M 31.285156 27.308594 L 19.867188 33.730469 L 19.867188 19.546875 L 32.527344 12.3125 L 32.527344 25.1875 C 32.527344 26.0625 32.054688 26.875 31.285156 27.308594 Z M 31.285156 27.308594 " fill-opacity="1" fill-rule="nonzero"/></g></svg>