<svg xmlns="http://www.w3.org/2000/svg" xmlns:xlink="http://www.w3.org/1999/xlink" width="180" zoomAndPan="magnify" viewBox="0 0 135 30.000001" height="40" preserveAspectRatio="xMidYMid meet" version="1.0"><defs><filter x="0%" y="0%" width="100%" height="100%" id="331236caf7"><feColorMatrix values="0 0 0 0 1 0 0 0 0 1 0 0 0 0 1 0 0 0 1 0" color-interpolation-filters="sRGB"/></filter><mask id="0c8e99cbe9"><g filter="url(#331236caf7)"><rect x="-13.5" width="162" fill="#000000" y="-3" height="36.000001" fill-opacity="0.8"/></g></mask><clipPath id="e2068fb5fb"><path d="M 103 0.785156 L 126.847656 0.785156 L 126.847656 24.246094 L 103 24.246094 Z M 103 0.785156 " clip-rule="nonzero"/></clipPath><clipPath id="3a3d0117ab"><path d="M 0.269531 0.785156 L 24 0.785156 L 24 24.246094 L 0.269531 24.246094 Z M 0.269531 0.785156 " clip-rule="nonzero"/></clipPath><clipPath id="6aa59d14c6"><rect x="0" width="127" y="0" height="25"/></clipPath></defs><g mask="url(#0c8e99cbe9)"><g transform="matrix(1, 0, 0, 1, 4, 2)"><g clip-path="url(#6aa59d14c6)"><path fill="#f4f4f4" d="M 107.773438 15.417969 L 90.355469 15.417969 L 90.355469 9.613281 L 107.773438 9.613281 M 84.546875 15.417969 L 67.128906 15.417969 L 67.128906 9.613281 L 84.546875 9.613281 M 61.324219 15.417969 L 43.902344 15.417969 L 43.902344 9.613281 L 61.324219 9.613281 M 38.097656 15.417969 L 20.675781 15.417969 L 20.675781 9.613281 L 38.097656 9.613281 " fill-opacity="1" fill-rule="nonzero"/><g clip-path="url(#e2068fb5fb)"><path stroke-linecap="round" transform="matrix(-0.725806, 0, 0, -0.725806, 126.645158, 15.419357)" fill="none" stroke-linejoin="round" d="M 3.999648 4.000697 L 16.001385 -8.001039 L 27.997739 4.000697 L 16.001385 16.002433 Z M 3.999648 4.000697 " stroke="#f4f4f4" stroke-width="8" stroke-opacity="1" stroke-miterlimit="4"/></g><g clip-path="url(#3a3d0117ab)"><path stroke-linecap="round" transform="matrix(-0.725806, 0, 0, -0.725806, 126.645158, 15.419357)" fill="none" stroke-linejoin="round" d="M 170.000344 4.000697 L 157.998608 -8.001039 L 146.002254 4.000697 L 157.998608 16.002433 Z M 170.000344 4.000697 " stroke="#f4f4f4" stroke-width="8" stroke-opacity="1" stroke-miterlimit="4"/></g></g></g></g></svg>