<svg xmlns="http://www.w3.org/2000/svg" xmlns:xlink="http://www.w3.org/1999/xlink" width="50" zoomAndPan="magnify" viewBox="0 0 37.5 37.499999" height="50" preserveAspectRatio="xMidYMid meet" version="1.0"><defs><clipPath id="66189b8372"><path d="M 2.476562 0 L 34.300781 0 L 34.300781 37 L 2.476562 37 Z M 2.476562 0 " clip-rule="nonzero"/></clipPath></defs><g clip-path="url(#66189b8372)"><path fill="#f4f4f4" d="M 2.476562 33.296875 C 2.476562 33.789062 2.570312 34.261719 2.757812 34.714844 C 2.945312 35.167969 3.210938 35.566406 3.558594 35.914062 C 3.90625 36.261719 4.304688 36.527344 4.757812 36.714844 C 5.210938 36.902344 5.683594 36.996094 6.171875 36.996094 L 23.433594 36.996094 C 23.925781 36.996094 24.398438 36.902344 24.851562 36.714844 C 25.304688 36.527344 25.703125 36.261719 26.050781 35.914062 C 26.398438 35.566406 26.664062 35.167969 26.851562 34.714844 C 27.039062 34.261719 27.132812 33.789062 27.132812 33.296875 L 27.132812 32.066406 L 30.832031 32.066406 C 31.324219 32.066406 31.796875 31.972656 32.25 31.785156 C 32.703125 31.597656 33.101562 31.328125 33.449219 30.984375 C 33.796875 30.636719 34.0625 30.234375 34.25 29.78125 C 34.4375 29.328125 34.53125 28.859375 34.53125 28.367188 L 34.53125 3.707031 C 34.53125 3.21875 34.4375 2.746094 34.25 2.292969 C 34.0625 1.839844 33.796875 1.4375 33.449219 1.09375 C 33.101562 0.746094 32.703125 0.476562 32.25 0.289062 C 31.796875 0.101562 31.324219 0.0078125 30.832031 0.0078125 L 13.570312 0.0078125 C 13.082031 0.0078125 12.609375 0.101562 12.15625 0.289062 C 11.703125 0.476562 11.304688 0.746094 10.957031 1.09375 C 10.609375 1.4375 10.34375 1.839844 10.152344 2.292969 C 9.964844 2.746094 9.871094 3.21875 9.871094 3.707031 L 9.871094 4.941406 L 6.171875 4.941406 C 5.683594 4.941406 5.210938 5.035156 4.757812 5.222656 C 4.304688 5.410156 3.90625 5.675781 3.558594 6.023438 C 3.210938 6.371094 2.945312 6.769531 2.757812 7.222656 C 2.570312 7.675781 2.476562 8.148438 2.476562 8.640625 Z M 12.339844 3.707031 C 12.339844 3.542969 12.371094 3.386719 12.433594 3.234375 C 12.496094 3.085938 12.585938 2.953125 12.699219 2.835938 C 12.816406 2.71875 12.949219 2.632812 13.101562 2.570312 C 13.25 2.507812 13.40625 2.476562 13.570312 2.476562 L 30.832031 2.476562 C 30.996094 2.476562 31.152344 2.507812 31.304688 2.570312 C 31.457031 2.632812 31.589844 2.71875 31.703125 2.835938 C 31.820312 2.953125 31.910156 3.085938 31.972656 3.234375 C 32.035156 3.386719 32.066406 3.542969 32.066406 3.707031 L 32.066406 28.367188 C 32.066406 28.53125 32.035156 28.6875 31.972656 28.839844 C 31.910156 28.988281 31.820312 29.125 31.703125 29.238281 C 31.589844 29.355469 31.457031 29.445312 31.304688 29.507812 C 31.152344 29.570312 30.996094 29.601562 30.832031 29.601562 L 27.132812 29.601562 L 27.132812 8.640625 C 27.132812 8.148438 27.039062 7.675781 26.851562 7.222656 C 26.664062 6.769531 26.398438 6.371094 26.050781 6.023438 C 25.703125 5.675781 25.304688 5.410156 24.851562 5.222656 C 24.398438 5.035156 23.925781 4.941406 23.433594 4.941406 L 12.339844 4.941406 Z M 4.941406 8.640625 C 4.941406 8.476562 4.972656 8.320312 5.035156 8.167969 C 5.097656 8.015625 5.1875 7.882812 5.300781 7.769531 C 5.417969 7.652344 5.550781 7.5625 5.703125 7.5 C 5.851562 7.4375 6.011719 7.40625 6.171875 7.40625 L 23.433594 7.40625 C 23.597656 7.40625 23.757812 7.4375 23.90625 7.5 C 24.058594 7.5625 24.191406 7.652344 24.308594 7.769531 C 24.421875 7.882812 24.511719 8.015625 24.574219 8.167969 C 24.636719 8.320312 24.667969 8.476562 24.667969 8.640625 L 24.667969 33.296875 C 24.667969 33.460938 24.636719 33.621094 24.574219 33.769531 C 24.511719 33.921875 24.421875 34.054688 24.308594 34.171875 C 24.191406 34.285156 24.058594 34.375 23.90625 34.4375 C 23.757812 34.5 23.597656 34.53125 23.433594 34.53125 L 6.171875 34.53125 C 6.011719 34.53125 5.851562 34.5 5.703125 34.4375 C 5.550781 34.375 5.417969 34.285156 5.300781 34.171875 C 5.1875 34.054688 5.097656 33.921875 5.035156 33.769531 C 4.972656 33.621094 4.941406 33.460938 4.941406 33.296875 Z M 4.941406 8.640625 " fill-opacity="1" fill-rule="nonzero"/></g></svg>