<svg xmlns="http://www.w3.org/2000/svg" xmlns:xlink="http://www.w3.org/1999/xlink" width="50" zoomAndPan="magnify" viewBox="0 0 37.5 37.499999" height="50" preserveAspectRatio="xMidYMid meet" version="1.0"><defs><clipPath id="41d656c63e"><path d="M 0 0 L 37.007812 0 L 37.007812 37.007812 L 0 37.007812 Z M 0 0 " clip-rule="nonzero"/></clipPath></defs><g clip-path="url(#41d656c63e)"><path fill="#15bc11" d="M 18.503906 0 C 8.285156 0 0 8.285156 0 18.503906 C 0 28.722656 8.285156 37.007812 18.503906 37.007812 C 28.722656 37.007812 37.007812 28.722656 37.007812 18.503906 C 37.003906 8.285156 28.722656 0 18.503906 0 Z M 29.332031 12.71875 L 18.53125 26.917969 C 18.117188 27.464844 17.488281 27.777344 16.804688 27.777344 C 16.632812 27.777344 16.464844 27.757812 16.300781 27.714844 C 15.675781 27.671875 15.105469 27.367188 14.722656 26.867188 L 9.507812 20.007812 C 8.785156 19.054688 8.96875 17.691406 9.921875 16.964844 C 10.304688 16.675781 10.757812 16.523438 11.238281 16.523438 C 11.921875 16.523438 12.550781 16.835938 12.96875 17.378906 L 16.648438 22.21875 L 25.875 10.089844 C 26.289062 9.542969 26.921875 9.230469 27.605469 9.230469 C 28.082031 9.230469 28.539062 9.382812 28.917969 9.675781 C 29.871094 10.398438 30.058594 11.761719 29.332031 12.71875 Z M 29.332031 12.71875 " fill-opacity="1" fill-rule="nonzero"/></g><path fill="#ffffff" d="M 29.332031 12.71875 L 18.53125 26.917969 C 18.117188 27.464844 17.488281 27.777344 16.804688 27.777344 C 16.632812 27.777344 16.464844 27.757812 16.300781 27.714844 C 15.675781 27.671875 15.105469 27.367188 14.722656 26.867188 L 9.507812 20.007812 C 8.785156 19.054688 8.96875 17.691406 9.921875 16.964844 C 10.304688 16.675781 10.757812 16.523438 11.238281 16.523438 C 11.921875 16.523438 12.550781 16.835938 12.96875 17.378906 L 16.648438 22.21875 L 25.875 10.089844 C 26.289062 9.542969 26.921875 9.230469 27.605469 9.230469 C 28.082031 9.230469 28.539062 9.382812 28.917969 9.675781 C 29.871094 10.398438 30.058594 11.761719 29.332031 12.71875 Z M 29.332031 12.71875 " fill-opacity="1" fill-rule="nonzero"/></svg>