<svg xmlns="http://www.w3.org/2000/svg" xmlns:xlink="http://www.w3.org/1999/xlink" width="50" zoomAndPan="magnify" viewBox="0 0 37.5 37.499999" height="50" preserveAspectRatio="xMidYMid meet" version="1.0"><defs><clipPath id="72f5dc7bba"><path d="M 0 0 L 37.007812 0 L 37.007812 37.007812 L 0 37.007812 Z M 0 0 " clip-rule="nonzero"/></clipPath></defs><g clip-path="url(#72f5dc7bba)"><path fill="#ff0000" d="M 37.011719 18.507812 C 37.011719 28.726562 28.726562 37.011719 18.507812 37.011719 C 8.289062 37.011719 0.00390625 28.726562 0.00390625 18.507812 C 0.00390625 8.289062 8.289062 0.00390625 18.507812 0.00390625 C 28.726562 0.00390625 37.011719 8.289062 37.011719 18.507812 " fill-opacity="1" fill-rule="nonzero"/><path fill="#ff0000" d="M 37.011719 18.507812 C 37.011719 28.726562 28.726562 37.011719 18.507812 37.011719 C 8.289062 37.011719 0.00390625 28.726562 0.00390625 18.507812 C 0.00390625 8.289062 8.289062 0.00390625 18.507812 0.00390625 C 28.726562 0.00390625 37.011719 8.289062 37.011719 18.507812 " fill-opacity="1" fill-rule="nonzero"/></g><path fill="#ffffff" d="M 28.109375 28.109375 C 27.160156 29.054688 25.625 29.054688 24.679688 28.109375 L 8.90625 12.335938 C 7.960938 11.390625 7.960938 9.855469 8.90625 8.90625 C 9.855469 7.960938 11.390625 7.960938 12.335938 8.90625 L 28.109375 24.679688 C 29.054688 25.625 29.054688 27.160156 28.109375 28.109375 " fill-opacity="1" fill-rule="nonzero"/><path fill="#ffffff" d="M 8.90625 28.109375 C 7.960938 27.160156 7.960938 25.625 8.90625 24.679688 L 24.679688 8.90625 C 25.625 7.960938 27.160156 7.960938 28.109375 8.90625 C 29.054688 9.855469 29.054688 11.390625 28.109375 12.335938 L 12.335938 28.109375 C 11.390625 29.054688 9.855469 29.054688 8.90625 28.109375 " fill-opacity="1" fill-rule="nonzero"/></svg>