<svg xmlns="http://www.w3.org/2000/svg" xmlns:xlink="http://www.w3.org/1999/xlink" width="50" zoomAndPan="magnify" viewBox="0 0 37.5 37.499999" height="50" preserveAspectRatio="xMidYMid meet" version="1.0"><path fill="#e80000" d="M 18.503906 0.0429688 C 8.308594 0.0429688 0.0429688 8.308594 0.0429688 18.503906 C 0.0429688 28.699219 8.308594 36.964844 18.503906 36.964844 C 28.699219 36.964844 36.964844 28.699219 36.964844 18.503906 C 36.964844 8.308594 28.699219 0.0429688 18.503906 0.0429688 Z M 7.339844 10.472656 C 7.648438 10.164062 10.121094 7.691406 10.429688 7.382812 C 10.632812 7.183594 10.957031 7.183594 11.160156 7.382812 C 11.648438 7.871094 14.089844 10.3125 18.476562 14.707031 C 22.867188 10.316406 25.304688 7.878906 25.792969 7.390625 C 25.988281 7.191406 26.308594 7.183594 26.511719 7.378906 C 26.515625 7.382812 26.519531 7.386719 26.523438 7.390625 C 26.832031 7.699219 29.304688 10.175781 29.613281 10.484375 C 29.8125 10.683594 29.8125 11.003906 29.613281 11.203125 C 29.128906 11.691406 26.699219 14.125 22.324219 18.503906 C 26.714844 22.882812 29.152344 25.316406 29.640625 25.800781 C 29.742188 25.894531 29.796875 26.027344 29.796875 26.164062 C 29.796875 26.300781 29.738281 26.433594 29.640625 26.53125 C 29.332031 26.839844 26.867188 29.304688 26.558594 29.613281 C 26.460938 29.714844 26.328125 29.769531 26.1875 29.769531 C 26.050781 29.769531 25.921875 29.714844 25.828125 29.613281 C 25.339844 29.132812 22.898438 26.714844 18.503906 22.367188 C 14.113281 26.757812 11.675781 29.195312 11.1875 29.683594 C 10.992188 29.886719 10.671875 29.890625 10.472656 29.695312 C 10.464844 29.691406 10.460938 29.6875 10.457031 29.683594 C 10.148438 29.375 7.675781 26.910156 7.367188 26.601562 C 7.167969 26.398438 7.167969 26.074219 7.367188 25.871094 C 7.855469 25.382812 10.296875 22.941406 14.691406 18.546875 C 10.769531 14.628906 8.320312 12.183594 7.339844 11.203125 C 7.144531 11 7.144531 10.679688 7.339844 10.472656 Z M 7.339844 10.472656 " fill-opacity="1" fill-rule="nonzero"/></svg>