<svg xmlns="http://www.w3.org/2000/svg" xmlns:xlink="http://www.w3.org/1999/xlink" width="50" zoomAndPan="magnify" viewBox="0 0 37.5 37.499999" height="50" preserveAspectRatio="xMidYMid meet" version="1.0"><defs><clipPath id="9518a5305c"><path d="M 0.00390625 10.011719 L 29.941406 10.011719 L 29.941406 30.945312 L 0.00390625 30.945312 Z M 0.00390625 10.011719 " clip-rule="nonzero"/></clipPath><clipPath id="95648a1837"><path d="M 7.054688 5.78125 L 37.003906 5.78125 L 37.003906 27.085938 L 7.054688 27.085938 Z M 7.054688 5.78125 " clip-rule="nonzero"/></clipPath></defs><g clip-path="url(#9518a5305c)"><path fill="#84af6d" d="M 0.726562 14.042969 C 1.191406 12.949219 1.851562 11.964844 2.695312 11.121094 C 3.070312 10.75 3.476562 10.40625 3.902344 10.105469 C 4.125 9.949219 4.429688 10.003906 4.585938 10.222656 C 4.742188 10.445312 4.6875 10.75 4.46875 10.90625 C 4.085938 11.175781 3.722656 11.480469 3.386719 11.816406 C 2.636719 12.570312 2.042969 13.449219 1.628906 14.425781 C 1.199219 15.441406 0.984375 16.515625 0.984375 17.625 L 0.984375 19.382812 C 0.984375 20.492188 1.199219 21.566406 1.628906 22.582031 C 2.042969 23.558594 2.636719 24.4375 3.386719 25.191406 C 4.140625 25.945312 5.019531 26.535156 6 26.949219 C 7.011719 27.378906 8.089844 27.597656 9.195312 27.597656 L 21.507812 27.597656 L 21.507812 26.308594 C 21.507812 26.039062 21.726562 25.820312 22 25.820312 C 22.269531 25.820312 22.488281 26.039062 22.488281 26.308594 L 22.488281 29.804688 L 28.578125 25.632812 L 22.488281 21.460938 L 22.488281 23.1875 C 22.488281 23.457031 22.269531 23.679688 22 23.679688 L 9.195312 23.679688 C 6.828125 23.679688 4.902344 21.75 4.902344 19.382812 L 4.902344 17.625 C 4.902344 17.039062 5.015625 16.46875 5.246094 15.933594 C 5.46875 15.417969 5.785156 14.953125 6.1875 14.558594 C 6.382812 14.371094 6.691406 14.371094 6.882812 14.566406 C 7.070312 14.757812 7.066406 15.066406 6.875 15.257812 C 6.234375 15.886719 5.878906 16.726562 5.878906 17.625 L 5.878906 19.382812 C 5.878906 21.210938 7.367188 22.699219 9.195312 22.699219 L 21.507812 22.699219 L 21.507812 20.535156 C 21.507812 20.351562 21.609375 20.183594 21.769531 20.101562 C 21.929688 20.015625 22.125 20.027344 22.277344 20.128906 L 29.722656 25.230469 C 29.855469 25.320312 29.9375 25.472656 29.9375 25.632812 C 29.9375 25.796875 29.855469 25.945312 29.722656 26.039062 L 22.277344 31.136719 C 22.191406 31.195312 22.097656 31.222656 22 31.222656 C 21.921875 31.222656 21.84375 31.203125 21.769531 31.167969 C 21.609375 31.082031 21.507812 30.914062 21.507812 30.734375 L 21.507812 28.574219 L 9.195312 28.574219 C 7.957031 28.574219 6.753906 28.332031 5.617188 27.851562 C 4.523438 27.386719 3.539062 26.726562 2.695312 25.882812 C 1.851562 25.039062 1.191406 24.058594 0.726562 22.960938 C 0.246094 21.828125 0.00390625 20.621094 0.00390625 19.382812 L 0.00390625 17.625 C 0.00390625 16.382812 0.246094 15.179688 0.726562 14.042969 " fill-opacity="1" fill-rule="nonzero"/></g><g clip-path="url(#95648a1837)"><path fill="#84af6d" d="M 30.035156 21.835938 C 30.730469 21.207031 31.125 20.3125 31.125 19.382812 L 31.125 17.625 C 31.125 15.792969 29.636719 14.308594 27.808594 14.308594 L 15.496094 14.308594 L 15.496094 16.472656 C 15.496094 16.652344 15.398438 16.820312 15.234375 16.90625 C 15.164062 16.945312 15.085938 16.960938 15.007812 16.960938 C 14.910156 16.960938 14.8125 16.933594 14.730469 16.875 L 7.28125 11.777344 C 7.148438 11.683594 7.070312 11.535156 7.070312 11.371094 C 7.070312 11.210938 7.148438 11.058594 7.28125 10.96875 L 14.730469 5.867188 C 14.878906 5.765625 15.074219 5.753906 15.234375 5.839844 C 15.398438 5.921875 15.496094 6.089844 15.496094 6.273438 L 15.496094 8.4375 L 27.808594 8.429688 C 29.050781 8.429688 30.253906 8.675781 31.390625 9.152344 C 32.484375 9.617188 33.46875 10.28125 34.308594 11.121094 C 35.152344 11.964844 35.816406 12.949219 36.277344 14.042969 C 36.757812 15.179688 37.003906 16.382812 37.003906 17.625 L 37.003906 19.382812 C 37.003906 20.621094 36.757812 21.828125 36.277344 22.960938 C 35.816406 24.058594 35.152344 25.039062 34.308594 25.882812 C 33.898438 26.292969 33.449219 26.667969 32.972656 26.988281 C 32.890625 27.046875 32.792969 27.074219 32.699219 27.074219 C 32.542969 27.074219 32.386719 27 32.292969 26.859375 C 32.140625 26.636719 32.199219 26.332031 32.421875 26.179688 C 32.847656 25.890625 33.25 25.558594 33.617188 25.191406 C 34.371094 24.4375 34.964844 23.558594 35.378906 22.582031 C 35.804688 21.566406 36.023438 20.492188 36.023438 19.382812 L 36.023438 17.625 C 36.023438 16.515625 35.804688 15.441406 35.378906 14.425781 C 34.964844 13.449219 34.371094 12.570312 33.617188 11.816406 C 32.863281 11.0625 31.984375 10.46875 31.007812 10.054688 C 29.992188 9.628906 28.917969 9.410156 27.808594 9.410156 L 15.007812 9.414062 C 14.992188 9.414062 14.972656 9.414062 14.957031 9.414062 C 14.777344 9.394531 14.625 9.277344 14.558594 9.117188 C 14.554688 9.117188 14.554688 9.117188 14.554688 9.117188 C 14.554688 9.109375 14.550781 9.105469 14.546875 9.097656 C 14.546875 9.097656 14.546875 9.097656 14.546875 9.09375 C 14.546875 9.089844 14.542969 9.082031 14.542969 9.078125 C 14.539062 9.074219 14.539062 9.074219 14.539062 9.070312 C 14.539062 9.066406 14.535156 9.058594 14.535156 9.054688 C 14.535156 9.050781 14.535156 9.050781 14.53125 9.046875 C 14.53125 9.042969 14.53125 9.039062 14.527344 9.03125 C 14.527344 9.03125 14.527344 9.027344 14.527344 9.023438 C 14.527344 9.019531 14.527344 9.011719 14.523438 9.007812 C 14.523438 9.003906 14.523438 9.003906 14.523438 9 C 14.523438 8.996094 14.523438 8.992188 14.519531 8.984375 C 14.519531 8.980469 14.519531 8.980469 14.519531 8.976562 C 14.519531 8.972656 14.519531 8.96875 14.519531 8.964844 C 14.519531 8.960938 14.519531 8.957031 14.519531 8.953125 C 14.519531 8.949219 14.519531 8.941406 14.519531 8.9375 C 14.519531 8.933594 14.519531 8.929688 14.519531 8.925781 L 14.519531 7.199219 L 8.425781 11.371094 L 14.519531 15.542969 L 14.519531 12.046875 C 14.519531 11.777344 14.738281 11.558594 15.007812 11.558594 C 15.277344 11.558594 15.496094 11.777344 15.496094 12.046875 L 15.496094 13.328125 L 27.808594 13.328125 C 30.179688 13.328125 32.105469 15.253906 32.105469 17.625 L 32.105469 19.382812 C 32.105469 19.996094 31.976562 20.59375 31.722656 21.148438 C 31.480469 21.6875 31.136719 22.164062 30.695312 22.5625 C 30.601562 22.648438 30.484375 22.6875 30.367188 22.6875 C 30.234375 22.6875 30.101562 22.636719 30.003906 22.527344 C 29.820312 22.328125 29.835938 22.019531 30.035156 21.835938 " fill-opacity="1" fill-rule="nonzero"/></g></svg>