<svg xmlns="http://www.w3.org/2000/svg" xmlns:xlink="http://www.w3.org/1999/xlink" width="50" zoomAndPan="magnify" viewBox="0 0 37.5 37.499999" height="50" preserveAspectRatio="xMidYMid meet" version="1.0"><defs><clipPath id="7d7ba994f6"><path d="M 16 0 L 36.820312 0 L 36.820312 20 L 16 20 Z M 16 0 " clip-rule="nonzero"/></clipPath><clipPath id="5c60ee5df1"><path d="M 0.554688 12 L 26 12 L 26 37.007812 L 0.554688 37.007812 Z M 0.554688 12 " clip-rule="nonzero"/></clipPath></defs><g clip-path="url(#7d7ba994f6)"><path fill="#84af6d" d="M 34.484375 4.03125 L 34.484375 3.992188 C 33.898438 3.207031 33.195312 2.542969 32.375 1.917969 L 32.375 1.957031 C 31.707031 2.464844 31.042969 3.011719 30.417969 3.558594 C 30.144531 3.402344 29.910156 3.285156 29.671875 3.167969 C 29.359375 3.011719 29.046875 2.855469 28.695312 2.777344 C 28.578125 2.738281 28.460938 2.699219 28.34375 2.699219 C 28.265625 1.839844 28.1875 0.976562 28.070312 0.117188 C 27.679688 0.0390625 27.285156 0.0390625 26.855469 0 L 26.230469 0 C 25.839844 0.0390625 25.488281 0.0390625 25.136719 0.117188 C 25.019531 0.9375 24.9375 1.800781 24.898438 2.660156 C 24.742188 2.660156 24.625 2.699219 24.46875 2.738281 C 24.429688 2.738281 24.390625 2.738281 24.351562 2.777344 C 24.039062 2.855469 23.726562 3.011719 23.414062 3.167969 C 23.140625 3.285156 22.90625 3.402344 22.671875 3.558594 C 22.003906 3.011719 21.378906 2.503906 20.714844 1.957031 L 20.675781 1.917969 C 20.519531 2.035156 20.363281 2.152344 20.246094 2.269531 C 19.96875 2.464844 19.734375 2.699219 19.539062 2.933594 C 19.1875 3.246094 18.914062 3.636719 18.601562 4.03125 L 18.640625 4.03125 C 19.148438 4.695312 19.695312 5.320312 20.246094 5.984375 C 20.085938 6.222656 19.929688 6.496094 19.8125 6.730469 C 19.65625 7.042969 19.539062 7.394531 19.460938 7.707031 C 19.382812 7.863281 19.34375 8.019531 19.34375 8.136719 C 18.484375 8.214844 17.621094 8.292969 16.800781 8.410156 C 16.722656 8.804688 16.683594 9.195312 16.683594 9.625 C 16.683594 10.210938 16.722656 10.796875 16.839844 11.347656 C 17.660156 11.425781 18.484375 11.503906 19.34375 11.582031 C 19.34375 11.738281 19.382812 11.894531 19.460938 12.011719 C 19.539062 12.363281 19.65625 12.675781 19.8125 13.027344 C 19.96875 13.300781 20.085938 13.578125 20.285156 13.8125 C 19.734375 14.476562 19.1875 15.101562 18.679688 15.765625 C 19.265625 16.589844 19.96875 17.292969 20.792969 17.878906 L 20.792969 17.839844 C 21.417969 17.332031 22.082031 16.785156 22.710938 16.238281 L 22.75 16.238281 C 22.945312 16.355469 23.179688 16.472656 23.375 16.589844 C 23.726562 16.746094 24.117188 16.902344 24.46875 16.980469 C 24.625 17.019531 24.742188 17.058594 24.859375 17.097656 C 24.9375 17.917969 25.019531 18.78125 25.136719 19.640625 C 25.488281 19.679688 25.839844 19.71875 26.230469 19.71875 L 26.816406 19.71875 C 27.246094 19.71875 27.679688 19.679688 28.109375 19.601562 C 28.1875 18.78125 28.265625 17.917969 28.34375 17.058594 C 28.460938 17.019531 28.578125 16.980469 28.695312 16.941406 C 29.046875 16.863281 29.359375 16.746094 29.671875 16.589844 C 29.949219 16.472656 30.222656 16.316406 30.496094 16.121094 C 30.496094 16.160156 30.496094 16.160156 30.535156 16.160156 C 31.160156 16.707031 31.824219 17.253906 32.492188 17.761719 C 32.609375 17.683594 32.726562 17.605469 32.882812 17.488281 C 33.117188 17.292969 33.351562 17.058594 33.546875 16.824219 C 33.898438 16.472656 34.25 16.082031 34.5625 15.648438 C 34.015625 14.984375 33.46875 14.320312 32.921875 13.695312 L 32.921875 13.65625 C 33.039062 13.460938 33.15625 13.222656 33.273438 12.988281 C 33.390625 12.675781 33.546875 12.363281 33.625 12.050781 C 33.625 12.011719 33.625 11.972656 33.664062 11.972656 C 33.664062 11.816406 33.703125 11.699219 33.742188 11.621094 C 34.601562 11.542969 35.464844 11.464844 36.285156 11.386719 C 36.363281 10.996094 36.363281 10.601562 36.402344 10.210938 L 36.402344 9.546875 C 36.363281 9.15625 36.363281 8.765625 36.285156 8.371094 C 35.464844 8.292969 34.601562 8.214844 33.742188 8.136719 C 33.703125 8.019531 33.664062 7.902344 33.664062 7.785156 C 33.546875 7.433594 33.429688 7.082031 33.273438 6.730469 C 33.15625 6.496094 33 6.222656 32.882812 5.984375 C 33.390625 5.359375 33.9375 4.695312 34.484375 4.03125 Z M 24.039062 7.277344 C 24.742188 6.535156 25.605469 6.183594 26.582031 6.222656 C 27.601562 6.183594 28.421875 6.535156 29.164062 7.277344 C 29.871094 7.980469 30.222656 8.84375 30.222656 9.820312 C 30.222656 10.835938 29.871094 11.660156 29.164062 12.402344 C 28.421875 13.105469 27.601562 13.460938 26.582031 13.460938 C 25.605469 13.460938 24.742188 13.105469 24.039062 12.402344 C 23.335938 11.660156 22.984375 10.835938 22.984375 9.820312 C 22.984375 8.84375 23.335938 7.980469 24.039062 7.277344 Z M 24.039062 7.277344 " fill-opacity="1" fill-rule="nonzero"/></g><path fill="#84af6d" d="M 26.621094 6.730469 C 25.761719 6.730469 25.058594 7.042969 24.429688 7.628906 C 23.84375 8.253906 23.53125 8.960938 23.53125 9.820312 C 23.53125 10.679688 23.84375 11.386719 24.429688 12.011719 C 25.058594 12.636719 25.761719 12.949219 26.621094 12.949219 C 27.484375 12.949219 28.1875 12.636719 28.8125 12.011719 C 29.4375 11.386719 29.710938 10.679688 29.710938 9.820312 C 29.710938 8.960938 29.4375 8.253906 28.8125 7.628906 C 28.1875 7.042969 27.484375 6.730469 26.621094 6.730469 Z M 24.976562 8.175781 C 25.449219 7.746094 25.996094 7.511719 26.621094 7.511719 C 27.246094 7.511719 27.796875 7.746094 28.265625 8.175781 C 28.734375 8.648438 28.929688 9.15625 28.929688 9.820312 C 28.929688 10.484375 28.734375 11.035156 28.265625 11.464844 C 27.796875 11.933594 27.246094 12.167969 26.621094 12.167969 C 25.996094 12.167969 25.449219 11.933594 24.976562 11.464844 C 24.546875 11.035156 24.3125 10.484375 24.3125 9.820312 C 24.3125 9.195312 24.546875 8.648438 24.976562 8.175781 Z M 24.976562 8.175781 " fill-opacity="1" fill-rule="nonzero"/><g clip-path="url(#5c60ee5df1)"><path fill="#84af6d" d="M 16.566406 13.144531 C 16.410156 13.066406 16.292969 13.027344 16.175781 13.027344 C 15.707031 12.910156 15.238281 12.832031 14.765625 12.753906 C 14.335938 13.8125 13.984375 14.828125 13.632812 15.84375 L 12.929688 15.84375 C 12.457031 15.886719 12.027344 15.925781 11.597656 16.003906 C 11.246094 16.042969 10.894531 16.160156 10.542969 16.277344 C 9.914062 15.375 9.25 14.476562 8.625 13.617188 L 8.585938 13.578125 C 8.351562 13.65625 8.117188 13.734375 7.921875 13.851562 C 7.527344 14.007812 7.175781 14.203125 6.824219 14.4375 C 6.277344 14.710938 5.769531 15.0625 5.296875 15.492188 L 5.296875 15.53125 C 5.769531 16.511719 6.199219 17.488281 6.667969 18.46875 C 6.394531 18.742188 6.160156 18.976562 5.925781 19.289062 C 5.613281 19.601562 5.335938 19.992188 5.101562 20.382812 C 4.984375 20.539062 4.90625 20.695312 4.828125 20.894531 C 3.734375 20.695312 2.636719 20.5 1.542969 20.34375 C 1.347656 20.816406 1.152344 21.285156 0.996094 21.792969 C 0.839844 22.574219 0.683594 23.320312 0.605469 24.0625 L 3.65625 25.234375 L 3.65625 25.785156 C 3.65625 26.214844 3.695312 26.683594 3.8125 27.152344 C 3.851562 27.542969 3.96875 27.933594 4.085938 28.328125 C 3.1875 28.953125 2.324219 29.578125 1.425781 30.242188 C 1.894531 31.417969 2.558594 32.511719 3.34375 33.53125 L 3.382812 33.53125 C 4.359375 33.0625 5.335938 32.628906 6.355469 32.160156 C 6.589844 32.394531 6.824219 32.589844 7.058594 32.824219 C 7.410156 33.140625 7.839844 33.414062 8.3125 33.6875 C 8.429688 33.765625 8.585938 33.84375 8.742188 33.960938 C 8.546875 35.015625 8.390625 36.113281 8.234375 37.207031 C 8.664062 37.402344 9.09375 37.558594 9.5625 37.675781 C 9.679688 37.714844 9.914062 37.792969 10.304688 37.875 C 10.855469 38.03125 11.402344 38.109375 11.910156 38.1875 C 12.339844 37.128906 12.730469 36.113281 13.085938 35.054688 L 13.59375 35.054688 C 14.0625 35.054688 14.492188 35.015625 14.921875 34.9375 C 15.316406 34.859375 15.707031 34.742188 16.097656 34.625 C 16.097656 34.625 16.097656 34.664062 16.136719 34.664062 C 16.761719 35.566406 17.425781 36.464844 18.054688 37.363281 C 18.25 37.246094 18.445312 37.167969 18.601562 37.089844 C 18.992188 36.933594 19.34375 36.738281 19.695312 36.542969 C 20.285156 36.191406 20.832031 35.800781 21.339844 35.371094 C 20.910156 34.351562 20.441406 33.375 19.96875 32.355469 C 20.207031 32.121094 20.402344 31.886719 20.636719 31.652344 C 20.910156 31.300781 21.183594 30.910156 21.417969 30.558594 C 21.417969 30.519531 21.457031 30.476562 21.457031 30.4375 C 21.535156 30.320312 21.613281 30.164062 21.691406 30.046875 C 22.789062 30.242188 23.882812 30.398438 24.976562 30.597656 C 25.175781 30.125 25.332031 29.65625 25.488281 29.148438 C 25.527344 29.03125 25.566406 28.914062 25.605469 28.757812 C 25.644531 28.640625 25.644531 28.523438 25.722656 28.367188 C 25.800781 27.855469 25.917969 27.347656 25.957031 26.878906 C 24.9375 26.449219 23.882812 26.097656 22.867188 25.707031 L 22.867188 25.234375 C 22.867188 24.765625 22.828125 24.257812 22.710938 23.789062 C 22.671875 23.4375 22.554688 23.082031 22.472656 22.730469 C 23.375 22.105469 24.273438 21.441406 25.136719 20.777344 L 25.175781 20.777344 C 24.703125 19.601562 24.078125 18.507812 23.21875 17.488281 C 22.199219 17.917969 21.222656 18.390625 20.246094 18.859375 C 19.96875 18.585938 19.695312 18.3125 19.421875 18.074219 C 19.070312 17.800781 18.71875 17.527344 18.328125 17.332031 C 18.210938 17.214844 18.054688 17.136719 17.9375 17.058594 C 18.09375 15.964844 18.289062 14.867188 18.445312 13.773438 C 17.976562 13.578125 17.464844 13.378906 16.957031 13.222656 C 16.839844 13.183594 16.683594 13.144531 16.566406 13.144531 Z M 9.289062 27.777344 C 8.625 26.644531 8.46875 25.46875 8.820312 24.21875 C 9.132812 22.964844 9.875 22.027344 11.011719 21.363281 C 12.105469 20.738281 13.320312 20.578125 14.53125 20.894531 C 15.785156 21.246094 16.761719 21.949219 17.386719 23.082031 C 18.054688 24.21875 18.210938 25.390625 17.859375 26.644531 C 17.542969 27.894531 16.800781 28.835938 15.707031 29.460938 C 14.53125 30.125 13.359375 30.28125 12.144531 29.929688 C 10.894531 29.617188 9.914062 28.875 9.289062 27.777344 Z M 9.289062 27.777344 " fill-opacity="1" fill-rule="nonzero"/></g><path fill="#84af6d" d="M 9.523438 24.414062 C 9.210938 25.46875 9.328125 26.488281 9.875 27.425781 L 9.914062 27.425781 C 10.464844 28.40625 11.285156 28.992188 12.339844 29.304688 C 13.398438 29.578125 14.414062 29.460938 15.394531 28.914062 C 16.371094 28.328125 16.957031 27.542969 17.269531 26.488281 L 17.269531 26.449219 C 17.542969 25.390625 17.386719 24.375 16.839844 23.4375 C 16.292969 22.457031 15.472656 21.832031 14.414062 21.558594 C 13.359375 21.246094 12.300781 21.402344 11.363281 21.949219 C 10.386719 22.496094 9.796875 23.320312 9.523438 24.414062 Z M 11.871094 22.847656 C 12.613281 22.417969 13.359375 22.300781 14.140625 22.535156 C 14.921875 22.730469 15.550781 23.203125 15.980469 23.945312 C 16.410156 24.648438 16.488281 25.429688 16.292969 26.214844 C 16.058594 26.996094 15.589844 27.621094 14.882812 28.011719 L 14.882812 28.054688 C 14.140625 28.445312 13.398438 28.5625 12.613281 28.328125 C 11.792969 28.132812 11.207031 27.660156 10.777344 26.917969 C 10.386719 26.214844 10.265625 25.46875 10.464844 24.648438 C 10.699219 23.867188 11.167969 23.28125 11.871094 22.847656 Z M 11.871094 22.847656 " fill-opacity="1" fill-rule="nonzero"/></svg>