<svg xmlns="http://www.w3.org/2000/svg" xmlns:xlink="http://www.w3.org/1999/xlink" width="720" zoomAndPan="magnify" viewBox="0 0 540 307.499996" height="410" preserveAspectRatio="xMidYMid meet" version="1.0"><defs><filter x="0%" y="0%" width="100%" height="100%" id="ae6aba4bd1"><feColorMatrix values="0 0 0 0 1 0 0 0 0 1 0 0 0 0 1 0 0 0 1 0" color-interpolation-filters="sRGB"/></filter><clipPath id="e5ae44ec7d"><path d="M 0.4375 0 L 539.5625 0 L 539.5625 307 L 0.4375 307 Z M 0.4375 0 " clip-rule="nonzero"/></clipPath><mask id="9ff3b7e43a"><g filter="url(#ae6aba4bd1)"><rect x="-54" width="648" fill="#000000" y="-30.75" height="368.999995" fill-opacity="0.9"/></g></mask><clipPath id="523e40aff2"><path d="M 366 209 L 407 209 L 407 247 L 366 247 Z M 366 209 " clip-rule="nonzero"/></clipPath><clipPath id="aed9c7db94"><path d="M 393.972656 253.921875 L 362.277344 239.675781 L 378.859375 202.777344 L 410.554688 217.023438 Z M 393.972656 253.921875 " clip-rule="nonzero"/></clipPath><clipPath id="ba810a44e2"><path d="M 378.125 246.796875 L 366.417969 230.453125 L 374.707031 212.011719 L 394.703125 209.914062 L 406.40625 226.257812 L 398.117188 244.699219 Z M 378.125 246.796875 " clip-rule="nonzero"/></clipPath><clipPath id="fb47660c43"><path d="M 366 209 L 407 209 L 407 247 L 366 247 Z M 366 209 " clip-rule="nonzero"/></clipPath><clipPath id="609b15e055"><path d="M 393.972656 253.921875 L 362.371094 239.714844 L 378.941406 202.847656 L 410.542969 217.050781 Z M 393.972656 253.921875 " clip-rule="nonzero"/></clipPath><clipPath id="b920cfa13e"><path d="M 393.972656 253.917969 L 362.277344 239.675781 L 378.851562 202.792969 L 410.546875 217.039062 Z M 393.972656 253.917969 " clip-rule="nonzero"/></clipPath><clipPath id="13baae0e9d"><path d="M 378.125 246.796875 L 366.421875 230.453125 L 374.710938 212.015625 L 394.699219 209.917969 L 406.402344 226.257812 L 398.117188 244.699219 Z M 378.125 246.796875 " clip-rule="nonzero"/></clipPath><clipPath id="012e268e81"><path d="M 341 234 L 371 234 L 371 262 L 341 262 Z M 341 234 " clip-rule="nonzero"/></clipPath><clipPath id="1c6bf0edd3"><path d="M 361.640625 266.914062 L 338.578125 256.550781 L 350.644531 229.703125 L 373.707031 240.066406 Z M 361.640625 266.914062 " clip-rule="nonzero"/></clipPath><clipPath id="6cf400242a"><path d="M 350.109375 261.730469 L 341.59375 249.839844 L 347.625 236.421875 L 362.171875 234.894531 L 370.6875 246.785156 L 364.65625 260.207031 Z M 350.109375 261.730469 " clip-rule="nonzero"/></clipPath><clipPath id="b3456f28bb"><path d="M 341 234 L 371 234 L 371 262 L 341 262 Z M 341 234 " clip-rule="nonzero"/></clipPath><clipPath id="b175bef1d3"><path d="M 361.640625 266.914062 L 338.316406 256.429688 L 350.492188 229.34375 L 373.816406 239.828125 Z M 361.640625 266.914062 " clip-rule="nonzero"/></clipPath><clipPath id="f40e9a9ba8"><path d="M 361.640625 266.914062 L 338.585938 256.550781 L 350.644531 229.722656 L 373.699219 240.085938 Z M 361.640625 266.914062 " clip-rule="nonzero"/></clipPath><clipPath id="ea8b1387f7"><path d="M 350.113281 261.734375 L 341.601562 249.84375 L 347.628906 236.429688 L 362.171875 234.90625 L 370.683594 246.792969 L 364.65625 260.207031 Z M 350.113281 261.734375 " clip-rule="nonzero"/></clipPath><clipPath id="b5b75c33f6"><path d="M 39 73 L 79 73 L 79 112 L 39 112 Z M 39 73 " clip-rule="nonzero"/></clipPath><clipPath id="1fb085c790"><path d="M 68.875 117.378906 L 36.09375 105.835938 L 49.527344 67.679688 L 82.308594 79.222656 Z M 68.875 117.378906 " clip-rule="nonzero"/></clipPath><clipPath id="a351f8056d"><path d="M 52.484375 111.609375 L 39.453125 96.300781 L 46.167969 77.230469 L 65.914062 73.464844 L 78.945312 88.773438 L 72.230469 107.84375 Z M 52.484375 111.609375 " clip-rule="nonzero"/></clipPath><clipPath id="5f5e901309"><path d="M 39 73 L 79 73 L 79 112 L 39 112 Z M 39 73 " clip-rule="nonzero"/></clipPath><clipPath id="b99eb47d32"><path d="M 68.875 117.378906 L 36.191406 105.871094 L 49.617188 67.746094 L 82.296875 79.25 Z M 68.875 117.378906 " clip-rule="nonzero"/></clipPath><clipPath id="699e03be65"><path d="M 68.871094 117.378906 L 36.097656 105.839844 L 49.523438 67.699219 L 82.300781 79.238281 Z M 68.871094 117.378906 " clip-rule="nonzero"/></clipPath><clipPath id="ef6535359e"><path d="M 52.484375 111.609375 L 39.453125 96.304688 L 46.167969 77.234375 L 65.914062 73.46875 L 78.945312 88.773438 L 72.230469 107.84375 Z M 52.484375 111.609375 " clip-rule="nonzero"/></clipPath><clipPath id="68cc66032d"><path d="M 319 227 L 343 227 L 343 249 L 319 249 Z M 319 227 " clip-rule="nonzero"/></clipPath><clipPath id="8e72f2e488"><path d="M 335.160156 253.019531 L 316.859375 244.792969 L 326.4375 223.492188 L 344.738281 231.714844 Z M 335.160156 253.019531 " clip-rule="nonzero"/></clipPath><clipPath id="192a5c414a"><path d="M 326.011719 248.90625 L 319.253906 239.472656 L 324.039062 228.824219 L 335.582031 227.613281 L 342.339844 237.046875 L 337.554688 247.695312 Z M 326.011719 248.90625 " clip-rule="nonzero"/></clipPath><clipPath id="2a0b5d4e14"><path d="M 319 227 L 343 227 L 343 249 L 319 249 Z M 319 227 " clip-rule="nonzero"/></clipPath><clipPath id="0280186848"><path d="M 335.160156 253.019531 L 317.105469 244.902344 L 326.574219 223.835938 L 344.632812 231.953125 Z M 335.160156 253.019531 " clip-rule="nonzero"/></clipPath><clipPath id="93570ddea4"><path d="M 335.164062 253.019531 L 316.871094 244.796875 L 326.4375 223.507812 L 344.730469 231.730469 Z M 335.164062 253.019531 " clip-rule="nonzero"/></clipPath><clipPath id="054e4a0fed"><path d="M 326.015625 248.90625 L 319.261719 239.472656 L 324.046875 228.832031 L 335.582031 227.621094 L 342.339844 237.050781 L 337.554688 247.695312 Z M 326.015625 248.90625 " clip-rule="nonzero"/></clipPath><clipPath id="1c0ce286a4"><path d="M 312 203 L 338 203 L 338 227 L 312 227 Z M 312 203 " clip-rule="nonzero"/></clipPath><clipPath id="352f90de6c"><path d="M 329.9375 230.90625 L 310.3125 222.085938 L 320.578125 199.234375 L 340.207031 208.058594 Z M 329.9375 230.90625 " clip-rule="nonzero"/></clipPath><clipPath id="6cebf06a59"><path d="M 320.125 226.496094 L 312.878906 216.375 L 318.007812 204.953125 L 330.390625 203.65625 L 337.636719 213.777344 L 332.503906 225.195312 Z M 320.125 226.496094 " clip-rule="nonzero"/></clipPath><clipPath id="c353f4e95b"><path d="M 312 203 L 338 203 L 338 227 L 312 227 Z M 312 203 " clip-rule="nonzero"/></clipPath><clipPath id="f5400c22ee"><path d="M 329.9375 230.90625 L 310.375 222.113281 L 320.519531 199.539062 L 340.085938 208.332031 Z M 329.9375 230.90625 " clip-rule="nonzero"/></clipPath><clipPath id="8b7801b375"><path d="M 329.9375 230.90625 L 310.316406 222.085938 L 320.578125 199.257812 L 340.199219 208.074219 Z M 329.9375 230.90625 " clip-rule="nonzero"/></clipPath><clipPath id="46f7f074b2"><path d="M 320.128906 226.496094 L 312.882812 216.378906 L 318.011719 204.964844 L 330.390625 203.664062 L 337.632812 213.78125 L 332.503906 225.199219 Z M 320.128906 226.496094 " clip-rule="nonzero"/></clipPath><clipPath id="6b1795abf0"><path d="M 54 110 L 112 110 L 112 166 L 54 166 Z M 54 110 " clip-rule="nonzero"/></clipPath><clipPath id="fe29c1e50a"><path d="M 96.925781 174.078125 L 49.5 157.378906 L 68.9375 102.171875 L 116.363281 118.871094 Z M 96.925781 174.078125 " clip-rule="nonzero"/></clipPath><clipPath id="f7422b27a6"><path d="M 73.210938 165.730469 L 54.355469 143.582031 L 64.070312 115.988281 L 92.640625 110.542969 L 111.496094 132.6875 L 101.78125 160.28125 Z M 73.210938 165.730469 " clip-rule="nonzero"/></clipPath><clipPath id="31b4a2dfaa"><path d="M 54 110 L 112 110 L 112 166 L 54 166 Z M 54 110 " clip-rule="nonzero"/></clipPath><clipPath id="9877b9cb00"><path d="M 96.925781 174.078125 L 49.460938 157.367188 L 68.910156 102.121094 L 116.375 118.832031 Z M 96.925781 174.078125 " clip-rule="nonzero"/></clipPath><clipPath id="ec92f13c10"><path d="M 96.925781 174.074219 L 49.511719 157.378906 L 68.9375 102.203125 L 116.351562 118.898438 Z M 96.925781 174.074219 " clip-rule="nonzero"/></clipPath><clipPath id="4f7ffcf61b"><path d="M 73.21875 165.726562 L 54.367188 143.585938 L 64.078125 115.996094 L 92.644531 110.550781 L 111.496094 132.691406 L 101.78125 160.277344 Z M 73.21875 165.726562 " clip-rule="nonzero"/></clipPath><clipPath id="301867bc2d"><path d="M 33 115 L 55 115 L 55 136 L 33 136 Z M 33 115 " clip-rule="nonzero"/></clipPath><clipPath id="90a7afae1a"><path d="M 48.753906 138.980469 L 31.535156 132.917969 L 38.59375 112.875 L 55.8125 118.9375 Z M 48.753906 138.980469 " clip-rule="nonzero"/></clipPath><clipPath id="94aa88440d"><path d="M 40.144531 135.949219 L 33.300781 127.910156 L 36.828125 117.890625 L 47.199219 115.914062 L 54.046875 123.953125 L 50.519531 133.972656 Z M 40.144531 135.949219 " clip-rule="nonzero"/></clipPath><clipPath id="03803edd8e"><path d="M 33 115 L 55 115 L 55 136 L 33 136 Z M 33 115 " clip-rule="nonzero"/></clipPath><clipPath id="973b85a91b"><path d="M 48.753906 138.980469 L 31.636719 132.953125 L 38.757812 112.722656 L 55.878906 118.75 Z M 48.753906 138.980469 " clip-rule="nonzero"/></clipPath><clipPath id="4e44639357"><path d="M 48.75 138.980469 L 31.542969 132.921875 L 38.59375 112.898438 L 55.800781 118.957031 Z M 48.75 138.980469 " clip-rule="nonzero"/></clipPath><clipPath id="3c87adc5fe"><path d="M 40.148438 135.949219 L 33.304688 127.914062 L 36.832031 117.902344 L 47.195312 115.925781 L 54.039062 123.960938 L 50.511719 133.972656 Z M 40.148438 135.949219 " clip-rule="nonzero"/></clipPath><clipPath id="2dd6fe9cec"><path d="M 10 92 L 39 92 L 39 120 L 10 120 Z M 10 92 " clip-rule="nonzero"/></clipPath><clipPath id="c8229ba3c7"><path d="M 31.566406 123.992188 L 7.71875 115.597656 L 17.492188 87.832031 L 41.34375 96.230469 Z M 31.566406 123.992188 " clip-rule="nonzero"/></clipPath><clipPath id="dd1cb35a41"><path d="M 19.640625 119.796875 L 10.160156 108.65625 L 15.046875 94.78125 L 29.414062 92.042969 L 38.894531 103.179688 L 34.011719 117.054688 Z M 19.640625 119.796875 " clip-rule="nonzero"/></clipPath><clipPath id="14090d4799"><path d="M 10 92 L 39 92 L 39 120 L 10 120 Z M 10 92 " clip-rule="nonzero"/></clipPath><clipPath id="216957e5da"><path d="M 31.566406 123.992188 L 7.445312 115.5 L 17.308594 87.488281 L 41.429688 95.980469 Z M 31.566406 123.992188 " clip-rule="nonzero"/></clipPath><clipPath id="5635e7b4f3"><path d="M 31.566406 123.992188 L 7.726562 115.597656 L 17.492188 87.855469 L 41.335938 96.25 Z M 31.566406 123.992188 " clip-rule="nonzero"/></clipPath><clipPath id="55dbd471dc"><path d="M 19.644531 119.796875 L 10.167969 108.664062 L 15.050781 94.792969 L 29.414062 92.050781 L 38.894531 103.183594 L 34.007812 117.058594 Z M 19.644531 119.796875 " clip-rule="nonzero"/></clipPath><clipPath id="24c98696ed"><path d="M 77 214 L 118 214 L 118 253 L 77 253 Z M 77 214 " clip-rule="nonzero"/></clipPath><clipPath id="3eb41069c2"><path d="M 123.976562 238.488281 L 97.011719 260.410156 L 71.496094 229.015625 L 98.460938 207.097656 Z M 123.976562 238.488281 " clip-rule="nonzero"/></clipPath><clipPath id="124e1954b0"><path d="M 110.496094 249.449219 L 90.636719 252.5625 L 77.882812 236.875 L 84.988281 218.070312 L 104.847656 214.953125 L 117.601562 230.644531 Z M 110.496094 249.449219 " clip-rule="nonzero"/></clipPath><clipPath id="5635f4e90b"><path d="M 77 214 L 118 214 L 118 253 L 77 253 Z M 77 214 " clip-rule="nonzero"/></clipPath><clipPath id="5bb1f51567"><path d="M 123.976562 238.488281 L 97.09375 260.34375 L 71.597656 228.976562 L 98.480469 207.121094 Z M 123.976562 238.488281 " clip-rule="nonzero"/></clipPath><clipPath id="4be569eb7a"><path d="M 123.976562 238.488281 L 97.011719 260.40625 L 71.507812 229.03125 L 98.472656 207.113281 Z M 123.976562 238.488281 " clip-rule="nonzero"/></clipPath><clipPath id="d49e8b30dc"><path d="M 110.496094 249.449219 L 90.636719 252.5625 L 77.886719 236.875 L 84.992188 218.070312 L 104.847656 214.957031 L 117.601562 230.644531 Z M 110.496094 249.449219 " clip-rule="nonzero"/></clipPath><clipPath id="25efaed05d"><path d="M 87 256 L 117 256 L 117 284 L 87 284 Z M 87 256 " clip-rule="nonzero"/></clipPath><clipPath id="a47a807d55"><path d="M 121.066406 273.207031 L 101.445312 289.15625 L 82.878906 266.316406 L 102.5 250.367188 Z M 121.066406 273.207031 " clip-rule="nonzero"/></clipPath><clipPath id="cc798b29ba"><path d="M 111.253906 281.179688 L 96.804688 283.445312 L 87.523438 272.03125 L 92.695312 258.347656 L 107.144531 256.082031 L 116.425781 267.5 Z M 111.253906 281.179688 " clip-rule="nonzero"/></clipPath><clipPath id="aa8004fa5e"><path d="M 87 256 L 117 256 L 117 284 L 87 284 Z M 87 256 " clip-rule="nonzero"/></clipPath><clipPath id="bc2894716e"><path d="M 121.066406 273.207031 L 101.21875 289.335938 L 82.488281 266.292969 L 102.332031 250.160156 Z M 121.066406 273.207031 " clip-rule="nonzero"/></clipPath><clipPath id="1d18a9a3fa"><path d="M 121.0625 273.207031 L 101.449219 289.148438 L 82.898438 266.324219 L 102.511719 250.382812 Z M 121.0625 273.207031 " clip-rule="nonzero"/></clipPath><clipPath id="664b76817f"><path d="M 111.257812 281.175781 L 96.8125 283.441406 L 87.535156 272.03125 L 92.703125 258.351562 L 107.148438 256.089844 L 116.425781 267.5 Z M 111.257812 281.175781 " clip-rule="nonzero"/></clipPath><clipPath id="6f646e9d8e"><path d="M 47 237 L 88 237 L 88 275 L 47 275 Z M 47 237 " clip-rule="nonzero"/></clipPath><clipPath id="9aa0e0e1c3"><path d="M 93.445312 260.832031 L 66.476562 282.753906 L 40.960938 251.359375 L 67.929688 229.441406 Z M 93.445312 260.832031 " clip-rule="nonzero"/></clipPath><clipPath id="7e672d83f5"><path d="M 79.960938 271.792969 L 60.101562 274.90625 L 47.347656 259.21875 L 54.453125 240.414062 L 74.316406 237.296875 L 87.066406 252.988281 Z M 79.960938 271.792969 " clip-rule="nonzero"/></clipPath><clipPath id="eafe8cb123"><path d="M 47 237 L 88 237 L 88 275 L 47 275 Z M 47 237 " clip-rule="nonzero"/></clipPath><clipPath id="d906fcd1db"><path d="M 93.445312 260.832031 L 66.558594 282.6875 L 41.0625 251.320312 L 67.949219 229.464844 Z M 93.445312 260.832031 " clip-rule="nonzero"/></clipPath><clipPath id="036afb61b0"><path d="M 93.445312 260.832031 L 66.480469 282.75 L 40.976562 251.375 L 67.941406 229.457031 Z M 93.445312 260.832031 " clip-rule="nonzero"/></clipPath><clipPath id="5d3fd0f989"><path d="M 79.960938 271.792969 L 60.101562 274.90625 L 47.351562 259.21875 L 54.457031 240.414062 L 74.316406 237.300781 L 87.066406 252.988281 Z M 79.960938 271.792969 " clip-rule="nonzero"/></clipPath><clipPath id="f9b01f9c52"><path d="M 70 277 L 94 277 L 94 299 L 70 299 Z M 70 277 " clip-rule="nonzero"/></clipPath><clipPath id="23b52a6fb9"><path d="M 96.753906 290.625 L 81.183594 303.28125 L 66.453125 285.15625 L 82.023438 272.5 Z M 96.753906 290.625 " clip-rule="nonzero"/></clipPath><clipPath id="f19575731d"><path d="M 88.96875 296.953125 L 77.503906 298.75 L 70.140625 289.691406 L 74.242188 278.835938 L 85.707031 277.035156 L 93.070312 286.09375 Z M 88.96875 296.953125 " clip-rule="nonzero"/></clipPath><clipPath id="3b9f41ecdf"><path d="M 70 277 L 94 277 L 94 299 L 70 299 Z M 70 277 " clip-rule="nonzero"/></clipPath><clipPath id="998ceeaef2"><path d="M 96.753906 290.625 L 81.390625 303.113281 L 66.820312 285.1875 L 82.183594 272.699219 Z M 96.753906 290.625 " clip-rule="nonzero"/></clipPath><clipPath id="a056842c45"><path d="M 96.753906 290.621094 L 81.1875 303.273438 L 66.46875 285.164062 L 82.03125 272.511719 Z M 96.753906 290.621094 " clip-rule="nonzero"/></clipPath><clipPath id="809555207c"><path d="M 88.96875 296.945312 L 77.507812 298.746094 L 70.148438 289.691406 L 74.25 278.835938 L 85.710938 277.039062 L 93.070312 286.09375 Z M 88.96875 296.945312 " clip-rule="nonzero"/></clipPath><clipPath id="c959369a34"><path d="M 97 69 L 123 69 L 123 93 L 97 93 Z M 97 69 " clip-rule="nonzero"/></clipPath><clipPath id="ace51dfe91"><path d="M 126.019531 83.996094 L 109.320312 97.570312 L 93.523438 78.132812 L 110.21875 64.558594 Z M 126.019531 83.996094 " clip-rule="nonzero"/></clipPath><clipPath id="f295ae6525"><path d="M 117.671875 90.785156 L 105.375 92.714844 L 97.476562 82.996094 L 101.875 71.351562 L 114.175781 69.425781 L 122.070312 79.140625 Z M 117.671875 90.785156 " clip-rule="nonzero"/></clipPath><clipPath id="8c0856d7c8"><path d="M 97 69 L 123 69 L 123 93 L 97 93 Z M 97 69 " clip-rule="nonzero"/></clipPath><clipPath id="e619bebdf7"><path d="M 126.019531 83.996094 L 109.378906 97.527344 L 93.765625 78.320312 L 110.410156 64.792969 Z M 126.019531 83.996094 " clip-rule="nonzero"/></clipPath><clipPath id="070d1d2b0e"><path d="M 126.019531 84 L 109.328125 97.566406 L 93.539062 78.140625 L 110.230469 64.574219 Z M 126.019531 84 " clip-rule="nonzero"/></clipPath><clipPath id="cb9287be5a"><path d="M 117.675781 90.78125 L 105.378906 92.710938 L 97.484375 83 L 101.886719 71.359375 L 114.179688 69.429688 L 122.074219 79.140625 Z M 117.675781 90.78125 " clip-rule="nonzero"/></clipPath><clipPath id="49d787eeaf"><path d="M 255 226 L 313 226 L 313 281 L 255 281 Z M 255 226 " clip-rule="nonzero"/></clipPath><clipPath id="604a36c703"><path d="M 321.835938 260.457031 L 282.925781 292.300781 L 245.855469 247.007812 L 284.765625 215.164062 Z M 321.835938 260.457031 " clip-rule="nonzero"/></clipPath><clipPath id="1d760fd80e"><path d="M 302.378906 276.378906 L 273.660156 280.984375 L 255.132812 258.34375 L 265.324219 231.101562 L 294.042969 226.5 L 312.570312 249.136719 Z M 302.378906 276.378906 " clip-rule="nonzero"/></clipPath><clipPath id="66dddbbad3"><path d="M 255 226 L 313 226 L 313 281 L 255 281 Z M 255 226 " clip-rule="nonzero"/></clipPath><clipPath id="41fb1d7043"><path d="M 321.835938 260.457031 L 282.894531 292.328125 L 245.796875 247.003906 L 284.738281 215.132812 Z M 321.835938 260.457031 " clip-rule="nonzero"/></clipPath><clipPath id="6573405647"><path d="M 321.832031 260.453125 L 282.929688 292.292969 L 245.882812 247.023438 L 284.78125 215.1875 Z M 321.832031 260.453125 " clip-rule="nonzero"/></clipPath><clipPath id="0451e30e27"><path d="M 302.382812 276.371094 L 273.667969 280.976562 L 255.144531 258.339844 L 265.332031 231.105469 L 294.046875 226.503906 L 312.570312 249.136719 Z M 302.382812 276.371094 " clip-rule="nonzero"/></clipPath><clipPath id="ef6af3df0a"><path d="M 3 43 L 25 43 L 25 64 L 3 64 Z M 3 43 " clip-rule="nonzero"/></clipPath><clipPath id="702ce4949b"><path d="M 27.996094 56.175781 L 13.828125 67.6875 L 0.425781 51.199219 L 14.59375 39.683594 Z M 27.996094 56.175781 " clip-rule="nonzero"/></clipPath><clipPath id="0d95a80b55"><path d="M 20.914062 61.929688 L 10.480469 63.566406 L 3.78125 55.324219 L 7.515625 45.449219 L 17.945312 43.8125 L 24.644531 52.054688 Z M 20.914062 61.929688 " clip-rule="nonzero"/></clipPath><clipPath id="5b53f0086d"><path d="M 3 43 L 25 43 L 25 64 L 3 64 Z M 3 43 " clip-rule="nonzero"/></clipPath><clipPath id="cd1f999ab5"><path d="M 27.996094 56.175781 L 13.914062 67.621094 L 0.382812 50.976562 L 14.46875 39.53125 Z M 27.996094 56.175781 " clip-rule="nonzero"/></clipPath><clipPath id="5bb62fc6d0"><path d="M 27.992188 56.175781 L 13.835938 67.683594 L 0.445312 51.210938 L 14.601562 39.703125 Z M 27.992188 56.175781 " clip-rule="nonzero"/></clipPath><clipPath id="e2851dca3f"><path d="M 20.914062 61.929688 L 10.488281 63.566406 L 3.792969 55.328125 L 7.523438 45.457031 L 17.949219 43.820312 L 24.644531 52.058594 Z M 20.914062 61.929688 " clip-rule="nonzero"/></clipPath><clipPath id="f813c43f77"><path d="M 5 63 L 34 63 L 34 92 L 5 92 Z M 5 63 " clip-rule="nonzero"/></clipPath><clipPath id="aa7e0046cf"><path d="M 38.605469 80.976562 L 18.984375 96.925781 L 0.421875 74.085938 L 20.042969 58.136719 Z M 38.605469 80.976562 " clip-rule="nonzero"/></clipPath><clipPath id="3f0a739a3f"><path d="M 28.796875 88.949219 L 14.347656 91.21875 L 5.066406 79.800781 L 10.238281 66.117188 L 24.6875 63.851562 L 33.96875 75.269531 Z M 28.796875 88.949219 " clip-rule="nonzero"/></clipPath><clipPath id="a207ddbc3f"><path d="M 5 63 L 34 63 L 34 92 L 5 92 Z M 5 63 " clip-rule="nonzero"/></clipPath><clipPath id="be3d691b7e"><path d="M 38.605469 80.976562 L 18.761719 97.105469 L 0.03125 74.0625 L 19.875 57.929688 Z M 38.605469 80.976562 " clip-rule="nonzero"/></clipPath><clipPath id="1d20e09ba6"><path d="M 38.605469 80.976562 L 18.992188 96.917969 L 0.441406 74.09375 L 20.054688 58.152344 Z M 38.605469 80.976562 " clip-rule="nonzero"/></clipPath><clipPath id="97861de050"><path d="M 28.800781 88.949219 L 14.355469 91.214844 L 5.078125 79.800781 L 10.246094 66.125 L 24.691406 63.859375 L 33.96875 75.269531 Z M 28.800781 88.949219 " clip-rule="nonzero"/></clipPath><clipPath id="9e8394a7e4"><path d="M 404 228 L 444 228 L 444 268 L 404 268 Z M 404 228 " clip-rule="nonzero"/></clipPath><clipPath id="402a712ee8"><path d="M 397.136719 246.480469 L 421.546875 221.742188 L 450.34375 250.15625 L 425.933594 274.890625 Z M 397.136719 246.480469 " clip-rule="nonzero"/></clipPath><clipPath id="19258d58a3"><path d="M 409.34375 234.113281 L 428.742188 228.84375 L 443.136719 243.042969 L 438.128906 262.511719 L 418.726562 267.78125 L 404.335938 253.582031 Z M 409.34375 234.113281 " clip-rule="nonzero"/></clipPath><clipPath id="951b13ef6e"><path d="M 404 228 L 444 228 L 444 268 L 404 268 Z M 404 228 " clip-rule="nonzero"/></clipPath><clipPath id="3c243817c2"><path d="M 397.136719 246.480469 L 421.472656 221.816406 L 450.246094 250.207031 L 425.914062 274.871094 Z M 397.136719 246.480469 " clip-rule="nonzero"/></clipPath><clipPath id="89494bd0c6"><path d="M 397.140625 246.480469 L 421.542969 221.746094 L 450.328125 250.144531 L 425.921875 274.878906 Z M 397.140625 246.480469 " clip-rule="nonzero"/></clipPath><clipPath id="208aaef570"><path d="M 409.34375 234.113281 L 428.742188 228.84375 L 443.132812 243.042969 L 438.125 262.511719 L 418.726562 267.777344 L 404.335938 253.578125 Z M 409.34375 234.113281 " clip-rule="nonzero"/></clipPath><clipPath id="72266a5f7f"><path d="M 404 197 L 433 197 L 433 227 L 404 227 Z M 404 197 " clip-rule="nonzero"/></clipPath><clipPath id="a11de764ce"><path d="M 399.335938 210.628906 L 417.09375 192.628906 L 438.046875 213.300781 L 420.289062 231.300781 Z M 399.335938 210.628906 " clip-rule="nonzero"/></clipPath><clipPath id="476b964c26"><path d="M 408.214844 201.628906 L 422.332031 197.796875 L 432.804688 208.128906 L 429.160156 222.292969 L 415.042969 226.125 L 404.574219 215.792969 Z M 408.214844 201.628906 " clip-rule="nonzero"/></clipPath><clipPath id="b0d86f7999"><path d="M 404 197 L 433 197 L 433 227 L 404 227 Z M 404 197 " clip-rule="nonzero"/></clipPath><clipPath id="528966784d"><path d="M 399.335938 210.628906 L 417.296875 192.425781 L 438.4375 213.28125 L 420.476562 231.484375 Z M 399.335938 210.628906 " clip-rule="nonzero"/></clipPath><clipPath id="8dd880e8af"><path d="M 399.335938 210.628906 L 417.089844 192.636719 L 438.027344 213.292969 L 420.273438 231.285156 Z M 399.335938 210.628906 " clip-rule="nonzero"/></clipPath><clipPath id="6dab6130f1"><path d="M 408.214844 201.632812 L 422.324219 197.800781 L 432.792969 208.128906 L 429.152344 222.289062 L 415.039062 226.121094 L 404.570312 215.792969 Z M 408.214844 201.632812 " clip-rule="nonzero"/></clipPath><clipPath id="6e1e226d7f"><path d="M 435 202 L 475 202 L 475 242 L 435 242 Z M 435 202 " clip-rule="nonzero"/></clipPath><clipPath id="18efb26451"><path d="M 428.152344 219.910156 L 452.558594 195.175781 L 481.355469 223.585938 L 456.949219 248.324219 Z M 428.152344 219.910156 " clip-rule="nonzero"/></clipPath><clipPath id="e9e543f58d"><path d="M 440.355469 207.542969 L 459.757812 202.273438 L 474.148438 216.476562 L 469.140625 235.945312 L 449.742188 241.210938 L 435.347656 227.011719 Z M 440.355469 207.542969 " clip-rule="nonzero"/></clipPath><clipPath id="acecef7157"><path d="M 435 202 L 475 202 L 475 242 L 435 242 Z M 435 202 " clip-rule="nonzero"/></clipPath><clipPath id="f8ec4594b0"><path d="M 428.152344 219.910156 L 452.488281 195.246094 L 481.261719 223.636719 L 456.925781 248.300781 Z M 428.152344 219.910156 " clip-rule="nonzero"/></clipPath><clipPath id="ac99689bf4"><path d="M 428.152344 219.910156 L 452.558594 195.175781 L 481.339844 223.574219 L 456.9375 248.308594 Z M 428.152344 219.910156 " clip-rule="nonzero"/></clipPath><clipPath id="3ecd73647f"><path d="M 440.355469 207.542969 L 459.753906 202.273438 L 474.144531 216.472656 L 469.140625 235.941406 L 449.742188 241.210938 L 435.347656 227.011719 Z M 440.355469 207.542969 " clip-rule="nonzero"/></clipPath><clipPath id="0dd0f58cd7"><path d="M 136 143 L 161 143 L 161 165 L 136 165 Z M 136 143 " clip-rule="nonzero"/></clipPath><clipPath id="72a9b912fe"><path d="M 134.28125 148.300781 L 152.238281 139.351562 L 162.652344 160.257812 L 144.695312 169.203125 Z M 134.28125 148.300781 " clip-rule="nonzero"/></clipPath><clipPath id="df43151191"><path d="M 143.257812 143.824219 L 154.839844 144.574219 L 160.046875 155.023438 L 153.671875 164.722656 L 142.089844 163.972656 L 136.882812 153.523438 Z M 143.257812 143.824219 " clip-rule="nonzero"/></clipPath><clipPath id="67ccdb1602"><path d="M 136 143 L 161 143 L 161 165 L 136 165 Z M 136 143 " clip-rule="nonzero"/></clipPath><clipPath id="fab61c366f"><path d="M 134.28125 148.300781 L 152 139.46875 L 162.300781 160.144531 L 144.578125 168.972656 Z M 134.28125 148.300781 " clip-rule="nonzero"/></clipPath><clipPath id="e0bbdf7fc2"><path d="M 134.28125 148.300781 L 152.230469 139.355469 L 162.640625 160.246094 L 144.6875 169.191406 Z M 134.28125 148.300781 " clip-rule="nonzero"/></clipPath><clipPath id="f2a69b653f"><path d="M 143.257812 143.828125 L 154.835938 144.578125 L 160.039062 155.023438 L 153.664062 164.71875 L 142.085938 163.96875 L 136.882812 153.523438 Z M 143.257812 143.828125 " clip-rule="nonzero"/></clipPath><clipPath id="d747c6eb6d"><path d="M 423 177 L 448 177 L 448 202 L 423 202 Z M 423 177 " clip-rule="nonzero"/></clipPath><clipPath id="6fa479c9b2"><path d="M 418.6875 188.617188 L 433.800781 173.296875 L 451.632812 190.890625 L 436.519531 206.210938 Z M 418.6875 188.617188 " clip-rule="nonzero"/></clipPath><clipPath id="464e637859"><path d="M 426.246094 180.957031 L 438.257812 177.695312 L 447.171875 186.488281 L 444.070312 198.542969 L 432.058594 201.804688 L 423.144531 193.011719 Z M 426.246094 180.957031 " clip-rule="nonzero"/></clipPath><clipPath id="4c187aeb52"><path d="M 423 177 L 448 177 L 448 202 L 423 202 Z M 423 177 " clip-rule="nonzero"/></clipPath><clipPath id="9df5b9428c"><path d="M 418.6875 188.617188 L 433.753906 173.347656 L 451.371094 190.730469 L 436.304688 205.996094 Z M 418.6875 188.617188 " clip-rule="nonzero"/></clipPath><clipPath id="568aa3e969"><path d="M 418.6875 188.617188 L 433.796875 173.304688 L 451.617188 190.882812 L 436.507812 206.195312 Z M 418.6875 188.617188 " clip-rule="nonzero"/></clipPath><clipPath id="9ee7d814e3"><path d="M 426.242188 180.960938 L 438.253906 177.699219 L 447.160156 186.488281 L 444.0625 198.539062 L 432.054688 201.800781 L 423.144531 193.011719 Z M 426.242188 180.960938 " clip-rule="nonzero"/></clipPath><clipPath id="ecd26dcc55"><path d="M 473 203 L 530 203 L 530 260 L 473 260 Z M 473 203 " clip-rule="nonzero"/></clipPath><clipPath id="e8a28913f9"><path d="M 462.597656 228.644531 L 497.914062 192.851562 L 539.574219 233.957031 L 504.261719 269.75 Z M 462.597656 228.644531 " clip-rule="nonzero"/></clipPath><clipPath id="ba904ef7e4"><path d="M 480.253906 210.746094 L 508.324219 203.125 L 529.148438 223.671875 L 521.902344 251.839844 L 493.835938 259.460938 L 473.011719 238.917969 Z M 480.253906 210.746094 " clip-rule="nonzero"/></clipPath><clipPath id="554f67de5a"><path d="M 473 203 L 530 203 L 530 260 L 473 260 Z M 473 203 " clip-rule="nonzero"/></clipPath><clipPath id="a4c31e5fd3"><path d="M 462.597656 228.644531 L 497.941406 192.824219 L 539.632812 233.957031 L 504.292969 269.777344 Z M 462.597656 228.644531 " clip-rule="nonzero"/></clipPath><clipPath id="b9a03c367d"><path d="M 462.601562 228.648438 L 497.910156 192.863281 L 539.546875 233.945312 L 504.242188 269.730469 Z M 462.601562 228.648438 " clip-rule="nonzero"/></clipPath><clipPath id="1eb6320be4"><path d="M 480.253906 210.753906 L 508.320312 203.132812 L 529.136719 223.675781 L 521.894531 251.839844 L 493.832031 259.460938 L 473.011719 238.917969 Z M 480.253906 210.753906 " clip-rule="nonzero"/></clipPath><clipPath id="440f3d1d59"><path d="M 422 151 L 443 151 L 443 173 L 422 173 Z M 422 151 " clip-rule="nonzero"/></clipPath><clipPath id="1066c82a74"><path d="M 418.691406 160.996094 L 431.511719 148.003906 L 446.636719 162.925781 L 433.816406 175.921875 Z M 418.691406 160.996094 " clip-rule="nonzero"/></clipPath><clipPath id="8a0da28670"><path d="M 425.101562 154.5 L 435.292969 151.734375 L 442.851562 159.191406 L 440.222656 169.417969 L 430.03125 172.1875 L 422.46875 164.726562 Z M 425.101562 154.5 " clip-rule="nonzero"/></clipPath><clipPath id="7eddd153df"><path d="M 422 151 L 443 151 L 443 173 L 422 173 Z M 422 151 " clip-rule="nonzero"/></clipPath><clipPath id="dd777f0719"><path d="M 418.691406 160.996094 L 431.4375 148.078125 L 446.703125 163.144531 L 433.957031 176.0625 Z M 418.691406 160.996094 " clip-rule="nonzero"/></clipPath><clipPath id="a83ee26c13"><path d="M 418.691406 160.996094 L 431.507812 148.007812 L 446.617188 162.917969 L 433.804688 175.90625 Z M 418.691406 160.996094 " clip-rule="nonzero"/></clipPath><clipPath id="eb15bb7e47"><path d="M 425.101562 154.5 L 435.285156 151.734375 L 442.839844 159.191406 L 440.210938 169.410156 L 430.027344 172.175781 L 422.472656 164.722656 Z M 425.101562 154.5 " clip-rule="nonzero"/></clipPath><clipPath id="80c0d2d9c1"><path d="M 49 206 L 78 206 L 78 235 L 49 235 Z M 49 206 " clip-rule="nonzero"/></clipPath><clipPath id="84db46b8bc"><path d="M 43.769531 219.238281 L 61.527344 201.238281 L 82.480469 221.910156 L 64.722656 239.910156 Z M 43.769531 219.238281 " clip-rule="nonzero"/></clipPath><clipPath id="41d5d7541a"><path d="M 52.648438 210.238281 L 66.765625 206.40625 L 77.238281 216.738281 L 73.59375 230.902344 L 59.480469 234.734375 L 49.007812 224.402344 Z M 52.648438 210.238281 " clip-rule="nonzero"/></clipPath><clipPath id="83380029db"><path d="M 49 206 L 78 206 L 78 235 L 49 235 Z M 49 206 " clip-rule="nonzero"/></clipPath><clipPath id="c500abbfe8"><path d="M 43.769531 219.238281 L 61.730469 201.035156 L 82.871094 221.890625 L 64.910156 240.09375 Z M 43.769531 219.238281 " clip-rule="nonzero"/></clipPath><clipPath id="23727646ba"><path d="M 43.769531 219.238281 L 61.523438 201.246094 L 82.460938 221.902344 L 64.707031 239.894531 Z M 43.769531 219.238281 " clip-rule="nonzero"/></clipPath><clipPath id="8e488f2b74"><path d="M 52.648438 210.242188 L 66.757812 206.410156 L 77.226562 216.738281 L 73.585938 230.898438 L 59.472656 234.730469 L 49.003906 224.402344 Z M 52.648438 210.242188 " clip-rule="nonzero"/></clipPath><clipPath id="daa7d2c94f"><path d="M 218 223 L 258 223 L 258 262 L 218 262 Z M 218 223 " clip-rule="nonzero"/></clipPath><clipPath id="720ec53686"><path d="M 211.6875 238.195312 L 238.433594 216.003906 L 264.261719 247.132812 L 237.519531 269.324219 Z M 211.6875 238.195312 " clip-rule="nonzero"/></clipPath><clipPath id="d52761703d"><path d="M 225.058594 227.097656 L 244.886719 223.78125 L 257.796875 239.34375 L 250.882812 258.21875 L 231.054688 261.535156 L 218.144531 245.972656 Z M 225.058594 227.097656 " clip-rule="nonzero"/></clipPath><clipPath id="dd474607df"><path d="M 218 223 L 258 223 L 258 262 L 218 262 Z M 218 223 " clip-rule="nonzero"/></clipPath><clipPath id="2df3dd9630"><path d="M 211.6875 238.195312 L 238.351562 216.070312 L 264.164062 247.175781 L 237.5 269.300781 Z M 211.6875 238.195312 " clip-rule="nonzero"/></clipPath><clipPath id="542f74053b"><path d="M 211.6875 238.191406 L 238.429688 216.003906 L 264.25 247.121094 L 237.507812 269.3125 Z M 211.6875 238.191406 " clip-rule="nonzero"/></clipPath><clipPath id="a6fbfeee4f"><path d="M 225.058594 227.097656 L 244.886719 223.785156 L 257.796875 239.34375 L 250.878906 258.214844 L 231.054688 261.53125 L 218.144531 245.972656 Z M 225.058594 227.097656 " clip-rule="nonzero"/></clipPath><clipPath id="8ca2916475"><path d="M 248 207 L 272 207 L 272 230 L 248 230 Z M 248 207 " clip-rule="nonzero"/></clipPath><clipPath id="09b834eed0"><path d="M 245.152344 215.609375 L 260.589844 202.796875 L 275.503906 220.769531 L 260.066406 233.582031 Z M 245.152344 215.609375 " clip-rule="nonzero"/></clipPath><clipPath id="b4332d1dc7"><path d="M 252.871094 209.203125 L 264.320312 207.289062 L 271.773438 216.273438 L 267.78125 227.171875 L 256.332031 229.085938 L 248.878906 220.101562 Z M 252.871094 209.203125 " clip-rule="nonzero"/></clipPath><clipPath id="0ccb3dde4e"><path d="M 248 207 L 272 207 L 272 230 L 248 230 Z M 248 207 " clip-rule="nonzero"/></clipPath><clipPath id="eb77df0138"><path d="M 245.152344 215.609375 L 260.386719 202.964844 L 275.136719 220.742188 L 259.898438 233.382812 Z M 245.152344 215.609375 " clip-rule="nonzero"/></clipPath><clipPath id="88587893c1"><path d="M 245.152344 215.609375 L 260.585938 202.804688 L 275.488281 220.765625 L 260.054688 233.570312 Z M 245.152344 215.609375 " clip-rule="nonzero"/></clipPath><clipPath id="9b0ba4f9e0"><path d="M 252.871094 209.207031 L 264.3125 207.292969 L 271.765625 216.273438 L 267.773438 227.167969 L 256.328125 229.082031 L 248.878906 220.101562 Z M 252.871094 209.207031 " clip-rule="nonzero"/></clipPath><clipPath id="9beaeb67bc"><path d="M 221 197 L 247 197 L 247 221 L 221 221 Z M 221 197 " clip-rule="nonzero"/></clipPath><clipPath id="09c9a29ee2"><path d="M 217.742188 206.058594 L 234.304688 192.316406 L 250.300781 211.59375 L 233.738281 225.335938 Z M 217.742188 206.058594 " clip-rule="nonzero"/></clipPath><clipPath id="9e911ce789"><path d="M 226.023438 199.1875 L 238.300781 197.136719 L 246.296875 206.769531 L 242.011719 218.457031 L 229.734375 220.511719 L 221.738281 210.875 Z M 226.023438 199.1875 " clip-rule="nonzero"/></clipPath><clipPath id="8dcc0e9415"><path d="M 221 197 L 247 197 L 247 221 L 221 221 Z M 221 197 " clip-rule="nonzero"/></clipPath><clipPath id="0a5b5f962e"><path d="M 217.742188 206.058594 L 234.25 192.363281 L 250.050781 211.410156 L 233.546875 225.105469 Z M 217.742188 206.058594 " clip-rule="nonzero"/></clipPath><clipPath id="98ba7a3906"><path d="M 217.742188 206.058594 L 234.296875 192.320312 L 250.28125 211.585938 L 233.726562 225.320312 Z M 217.742188 206.058594 " clip-rule="nonzero"/></clipPath><clipPath id="5e03007d56"><path d="M 226.019531 199.191406 L 238.292969 197.136719 L 246.285156 206.769531 L 242.003906 218.453125 L 229.730469 220.507812 L 221.738281 210.875 Z M 226.019531 199.191406 " clip-rule="nonzero"/></clipPath><clipPath id="3012b2c38d"><path d="M 200 213 L 222 213 L 222 233 L 200 233 Z M 200 213 " clip-rule="nonzero"/></clipPath><clipPath id="017fbcbe06"><path d="M 197.347656 220.730469 L 211.394531 209.074219 L 224.964844 225.425781 L 210.917969 237.085938 Z M 197.347656 220.730469 " clip-rule="nonzero"/></clipPath><clipPath id="8336073b1d"><path d="M 204.371094 214.902344 L 214.785156 213.160156 L 221.570312 221.335938 L 217.9375 231.25 L 207.519531 232.992188 L 200.738281 224.816406 Z M 204.371094 214.902344 " clip-rule="nonzero"/></clipPath><clipPath id="fa7d238030"><path d="M 200 213 L 222 213 L 222 233 L 200 233 Z M 200 213 " clip-rule="nonzero"/></clipPath><clipPath id="cde01d9d1e"><path d="M 197.347656 220.730469 L 211.3125 209.140625 L 225.011719 225.648438 L 211.042969 237.238281 Z M 197.347656 220.730469 " clip-rule="nonzero"/></clipPath><clipPath id="64d3dc5ed4"><path d="M 197.351562 220.726562 L 211.390625 209.078125 L 224.945312 225.417969 L 210.90625 237.066406 Z M 197.351562 220.726562 " clip-rule="nonzero"/></clipPath><clipPath id="516fe07809"><path d="M 204.371094 214.902344 L 214.78125 213.164062 L 221.558594 221.332031 L 217.925781 231.242188 L 207.515625 232.980469 L 200.738281 224.8125 Z M 204.371094 214.902344 " clip-rule="nonzero"/></clipPath><clipPath id="2ca74faf2a"><path d="M 192 182 L 222 182 L 222 210 L 192 210 Z M 192 182 " clip-rule="nonzero"/></clipPath><clipPath id="a1bc4e576a"><path d="M 187.519531 192.816406 L 206.980469 176.671875 L 225.773438 199.320312 L 206.316406 215.46875 Z M 187.519531 192.816406 " clip-rule="nonzero"/></clipPath><clipPath id="e3793c4ffc"><path d="M 197.25 184.742188 L 211.675781 182.332031 L 221.070312 193.652344 L 216.039062 207.386719 L 201.609375 209.800781 L 192.214844 198.476562 Z M 197.25 184.742188 " clip-rule="nonzero"/></clipPath><clipPath id="e7ce0d6541"><path d="M 192 182 L 222 182 L 222 210 L 192 210 Z M 192 182 " clip-rule="nonzero"/></clipPath><clipPath id="02081d51e6"><path d="M 187.519531 192.816406 L 207.199219 176.488281 L 226.164062 199.339844 L 206.484375 215.671875 Z M 187.519531 192.816406 " clip-rule="nonzero"/></clipPath><clipPath id="be5dbb50d8"><path d="M 187.519531 192.816406 L 206.972656 176.675781 L 225.753906 199.3125 L 206.300781 215.453125 Z M 187.519531 192.816406 " clip-rule="nonzero"/></clipPath><clipPath id="86d5c600cb"><path d="M 197.246094 184.746094 L 211.667969 182.335938 L 221.058594 193.652344 L 216.027344 207.382812 L 201.605469 209.792969 L 192.214844 198.476562 Z M 197.246094 184.746094 " clip-rule="nonzero"/></clipPath><clipPath id="c24903d1c1"><path d="M 314 253 L 344 253 L 344 282 L 314 282 Z M 314 253 " clip-rule="nonzero"/></clipPath><clipPath id="df091744de"><path d="M 337.546875 284.746094 L 313.066406 278.421875 L 320.425781 249.925781 L 344.90625 256.246094 Z M 337.546875 284.746094 " clip-rule="nonzero"/></clipPath><clipPath id="4530c91d35"><path d="M 325.308594 281.582031 L 314.90625 271.300781 L 318.582031 257.054688 L 332.664062 253.09375 L 343.066406 263.378906 L 339.386719 277.621094 Z M 325.308594 281.582031 " clip-rule="nonzero"/></clipPath><clipPath id="0c20f87a0d"><path d="M 314 253 L 344 253 L 344 282 L 314 282 Z M 314 253 " clip-rule="nonzero"/></clipPath><clipPath id="b49f29c531"><path d="M 337.546875 284.746094 L 312.789062 278.351562 L 320.210938 249.597656 L 344.972656 255.988281 Z M 337.546875 284.746094 " clip-rule="nonzero"/></clipPath><clipPath id="d1681bb769"><path d="M 337.550781 284.742188 L 313.074219 278.425781 L 320.429688 249.945312 L 344.902344 256.265625 Z M 337.550781 284.742188 " clip-rule="nonzero"/></clipPath><clipPath id="0069735e40"><path d="M 325.3125 281.585938 L 314.914062 271.304688 L 318.589844 257.066406 L 332.664062 253.105469 L 343.0625 263.382812 L 339.386719 277.625 Z M 325.3125 281.585938 " clip-rule="nonzero"/></clipPath><clipPath id="592e6510a9"><path d="M 152 17 L 182 17 L 182 44 L 152 44 Z M 152 17 " clip-rule="nonzero"/></clipPath><clipPath id="140bce2e35"><path d="M 182.277344 18.117188 L 181.15625 43.378906 L 151.75 42.070312 L 152.875 16.8125 Z M 182.277344 18.117188 " clip-rule="nonzero"/></clipPath><clipPath id="01dfaa4bea"><path d="M 181.714844 30.75 L 173.804688 43.050781 L 159.109375 42.398438 L 152.324219 29.441406 L 160.234375 17.136719 L 174.929688 17.792969 Z M 181.714844 30.75 " clip-rule="nonzero"/></clipPath><clipPath id="7036837a2b"><path d="M 152 17 L 182 17 L 182 44 L 152 44 Z M 152 17 " clip-rule="nonzero"/></clipPath><clipPath id="8b67c1b5e2"><path d="M 182.277344 18.117188 L 181.140625 43.667969 L 151.472656 42.347656 L 152.609375 16.800781 Z M 182.277344 18.117188 " clip-rule="nonzero"/></clipPath><clipPath id="cbabcc1532"><path d="M 182.277344 18.117188 L 181.15625 43.371094 L 151.769531 42.0625 L 152.894531 16.8125 Z M 182.277344 18.117188 " clip-rule="nonzero"/></clipPath><clipPath id="4a0a7e2566"><path d="M 181.714844 30.746094 L 173.808594 43.042969 L 159.117188 42.390625 L 152.332031 29.4375 L 160.238281 17.140625 L 174.929688 17.792969 Z M 181.714844 30.746094 " clip-rule="nonzero"/></clipPath><clipPath id="18849b9253"><path d="M 451 163 L 493 163 L 493 199 L 451 199 Z M 451 163 " clip-rule="nonzero"/></clipPath><clipPath id="2d222a2733"><path d="M 493.058594 164.535156 L 491.515625 199.253906 L 451.101562 197.457031 L 452.644531 162.738281 Z M 493.058594 164.535156 " clip-rule="nonzero"/></clipPath><clipPath id="7c8828ee78"><path d="M 492.289062 181.894531 L 481.417969 198.804688 L 461.21875 197.90625 L 451.890625 180.097656 L 462.761719 163.191406 L 482.960938 164.085938 Z M 492.289062 181.894531 " clip-rule="nonzero"/></clipPath><clipPath id="d73da4b1b7"><path d="M 451 163 L 493 163 L 493 199 L 451 199 Z M 451 163 " clip-rule="nonzero"/></clipPath><clipPath id="f523028daa"><path d="M 493.058594 164.535156 L 491.519531 199.148438 L 451.136719 197.355469 L 452.675781 162.742188 Z M 493.058594 164.535156 " clip-rule="nonzero"/></clipPath><clipPath id="efb76b68ff"><path d="M 493.058594 164.539062 L 491.515625 199.25 L 451.121094 197.457031 L 452.664062 162.742188 Z M 493.058594 164.539062 " clip-rule="nonzero"/></clipPath><clipPath id="88c2d04268"><path d="M 492.289062 181.894531 L 481.417969 198.804688 L 461.21875 197.90625 L 451.894531 180.097656 L 462.761719 163.191406 L 482.960938 164.089844 Z M 492.289062 181.894531 " clip-rule="nonzero"/></clipPath><clipPath id="8f8fd80751"><path d="M 162 51 L 186 51 L 186 73 L 162 73 Z M 162 51 " clip-rule="nonzero"/></clipPath><clipPath id="53e6e71bf0"><path d="M 186.207031 52.421875 L 185.316406 72.464844 L 161.984375 71.429688 L 162.875 51.382812 Z M 186.207031 52.421875 " clip-rule="nonzero"/></clipPath><clipPath id="d079f48ce3"><path d="M 185.761719 62.445312 L 179.484375 72.207031 L 167.824219 71.6875 L 162.4375 61.40625 L 168.714844 51.644531 L 180.375 52.164062 Z M 185.761719 62.445312 " clip-rule="nonzero"/></clipPath><clipPath id="6d20064205"><path d="M 162 51 L 186 51 L 186 73 L 162 73 Z M 162 51 " clip-rule="nonzero"/></clipPath><clipPath id="a4752398e0"><path d="M 186.207031 52.421875 L 185.328125 72.199219 L 162.253906 71.175781 L 163.132812 51.394531 Z M 186.207031 52.421875 " clip-rule="nonzero"/></clipPath><clipPath id="17a31cd1ce"><path d="M 186.203125 52.421875 L 185.3125 72.457031 L 162 71.421875 L 162.890625 51.386719 Z M 186.203125 52.421875 " clip-rule="nonzero"/></clipPath><clipPath id="9567c3a6cb"><path d="M 185.757812 62.441406 L 179.484375 72.199219 L 167.828125 71.679688 L 162.445312 61.402344 L 168.71875 51.644531 L 180.375 52.164062 Z M 185.757812 62.441406 " clip-rule="nonzero"/></clipPath><clipPath id="3005614dd2"><path d="M 113 264 L 139 264 L 139 287 L 113 287 Z M 113 264 " clip-rule="nonzero"/></clipPath><clipPath id="987af2d4e8"><path d="M 138.960938 265.226562 L 138.003906 286.726562 L 112.980469 285.613281 L 113.9375 264.113281 Z M 138.960938 265.226562 " clip-rule="nonzero"/></clipPath><clipPath id="691079f10b"><path d="M 138.484375 275.976562 L 131.75 286.449219 L 119.242188 285.890625 L 113.46875 274.863281 L 120.199219 264.394531 L 132.707031 264.949219 Z M 138.484375 275.976562 " clip-rule="nonzero"/></clipPath><clipPath id="20aea4d700"><path d="M 113 264 L 139 264 L 139 287 L 113 287 Z M 113 264 " clip-rule="nonzero"/></clipPath><clipPath id="a1a13506b1"><path d="M 138.960938 265.226562 L 138.007812 286.65625 L 113.285156 285.554688 L 114.238281 264.128906 Z M 138.960938 265.226562 " clip-rule="nonzero"/></clipPath><clipPath id="9c348ef358"><path d="M 138.960938 265.226562 L 138.003906 286.71875 L 113 285.605469 L 113.953125 264.117188 Z M 138.960938 265.226562 " clip-rule="nonzero"/></clipPath><clipPath id="2c8c6f76ee"><path d="M 138.484375 275.972656 L 131.753906 286.441406 L 119.25 285.882812 L 113.476562 274.863281 L 120.207031 264.394531 L 132.710938 264.949219 Z M 138.484375 275.972656 " clip-rule="nonzero"/></clipPath><clipPath id="97bec8f4fc"><path d="M 157 76 L 216 76 L 216 129 L 157 129 Z M 157 76 " clip-rule="nonzero"/></clipPath><clipPath id="de20958225"><path d="M 216.921875 78.515625 L 214.6875 128.746094 L 156.21875 126.148438 L 158.449219 75.917969 Z M 216.921875 78.515625 " clip-rule="nonzero"/></clipPath><clipPath id="1326657eea"><path d="M 215.804688 103.632812 L 200.074219 128.097656 L 170.851562 126.796875 L 157.355469 101.035156 L 173.082031 76.566406 L 202.308594 77.867188 Z M 215.804688 103.632812 " clip-rule="nonzero"/></clipPath><clipPath id="a379f913c6"><path d="M 157 76 L 216 76 L 216 129 L 157 129 Z M 157 76 " clip-rule="nonzero"/></clipPath><clipPath id="da14d3cef9"><path d="M 216.921875 78.515625 L 214.6875 128.789062 L 156.175781 126.1875 L 158.410156 75.914062 Z M 216.921875 78.515625 " clip-rule="nonzero"/></clipPath><clipPath id="2b4b0b7fda"><path d="M 216.914062 78.515625 L 214.683594 128.734375 L 156.246094 126.136719 L 158.476562 75.917969 Z M 216.914062 78.515625 " clip-rule="nonzero"/></clipPath><clipPath id="18d731529d"><path d="M 215.800781 103.625 L 200.074219 128.085938 L 170.855469 126.789062 L 157.363281 101.027344 L 173.085938 76.566406 L 202.304688 77.867188 Z M 215.800781 103.625 " clip-rule="nonzero"/></clipPath><clipPath id="70a252f298"><path d="M 173 133 L 195 133 L 195 152 L 173 152 Z M 173 133 " clip-rule="nonzero"/></clipPath><clipPath id="0d5a161383"><path d="M 194.714844 133.738281 L 193.902344 151.976562 L 172.671875 151.03125 L 173.484375 132.796875 Z M 194.714844 133.738281 " clip-rule="nonzero"/></clipPath><clipPath id="310ac6a7e6"><path d="M 194.308594 142.855469 L 188.597656 151.738281 L 177.988281 151.269531 L 173.085938 141.914062 L 178.796875 133.03125 L 189.40625 133.503906 Z M 194.308594 142.855469 " clip-rule="nonzero"/></clipPath><clipPath id="1d4dba8ed2"><path d="M 173 133 L 195 133 L 195 152 L 173 152 Z M 173 133 " clip-rule="nonzero"/></clipPath><clipPath id="27cfa42cb9"><path d="M 194.714844 133.738281 L 193.90625 151.871094 L 172.480469 150.917969 L 173.285156 132.785156 Z M 194.714844 133.738281 " clip-rule="nonzero"/></clipPath><clipPath id="6ec8c89e3b"><path d="M 194.710938 133.742188 L 193.902344 151.96875 L 172.695312 151.027344 L 173.503906 132.800781 Z M 194.710938 133.742188 " clip-rule="nonzero"/></clipPath><clipPath id="0a8904e254"><path d="M 194.308594 142.855469 L 188.601562 151.734375 L 177.996094 151.261719 L 173.097656 141.914062 L 178.804688 133.035156 L 189.410156 133.507812 Z M 194.308594 142.855469 " clip-rule="nonzero"/></clipPath><clipPath id="382f567242"><path d="M 157 154 L 188 154 L 188 181 L 157 181 Z M 157 154 " clip-rule="nonzero"/></clipPath><clipPath id="510820b516"><path d="M 187.9375 155.582031 L 186.816406 180.84375 L 157.410156 179.535156 L 158.535156 154.273438 Z M 187.9375 155.582031 " clip-rule="nonzero"/></clipPath><clipPath id="1d59610cd3"><path d="M 187.378906 168.210938 L 179.46875 180.515625 L 164.769531 179.863281 L 157.984375 166.90625 L 165.894531 154.601562 L 180.589844 155.253906 Z M 187.378906 168.210938 " clip-rule="nonzero"/></clipPath><clipPath id="7e879799eb"><path d="M 157 154 L 188 154 L 188 181 L 157 181 Z M 157 154 " clip-rule="nonzero"/></clipPath><clipPath id="7784088db9"><path d="M 187.9375 155.582031 L 186.804688 181.128906 L 157.132812 179.8125 L 158.269531 154.261719 Z M 187.9375 155.582031 " clip-rule="nonzero"/></clipPath><clipPath id="dba625e429"><path d="M 187.9375 155.582031 L 186.816406 180.832031 L 157.433594 179.527344 L 158.554688 154.277344 Z M 187.9375 155.582031 " clip-rule="nonzero"/></clipPath><clipPath id="5240c79e54"><path d="M 187.375 168.207031 L 179.46875 180.507812 L 164.777344 179.855469 L 157.992188 166.902344 L 165.898438 154.601562 L 180.59375 155.253906 Z M 187.375 168.207031 " clip-rule="nonzero"/></clipPath><clipPath id="f2c7b2ce98"><path d="M 179 33 L 203 33 L 203 55 L 179 55 Z M 179 33 " clip-rule="nonzero"/></clipPath><clipPath id="3a0dff9f32"><path d="M 205.253906 50.484375 L 187.023438 58.863281 L 177.269531 37.640625 L 195.5 29.261719 Z M 205.253906 50.484375 " clip-rule="nonzero"/></clipPath><clipPath id="174510de37"><path d="M 196.136719 54.675781 L 184.585938 53.558594 L 179.710938 42.953125 L 186.386719 33.460938 L 197.941406 34.574219 L 202.816406 45.179688 Z M 196.136719 54.675781 " clip-rule="nonzero"/></clipPath><clipPath id="90565bb966"><path d="M 179 33 L 203 33 L 203 55 L 179 55 Z M 179 33 " clip-rule="nonzero"/></clipPath><clipPath id="1e2bcb9d8a"><path d="M 205.253906 50.484375 L 187.261719 58.753906 L 177.617188 37.765625 L 195.609375 29.496094 Z M 205.253906 50.484375 " clip-rule="nonzero"/></clipPath><clipPath id="40614d6387"><path d="M 205.25 50.484375 L 187.027344 58.859375 L 177.28125 37.652344 L 195.507812 29.277344 Z M 205.25 50.484375 " clip-rule="nonzero"/></clipPath><clipPath id="1152364524"><path d="M 196.140625 54.671875 L 184.589844 53.554688 L 179.71875 42.953125 L 186.394531 33.464844 L 197.941406 34.578125 L 202.816406 45.179688 Z M 196.140625 54.671875 " clip-rule="nonzero"/></clipPath><clipPath id="e95437b198"><path d="M 210 4 L 236 4 L 236 28 L 210 28 Z M 210 4 " clip-rule="nonzero"/></clipPath><clipPath id="b1e82f0138"><path d="M 237.871094 22.746094 L 218.316406 31.730469 L 207.855469 8.96875 L 227.410156 -0.015625 Z M 237.871094 22.746094 " clip-rule="nonzero"/></clipPath><clipPath id="1a25ace1d5"><path d="M 228.09375 27.238281 L 215.703125 26.042969 L 210.472656 14.667969 L 217.636719 4.484375 L 230.027344 5.679688 L 235.257812 17.058594 Z M 228.09375 27.238281 " clip-rule="nonzero"/></clipPath><clipPath id="1a65dfe397"><path d="M 210 4 L 236 4 L 236 28 L 210 28 Z M 210 4 " clip-rule="nonzero"/></clipPath><clipPath id="ded2e0ebff"><path d="M 237.871094 22.746094 L 218.382812 31.703125 L 208.046875 9.214844 L 227.535156 0.257812 Z M 237.871094 22.746094 " clip-rule="nonzero"/></clipPath><clipPath id="0240e27d73"><path d="M 237.871094 22.746094 L 218.324219 31.730469 L 207.871094 8.984375 L 227.417969 0 Z M 237.871094 22.746094 " clip-rule="nonzero"/></clipPath><clipPath id="9055914dd5"><path d="M 228.097656 27.238281 L 215.710938 26.042969 L 210.484375 14.671875 L 217.644531 4.492188 L 230.03125 5.6875 L 235.257812 17.058594 Z M 228.097656 27.238281 " clip-rule="nonzero"/></clipPath><clipPath id="23d2320cd5"><path d="M 204 33 L 226 33 L 226 53 L 204 53 Z M 204 33 " clip-rule="nonzero"/></clipPath><clipPath id="ea9070b037"><path d="M 228.109375 48.578125 L 211.523438 56.199219 L 202.648438 36.890625 L 219.234375 29.269531 Z M 228.109375 48.578125 " clip-rule="nonzero"/></clipPath><clipPath id="7efcc04ac4"><path d="M 219.816406 52.390625 L 209.304688 51.375 L 204.867188 41.722656 L 210.945312 33.085938 L 221.457031 34.101562 L 225.890625 43.753906 Z M 219.816406 52.390625 " clip-rule="nonzero"/></clipPath><clipPath id="035042106c"><path d="M 204 33 L 226 33 L 226 53 L 204 53 Z M 204 33 " clip-rule="nonzero"/></clipPath><clipPath id="3139ea39c1"><path d="M 228.109375 48.578125 L 211.617188 56.15625 L 202.660156 36.667969 L 219.152344 29.089844 Z M 228.109375 48.578125 " clip-rule="nonzero"/></clipPath><clipPath id="e5b1af8eb6"><path d="M 228.105469 48.578125 L 211.527344 56.199219 L 202.664062 36.90625 L 219.242188 29.289062 Z M 228.105469 48.578125 " clip-rule="nonzero"/></clipPath><clipPath id="55c9b02426"><path d="M 219.816406 52.386719 L 209.3125 51.375 L 204.878906 41.730469 L 210.953125 33.097656 L 221.457031 34.113281 L 225.890625 43.757812 Z M 219.816406 52.386719 " clip-rule="nonzero"/></clipPath><clipPath id="9e6d235edb"><rect x="0" width="540" y="0" height="307"/></clipPath></defs><g clip-path="url(#e5ae44ec7d)"><g mask="url(#9ff3b7e43a)"><g transform="matrix(1, 0, 0, 1, 0.000000000000000111, 0)"><g clip-path="url(#9e6d235edb)"><g clip-path="url(#523e40aff2)"><g clip-path="url(#aed9c7db94)"><g clip-path="url(#ba810a44e2)"><path fill="#242424" d="M 393.972656 253.921875 L 362.277344 239.675781 L 378.859375 202.777344 L 410.554688 217.023438 Z M 393.972656 253.921875 " fill-opacity="1" fill-rule="nonzero"/></g></g></g><g clip-path="url(#fb47660c43)"><g clip-path="url(#609b15e055)"><g clip-path="url(#b920cfa13e)"><g clip-path="url(#13baae0e9d)"><path stroke-linecap="butt" transform="matrix(-0.752432, -0.338177, 0.338177, -0.752432, 393.971771, 253.919755)" fill="none" stroke-linejoin="miter" d="M 21.06104 0.000697445 L 42.122772 12.255834 L 42.120092 36.760904 L 21.06194 49.013215 L 0.00214933 36.762397 L -0.00143078 12.254949 Z M 21.06104 0.000697445 " stroke="#141414" stroke-width="1.815373" stroke-opacity="1" stroke-miterlimit="4"/></g></g></g></g><g clip-path="url(#012e268e81)"><g clip-path="url(#1c6bf0edd3)"><g clip-path="url(#6cf400242a)"><path fill="#242424" d="M 361.640625 266.914062 L 338.578125 256.550781 L 350.644531 229.703125 L 373.707031 240.066406 Z M 361.640625 266.914062 " fill-opacity="1" fill-rule="nonzero"/></g></g></g><g clip-path="url(#b3456f28bb)"><g clip-path="url(#b175bef1d3)"><g clip-path="url(#f40e9a9ba8)"><g clip-path="url(#ea8b1387f7)"><path stroke-linecap="butt" transform="matrix(-0.752432, -0.338177, 0.338177, -0.752432, 361.642212, 266.913996)" fill="none" stroke-linejoin="miter" d="M 15.321225 -0.00220845 L 30.64136 8.915154 L 30.64306 26.741992 L 15.320305 35.653409 L 0.00211109 26.740365 L 0.000411688 8.913527 Z M 15.321225 -0.00220845 " stroke="#141414" stroke-width="1.815373" stroke-opacity="1" stroke-miterlimit="4"/></g></g></g></g><g clip-path="url(#b5b75c33f6)"><g clip-path="url(#1fb085c790)"><g clip-path="url(#a351f8056d)"><path fill="#242424" d="M 68.875 117.378906 L 36.09375 105.835938 L 49.527344 67.679688 L 82.308594 79.222656 Z M 68.875 117.378906 " fill-opacity="1" fill-rule="nonzero"/></g></g></g><g clip-path="url(#5f5e901309)"><g clip-path="url(#b99eb47d32)"><g clip-path="url(#699e03be65)"><g clip-path="url(#ef6535359e)"><path stroke-linecap="butt" transform="matrix(-0.778115, -0.273962, 0.273962, -0.778115, 68.872313, 117.378474)" fill="none" stroke-linejoin="miter" d="M 21.060742 -0.000952328 L 42.122217 12.252568 L 42.121656 36.761115 L 21.059621 49.016143 L -0.00185365 36.762623 L -0.00129289 12.254075 Z M 21.060742 -0.000952328 " stroke="#141414" stroke-width="1.815373" stroke-opacity="1" stroke-miterlimit="4"/></g></g></g></g><g clip-path="url(#68cc66032d)"><g clip-path="url(#8e72f2e488)"><g clip-path="url(#192a5c414a)"><path fill="#242424" d="M 335.160156 253.019531 L 316.859375 244.792969 L 326.4375 223.492188 L 344.738281 231.714844 Z M 335.160156 253.019531 " fill-opacity="1" fill-rule="nonzero"/></g></g></g><g clip-path="url(#2a0b5d4e14)"><g clip-path="url(#0280186848)"><g clip-path="url(#93570ddea4)"><g clip-path="url(#054e4a0fed)"><path stroke-linecap="butt" transform="matrix(-0.752432, -0.338177, 0.338177, -0.752432, 335.163042, 253.017648)" fill="none" stroke-linejoin="miter" d="M 12.157199 0.000153853 L 24.312765 7.074364 L 24.309689 21.217386 L 12.157306 28.288575 L -0.000637454 21.220625 L 0.000498027 7.073284 Z M 12.157199 0.000153853 " stroke="#141414" stroke-width="1.815373" stroke-opacity="1" stroke-miterlimit="4"/></g></g></g></g><g clip-path="url(#1c0ce286a4)"><g clip-path="url(#352f90de6c)"><g clip-path="url(#6cebf06a59)"><path fill="#242424" d="M 329.9375 230.90625 L 310.3125 222.085938 L 320.578125 199.234375 L 340.207031 208.058594 Z M 329.9375 230.90625 " fill-opacity="1" fill-rule="nonzero"/></g></g></g><g clip-path="url(#c353f4e95b)"><g clip-path="url(#f5400c22ee)"><g clip-path="url(#8b7801b375)"><g clip-path="url(#46f7f074b2)"><path stroke-linecap="butt" transform="matrix(-0.752432, -0.338177, 0.338177, -0.752432, 329.938414, 230.906029)" fill="none" stroke-linejoin="miter" d="M 13.037613 0.00121873 L 26.077084 7.586674 L 26.078284 22.75569 L 13.037635 30.345511 L 0.00248256 22.758115 L -0.000658607 7.58478 Z M 13.037613 0.00121873 " stroke="#141414" stroke-width="1.815373" stroke-opacity="1" stroke-miterlimit="4"/></g></g></g></g><g clip-path="url(#6b1795abf0)"><g clip-path="url(#fe29c1e50a)"><g clip-path="url(#f7422b27a6)"><path fill="#242424" d="M 96.925781 174.078125 L 49.5 157.378906 L 68.9375 102.171875 L 116.363281 118.871094 Z M 96.925781 174.078125 " fill-opacity="1" fill-rule="nonzero"/></g></g></g><g clip-path="url(#31b4a2dfaa)"><g clip-path="url(#9877b9cb00)"><g clip-path="url(#ec92f13c10)"><g clip-path="url(#4f7ffcf61b)"><path stroke-linecap="butt" transform="matrix(-0.778115, -0.273962, 0.273962, -0.778115, 96.926308, 174.072566)" fill="none" stroke-linejoin="miter" d="M 30.467519 -0.0012009 L 60.936034 17.725507 L 60.939472 53.181586 L 30.468356 70.908063 L -0.0001586 53.181355 L 0.00244255 17.72817 Z M 30.467519 -0.0012009 " stroke="#141414" stroke-width="1.815373" stroke-opacity="1" stroke-miterlimit="4"/></g></g></g></g><g clip-path="url(#301867bc2d)"><g clip-path="url(#90a7afae1a)"><g clip-path="url(#94aa88440d)"><path fill="#242424" d="M 48.753906 138.980469 L 31.535156 132.917969 L 38.59375 112.875 L 55.8125 118.9375 Z M 48.753906 138.980469 " fill-opacity="1" fill-rule="nonzero"/></g></g></g><g clip-path="url(#03803edd8e)"><g clip-path="url(#973b85a91b)"><g clip-path="url(#4e44639357)"><g clip-path="url(#3c87adc5fe)"><path stroke-linecap="butt" transform="matrix(-0.778115, -0.273962, 0.273962, -0.778115, 48.750927, 138.980337)" fill="none" stroke-linejoin="miter" d="M 11.056485 0.00265162 L 22.116517 6.43503 L 22.113799 19.30262 L 11.059981 25.734686 L -0.0000515213 19.302308 L 0.00266682 6.434718 Z M 11.056485 0.00265162 " stroke="#141414" stroke-width="1.815373" stroke-opacity="1" stroke-miterlimit="4"/></g></g></g></g><g clip-path="url(#2dd6fe9cec)"><g clip-path="url(#c8229ba3c7)"><g clip-path="url(#dd1cb35a41)"><path fill="#242424" d="M 31.566406 123.992188 L 7.71875 115.597656 L 17.492188 87.832031 L 41.34375 96.230469 Z M 31.566406 123.992188 " fill-opacity="1" fill-rule="nonzero"/></g></g></g><g clip-path="url(#14090d4799)"><g clip-path="url(#216957e5da)"><g clip-path="url(#5635e7b4f3)"><g clip-path="url(#55dbd471dc)"><path stroke-linecap="butt" transform="matrix(-0.778115, -0.273962, 0.273962, -0.778115, 31.567358, 123.992959)" fill="none" stroke-linejoin="miter" d="M 15.322001 -0.00200383 L 30.639483 8.91237 L 30.640601 26.738513 L 15.321344 35.656321 L -0.000603583 26.743519 L 0.00117183 8.911338 Z M 15.322001 -0.00200383 " stroke="#141414" stroke-width="1.815373" stroke-opacity="1" stroke-miterlimit="4"/></g></g></g></g><g clip-path="url(#24c98696ed)"><g clip-path="url(#3eb41069c2)"><g clip-path="url(#124e1954b0)"><path fill="#242424" d="M 123.976562 238.488281 L 97.011719 260.410156 L 71.496094 229.015625 L 98.460938 207.097656 Z M 123.976562 238.488281 " fill-opacity="1" fill-rule="nonzero"/></g></g></g><g clip-path="url(#5635f4e90b)"><g clip-path="url(#5bb1f51567)"><g clip-path="url(#4be569eb7a)"><g clip-path="url(#d49e8b30dc)"><path stroke-linecap="butt" transform="matrix(-0.640141, 0.520324, -0.520324, -0.640141, 123.977369, 238.489733)" fill="none" stroke-linejoin="miter" d="M 21.061024 -0.00144323 L 42.122508 12.254481 L 42.121349 36.759857 L 21.059394 49.01597 L 0.00158473 36.763033 L -0.000931081 12.25467 Z M 21.061024 -0.00144323 " stroke="#141414" stroke-width="1.815373" stroke-opacity="1" stroke-miterlimit="4"/></g></g></g></g><g clip-path="url(#25efaed05d)"><g clip-path="url(#a47a807d55)"><g clip-path="url(#cc798b29ba)"><path fill="#242424" d="M 121.066406 273.207031 L 101.441406 289.15625 L 82.878906 266.316406 L 102.5 250.367188 Z M 121.066406 273.207031 " fill-opacity="1" fill-rule="nonzero"/></g></g></g><g clip-path="url(#aa8004fa5e)"><g clip-path="url(#bc2894716e)"><g clip-path="url(#1d18a9a3fa)"><g clip-path="url(#664b76817f)"><path stroke-linecap="butt" transform="matrix(-0.640141, 0.520324, -0.520324, -0.640141, 121.064013, 273.205874)" fill="none" stroke-linejoin="miter" d="M 15.318169 0.000793402 L 30.638703 8.914486 L 30.641387 26.741111 L 15.320552 35.657717 L 0.00300453 26.740349 L 0.000319845 8.913725 Z M 15.318169 0.000793402 " stroke="#141414" stroke-width="1.815373" stroke-opacity="1" stroke-miterlimit="4"/></g></g></g></g><g clip-path="url(#6f646e9d8e)"><g clip-path="url(#9aa0e0e1c3)"><g clip-path="url(#7e672d83f5)"><path fill="#242424" d="M 93.445312 260.832031 L 66.476562 282.753906 L 40.960938 251.359375 L 67.929688 229.441406 Z M 93.445312 260.832031 " fill-opacity="1" fill-rule="nonzero"/></g></g></g><g clip-path="url(#eafe8cb123)"><g clip-path="url(#d906fcd1db)"><g clip-path="url(#036afb61b0)"><g clip-path="url(#5d3fd0f989)"><path stroke-linecap="butt" transform="matrix(-0.640141, 0.520324, -0.520324, -0.640141, 93.443651, 260.833326)" fill="none" stroke-linejoin="miter" d="M 21.062497 -0.000490922 L 42.123981 12.255433 L 42.122822 36.760809 L 21.060867 49.016923 L -0.000617057 36.760999 L 0.000541618 12.255623 Z M 21.062497 -0.000490922 " stroke="#141414" stroke-width="1.815373" stroke-opacity="1" stroke-miterlimit="4"/></g></g></g></g><g clip-path="url(#f9b01f9c52)"><g clip-path="url(#23b52a6fb9)"><g clip-path="url(#f19575731d)"><path fill="#242424" d="M 96.753906 290.625 L 81.183594 303.28125 L 66.453125 285.15625 L 82.023438 272.5 Z M 96.753906 290.625 " fill-opacity="1" fill-rule="nonzero"/></g></g></g><g clip-path="url(#3b9f41ecdf)"><g clip-path="url(#998ceeaef2)"><g clip-path="url(#a056842c45)"><g clip-path="url(#809555207c)"><path stroke-linecap="butt" transform="matrix(-0.640141, 0.520324, -0.520324, -0.640141, 96.752042, 290.621969)" fill="none" stroke-linejoin="miter" d="M 12.156321 0.00294474 L 24.31413 7.072046 L 24.313637 21.216477 L 12.155335 28.291807 L 0.000512314 21.219031 L 0.00100542 7.0746 Z M 12.156321 0.00294474 " stroke="#141414" stroke-width="1.815373" stroke-opacity="1" stroke-miterlimit="4"/></g></g></g></g><g clip-path="url(#c959369a34)"><g clip-path="url(#ace51dfe91)"><g clip-path="url(#f295ae6525)"><path fill="#242424" d="M 126.019531 83.996094 L 109.320312 97.570312 L 93.523438 78.132812 L 110.21875 64.558594 Z M 126.019531 83.996094 " fill-opacity="1" fill-rule="nonzero"/></g></g></g><g clip-path="url(#8c0856d7c8)"><g clip-path="url(#e619bebdf7)"><g clip-path="url(#070d1d2b0e)"><g clip-path="url(#cb9287be5a)"><path stroke-linecap="butt" transform="matrix(-0.640141, 0.520324, -0.520324, -0.640141, 126.020272, 83.99807)" fill="none" stroke-linejoin="miter" d="M 13.035814 -0.000515438 L 26.078524 7.586486 L 26.079666 22.757411 L 13.038098 30.341334 L -0.000938145 22.75732 L -0.0020801 7.586395 Z M 13.035814 -0.000515438 " stroke="#141414" stroke-width="1.815373" stroke-opacity="1" stroke-miterlimit="4"/></g></g></g></g><g clip-path="url(#49d787eeaf)"><g clip-path="url(#604a36c703)"><g clip-path="url(#1d760fd80e)"><path fill="#242424" d="M 321.835938 260.457031 L 282.925781 292.300781 L 245.855469 247.007812 L 284.765625 215.164062 Z M 321.835938 260.457031 " fill-opacity="1" fill-rule="nonzero"/></g></g></g><g clip-path="url(#66dddbbad3)"><g clip-path="url(#41fb1d7043)"><g clip-path="url(#6573405647)"><g clip-path="url(#0451e30e27)"><path stroke-linecap="butt" transform="matrix(-0.638378, 0.522486, -0.522486, -0.638378, 321.831906, 260.452705)" fill="none" stroke-linejoin="miter" d="M 30.466512 -0.000107057 L 60.939211 17.7262 L 60.935669 53.183045 L 30.469092 70.909253 L -0.000608224 53.179281 L -0.0000660562 17.726101 Z M 30.466512 -0.000107057 " stroke="#141414" stroke-width="1.815373" stroke-opacity="1" stroke-miterlimit="4"/></g></g></g></g><g clip-path="url(#ef6af3df0a)"><g clip-path="url(#702ce4949b)"><g clip-path="url(#0d95a80b55)"><path fill="#242424" d="M 27.996094 56.175781 L 13.828125 67.6875 L 0.425781 51.199219 L 14.59375 39.683594 Z M 27.996094 56.175781 " fill-opacity="1" fill-rule="nonzero"/></g></g></g><g clip-path="url(#5b53f0086d)"><g clip-path="url(#cd1f999ab5)"><g clip-path="url(#5bb62fc6d0)"><g clip-path="url(#e2851dca3f)"><path stroke-linecap="butt" transform="matrix(-0.640141, 0.520324, -0.520324, -0.640141, 27.992271, 56.176341)" fill="none" stroke-linejoin="miter" d="M 11.057252 0.0000158145 L 22.115881 6.431965 L 22.11495 19.300687 L 11.058376 25.733786 L -0.000252904 19.301837 L 0.000678111 6.433115 Z M 11.057252 0.0000158145 " stroke="#141414" stroke-width="1.815373" stroke-opacity="1" stroke-miterlimit="4"/></g></g></g></g><g clip-path="url(#f813c43f77)"><g clip-path="url(#aa7e0046cf)"><g clip-path="url(#3f0a739a3f)"><path fill="#242424" d="M 38.605469 80.976562 L 18.984375 96.925781 L 0.421875 74.085938 L 20.042969 58.136719 Z M 38.605469 80.976562 " fill-opacity="1" fill-rule="nonzero"/></g></g></g><g clip-path="url(#a207ddbc3f)"><g clip-path="url(#be3d691b7e)"><g clip-path="url(#1d20e09ba6)"><g clip-path="url(#97861de050)"><path stroke-linecap="butt" transform="matrix(-0.640141, 0.520324, -0.520324, -0.640141, 38.606787, 80.97608)" fill="none" stroke-linejoin="miter" d="M 15.320456 -0.00239608 L 30.64099 8.911297 L 30.640688 26.741596 L 15.322839 35.654527 L 0.002305 26.740834 L -0.000379685 8.91421 Z M 15.320456 -0.00239608 " stroke="#141414" stroke-width="1.815373" stroke-opacity="1" stroke-miterlimit="4"/></g></g></g></g><g clip-path="url(#9e8394a7e4)"><g clip-path="url(#402a712ee8)"><g clip-path="url(#19258d58a3)"><path fill="#242424" d="M 397.136719 246.480469 L 421.546875 221.742188 L 450.339844 250.15625 L 425.933594 274.890625 Z M 397.136719 246.480469 " fill-opacity="1" fill-rule="nonzero"/></g></g></g><g clip-path="url(#951b13ef6e)"><g clip-path="url(#3c243817c2)"><g clip-path="url(#89494bd0c6)"><g clip-path="url(#208aaef570)"><path stroke-linecap="butt" transform="matrix(0.579383, -0.587225, 0.587225, 0.579383, 397.139296, 246.480104)" fill="none" stroke-linejoin="miter" d="M 21.062135 0.00239933 L 42.124807 12.255081 L 42.124143 36.761887 L 21.060807 49.016011 L 0.00150614 36.760003 L 0.00217025 12.253197 Z M 21.062135 0.00239933 " stroke="#141414" stroke-width="1.815373" stroke-opacity="1" stroke-miterlimit="4"/></g></g></g></g><g clip-path="url(#72266a5f7f)"><g clip-path="url(#a11de764ce)"><g clip-path="url(#476b964c26)"><path fill="#242424" d="M 399.335938 210.628906 L 417.09375 192.628906 L 438.046875 213.300781 L 420.289062 231.300781 Z M 399.335938 210.628906 " fill-opacity="1" fill-rule="nonzero"/></g></g></g><g clip-path="url(#b0d86f7999)"><g clip-path="url(#528966784d)"><g clip-path="url(#8dd880e8af)"><g clip-path="url(#6dab6130f1)"><path stroke-linecap="butt" transform="matrix(0.579383, -0.587225, 0.587225, 0.579383, 399.337031, 210.628622)" fill="none" stroke-linejoin="miter" d="M 15.321005 0.00184186 L 30.640215 8.914411 L 30.640926 26.741204 L 15.322426 35.655428 L -0.00011023 26.739488 L -0.000820952 8.912695 Z M 15.321005 0.00184186 " stroke="#141414" stroke-width="1.815373" stroke-opacity="1" stroke-miterlimit="4"/></g></g></g></g><g clip-path="url(#6e1e226d7f)"><g clip-path="url(#18efb26451)"><g clip-path="url(#e9e543f58d)"><path fill="#242424" d="M 428.152344 219.910156 L 452.558594 195.175781 L 481.355469 223.585938 L 456.949219 248.324219 Z M 428.152344 219.910156 " fill-opacity="1" fill-rule="nonzero"/></g></g></g><g clip-path="url(#acecef7157)"><g clip-path="url(#f8ec4594b0)"><g clip-path="url(#ac99689bf4)"><g clip-path="url(#3ecd73647f)"><path stroke-linecap="butt" transform="matrix(0.579383, -0.587225, 0.587225, 0.579383, 428.153188, 219.910817)" fill="none" stroke-linejoin="miter" d="M 21.061169 -0.000348882 L 42.123841 12.252333 L 42.123177 36.759139 L 21.063167 49.016633 L 0.000494853 36.763951 L -0.00216676 12.253775 Z M 21.061169 -0.000348882 " stroke="#141414" stroke-width="1.815373" stroke-opacity="1" stroke-miterlimit="4"/></g></g></g></g><g clip-path="url(#0dd0f58cd7)"><g clip-path="url(#72a9b912fe)"><g clip-path="url(#df43151191)"><path fill="#242424" d="M 134.28125 148.300781 L 152.238281 139.351562 L 162.652344 160.257812 L 144.695312 169.203125 Z M 134.28125 148.300781 " fill-opacity="1" fill-rule="nonzero"/></g></g></g><g clip-path="url(#67ccdb1602)"><g clip-path="url(#fab61c366f)"><g clip-path="url(#e0bbdf7fc2)"><g clip-path="url(#f2a69b653f)"><path stroke-linecap="butt" transform="matrix(0.738371, -0.367868, 0.367868, 0.738371, 134.280747, 148.301113)" fill="none" stroke-linejoin="miter" d="M 12.158196 -0.000509389 L 24.315178 7.072046 L 24.314204 21.217998 L 12.156247 28.291395 L -0.000736107 21.21884 L 0.000238413 7.072888 Z M 12.158196 -0.000509389 " stroke="#141414" stroke-width="1.815373" stroke-opacity="1" stroke-miterlimit="4"/></g></g></g></g><g clip-path="url(#d747c6eb6d)"><g clip-path="url(#6fa479c9b2)"><g clip-path="url(#464e637859)"><path fill="#242424" d="M 418.6875 188.617188 L 433.800781 173.296875 L 451.632812 190.890625 L 436.519531 206.210938 Z M 418.6875 188.617188 " fill-opacity="1" fill-rule="nonzero"/></g></g></g><g clip-path="url(#4c187aeb52)"><g clip-path="url(#9df5b9428c)"><g clip-path="url(#568aa3e969)"><g clip-path="url(#9ee7d814e3)"><path stroke-linecap="butt" transform="matrix(0.579383, -0.587225, 0.587225, 0.579383, 418.689058, 188.615763)" fill="none" stroke-linejoin="miter" d="M 13.036041 0.000455618 L 26.077208 7.588494 L 26.0757 22.756655 L 13.039675 30.343519 L 0.00183342 22.758852 L 0.0000160416 7.58732 Z M 13.036041 0.000455618 " stroke="#141414" stroke-width="1.815373" stroke-opacity="1" stroke-miterlimit="4"/></g></g></g></g><g clip-path="url(#ecd26dcc55)"><g clip-path="url(#e8a28913f9)"><g clip-path="url(#ba904ef7e4)"><path fill="#242424" d="M 462.597656 228.644531 L 497.914062 192.851562 L 539.574219 233.957031 L 504.261719 269.75 Z M 462.597656 228.644531 " fill-opacity="1" fill-rule="nonzero"/></g></g></g><g clip-path="url(#554f67de5a)"><g clip-path="url(#a4c31e5fd3)"><g clip-path="url(#b9a03c367d)"><g clip-path="url(#1eb6320be4)"><path stroke-linecap="butt" transform="matrix(0.579383, -0.587225, 0.587225, 0.579383, 462.602691, 228.646769)" fill="none" stroke-linejoin="miter" d="M 30.467898 -0.00233275 L 60.939538 17.72793 L 60.935613 53.180577 L 30.4667 70.909703 L -0.00161367 53.18281 L -0.00101478 17.726793 Z M 30.467898 -0.00233275 " stroke="#141414" stroke-width="1.815373" stroke-opacity="1" stroke-miterlimit="4"/></g></g></g></g><g clip-path="url(#440f3d1d59)"><g clip-path="url(#1066c82a74)"><g clip-path="url(#8a0da28670)"><path fill="#242424" d="M 418.691406 160.996094 L 431.511719 148.003906 L 446.636719 162.925781 L 433.816406 175.921875 Z M 418.691406 160.996094 " fill-opacity="1" fill-rule="nonzero"/></g></g></g><g clip-path="url(#7eddd153df)"><g clip-path="url(#dd777f0719)"><g clip-path="url(#a83ee26c13)"><g clip-path="url(#eb15bb7e47)"><path stroke-linecap="butt" transform="matrix(0.579383, -0.587225, 0.587225, 0.579383, 418.693155, 160.994818)" fill="none" stroke-linejoin="miter" d="M 11.060461 0.000277884 L 22.117107 6.433179 L 22.11432 19.300993 L 11.058257 25.732582 L 0.00161105 19.299682 L 0.00102773 6.435192 Z M 11.060461 0.000277884 " stroke="#141414" stroke-width="1.815373" stroke-opacity="1" stroke-miterlimit="4"/></g></g></g></g><g clip-path="url(#80c0d2d9c1)"><g clip-path="url(#84db46b8bc)"><g clip-path="url(#41d5d7541a)"><path fill="#242424" d="M 43.769531 219.238281 L 61.527344 201.238281 L 82.480469 221.910156 L 64.722656 239.910156 Z M 43.769531 219.238281 " fill-opacity="1" fill-rule="nonzero"/></g></g></g><g clip-path="url(#83380029db)"><g clip-path="url(#c500abbfe8)"><g clip-path="url(#23727646ba)"><g clip-path="url(#8e488f2b74)"><path stroke-linecap="butt" transform="matrix(0.579383, -0.587225, 0.587225, 0.579383, 43.770757, 219.237995)" fill="none" stroke-linejoin="miter" d="M 15.320891 0.00172948 L 30.640102 8.914299 L 30.640812 26.741092 L 15.322312 35.655315 L -0.000223924 26.739375 L -0.000934647 8.912582 Z M 15.320891 0.00172948 " stroke="#141414" stroke-width="1.815373" stroke-opacity="1" stroke-miterlimit="4"/></g></g></g></g><g clip-path="url(#daa7d2c94f)"><g clip-path="url(#720ec53686)"><g clip-path="url(#d52761703d)"><path fill="#242424" d="M 211.6875 238.195312 L 238.433594 216.003906 L 264.261719 247.132812 L 237.519531 269.324219 Z M 211.6875 238.195312 " fill-opacity="1" fill-rule="nonzero"/></g></g></g><g clip-path="url(#dd474607df)"><g clip-path="url(#2df3dd9630)"><g clip-path="url(#542f74053b)"><g clip-path="url(#a6fbfeee4f)"><path stroke-linecap="butt" transform="matrix(0.634852, -0.526765, 0.526765, 0.634852, 211.688894, 238.193115)" fill="none" stroke-linejoin="miter" d="M 21.061128 -0.00187762 L 42.122771 12.256166 L 42.123225 36.763996 L 21.062035 49.013782 L 0.00101233 36.762406 L 0.000558937 12.254576 Z M 21.061128 -0.00187762 " stroke="#141414" stroke-width="1.815373" stroke-opacity="1" stroke-miterlimit="4"/></g></g></g></g><g clip-path="url(#8ca2916475)"><g clip-path="url(#09b834eed0)"><g clip-path="url(#b4332d1dc7)"><path fill="#242424" d="M 245.152344 215.609375 L 260.589844 202.796875 L 275.503906 220.769531 L 260.066406 233.582031 Z M 245.152344 215.609375 " fill-opacity="1" fill-rule="nonzero"/></g></g></g><g clip-path="url(#0ccb3dde4e)"><g clip-path="url(#eb77df0138)"><g clip-path="url(#88587893c1)"><g clip-path="url(#9b0ba4f9e0)"><path stroke-linecap="butt" transform="matrix(0.634852, -0.526765, 0.526765, 0.634852, 245.152199, 215.61051)" fill="none" stroke-linejoin="miter" d="M 12.157625 0.00115475 L 24.31286 7.071927 L 24.314375 21.218962 L 12.15701 28.2922 L -0.00186991 21.218403 L 0.000259463 7.074393 Z M 12.157625 0.00115475 " stroke="#141414" stroke-width="1.815373" stroke-opacity="1" stroke-miterlimit="4"/></g></g></g></g><g clip-path="url(#9beaeb67bc)"><g clip-path="url(#09c9a29ee2)"><g clip-path="url(#9e911ce789)"><path fill="#242424" d="M 217.742188 206.058594 L 234.304688 192.316406 L 250.300781 211.59375 L 233.738281 225.335938 Z M 217.742188 206.058594 " fill-opacity="1" fill-rule="nonzero"/></g></g></g><g clip-path="url(#8dcc0e9415)"><g clip-path="url(#0a5b5f962e)"><g clip-path="url(#98ba7a3906)"><g clip-path="url(#5e03007d56)"><path stroke-linecap="butt" transform="matrix(0.634852, -0.526765, 0.526765, 0.634852, 217.743137, 206.05827)" fill="none" stroke-linejoin="miter" d="M 13.036402 0.000406997 L 26.076688 7.584038 L 26.076134 22.756909 L 13.038319 30.342505 L -0.0019668 22.758874 L -0.00141299 7.586003 Z M 13.036402 0.000406997 " stroke="#141414" stroke-width="1.815373" stroke-opacity="1" stroke-miterlimit="4"/></g></g></g></g><g clip-path="url(#3012b2c38d)"><g clip-path="url(#017fbcbe06)"><g clip-path="url(#8336073b1d)"><path fill="#242424" d="M 197.347656 220.730469 L 211.394531 209.074219 L 224.964844 225.425781 L 210.917969 237.085938 Z M 197.347656 220.730469 " fill-opacity="1" fill-rule="nonzero"/></g></g></g><g clip-path="url(#fa7d238030)"><g clip-path="url(#cde01d9d1e)"><g clip-path="url(#64d3dc5ed4)"><g clip-path="url(#516fe07809)"><path stroke-linecap="butt" transform="matrix(0.634851, -0.526765, 0.526765, 0.634851, 197.35047, 220.728307)" fill="none" stroke-linejoin="miter" d="M 11.059179 -0.000591518 L 22.116302 6.435913 L 22.116312 19.301874 L 11.056174 25.734975 L -0.000950015 19.29847 L -0.000959456 6.432509 Z M 11.059179 -0.000591518 " stroke="#141414" stroke-width="1.815373" stroke-opacity="1" stroke-miterlimit="4"/></g></g></g></g><g clip-path="url(#2ca74faf2a)"><g clip-path="url(#a1bc4e576a)"><g clip-path="url(#e3793c4ffc)"><path fill="#242424" d="M 187.519531 192.816406 L 206.980469 176.671875 L 225.773438 199.320312 L 206.316406 215.46875 Z M 187.519531 192.816406 " fill-opacity="1" fill-rule="nonzero"/></g></g></g><g clip-path="url(#e7ce0d6541)"><g clip-path="url(#02081d51e6)"><g clip-path="url(#be5dbb50d8)"><g clip-path="url(#86d5c600cb)"><path stroke-linecap="butt" transform="matrix(0.634852, -0.526765, 0.526765, 0.634852, 187.52004, 192.817106)" fill="none" stroke-linejoin="miter" d="M 15.320872 -0.000806283 L 30.64058 8.91424 L 30.641411 26.74021 L 15.319509 35.654777 L -0.000199529 26.73973 L -0.00102976 8.913761 Z M 15.320872 -0.000806283 " stroke="#141414" stroke-width="1.815373" stroke-opacity="1" stroke-miterlimit="4"/></g></g></g></g><g clip-path="url(#c24903d1c1)"><g clip-path="url(#df091744de)"><g clip-path="url(#4530c91d35)"><path fill="#242424" d="M 337.546875 284.746094 L 313.066406 278.421875 L 320.425781 249.925781 L 344.90625 256.246094 Z M 337.546875 284.746094 " fill-opacity="1" fill-rule="nonzero"/></g></g></g><g clip-path="url(#0c20f87a0d)"><g clip-path="url(#b49f29c531)"><g clip-path="url(#d1681bb769)"><g clip-path="url(#0069735e40)"><path stroke-linecap="butt" transform="matrix(-0.798739, -0.206237, 0.206237, -0.798739, 337.548909, 284.743646)" fill="none" stroke-linejoin="miter" d="M 15.31912 -0.0020852 L 30.639827 8.913904 L 30.640524 26.739672 L 15.321698 35.654036 L 0.00217531 26.742632 L 0.000294137 8.912279 Z M 15.31912 -0.0020852 " stroke="#141414" stroke-width="1.815373" stroke-opacity="1" stroke-miterlimit="4"/></g></g></g></g><g clip-path="url(#592e6510a9)"><g clip-path="url(#140bce2e35)"><g clip-path="url(#01dfaa4bea)"><path fill="#242424" d="M 182.277344 18.117188 L 181.15625 43.378906 L 151.75 42.070312 L 152.875 16.8125 Z M 182.277344 18.117188 " fill-opacity="1" fill-rule="nonzero"/></g></g></g><g clip-path="url(#7036837a2b)"><g clip-path="url(#8b67c1b5e2)"><g clip-path="url(#cbabcc1532)"><g clip-path="url(#4a0a7e2566)"><path stroke-linecap="butt" transform="matrix(-0.0366325, 0.824121, -0.824121, -0.0366325, 182.277202, 18.118524)" fill="none" stroke-linejoin="miter" d="M 15.322522 0.00128131 L 30.63989 8.91397 L 30.640731 26.740685 L 15.319474 35.654921 L 0.00210609 26.742233 L 0.00126493 8.915518 Z M 15.322522 0.00128131 " stroke="#141414" stroke-width="1.815373" stroke-opacity="1" stroke-miterlimit="4"/></g></g></g></g><g clip-path="url(#18849b9253)"><g clip-path="url(#2d222a2733)"><g clip-path="url(#7c8828ee78)"><path fill="#242424" d="M 493.058594 164.535156 L 491.515625 199.253906 L 451.101562 197.457031 L 452.644531 162.738281 Z M 493.058594 164.535156 " fill-opacity="1" fill-rule="nonzero"/></g></g></g><g clip-path="url(#d73da4b1b7)"><g clip-path="url(#f523028daa)"><g clip-path="url(#efb76b68ff)"><g clip-path="url(#88c2d04268)"><path stroke-linecap="butt" transform="matrix(-0.0366325, 0.824121, -0.824121, -0.0366325, 493.058991, 164.537362)" fill="none" stroke-linejoin="miter" d="M 21.061339 -0.00194247 L 42.125085 12.2529 L 42.124389 36.762937 L 21.059737 49.013403 L 0.000931558 36.763081 L 0.00162777 12.253043 Z M 21.061339 -0.00194247 " stroke="#141414" stroke-width="1.815373" stroke-opacity="1" stroke-miterlimit="4"/></g></g></g></g><g clip-path="url(#8f8fd80751)"><g clip-path="url(#53e6e71bf0)"><g clip-path="url(#d079f48ce3)"><path fill="#242424" d="M 186.207031 52.421875 L 185.316406 72.464844 L 161.984375 71.429688 L 162.875 51.382812 Z M 186.207031 52.421875 " fill-opacity="1" fill-rule="nonzero"/></g></g></g><g clip-path="url(#6d20064205)"><g clip-path="url(#a4752398e0)"><g clip-path="url(#17a31cd1ce)"><g clip-path="url(#9567c3a6cb)"><path stroke-linecap="butt" transform="matrix(-0.0366325, 0.824121, -0.824121, -0.0366325, 186.204859, 52.421757)" fill="none" stroke-linejoin="miter" d="M 12.158069 0.00202198 L 24.312684 7.074019 L 24.310981 21.217948 L 12.154662 28.289878 L 0.000046322 21.217881 L 0.00174987 7.073953 Z M 12.158069 0.00202198 " stroke="#141414" stroke-width="1.815373" stroke-opacity="1" stroke-miterlimit="4"/></g></g></g></g><g clip-path="url(#3005614dd2)"><g clip-path="url(#987af2d4e8)"><g clip-path="url(#691079f10b)"><path fill="#242424" d="M 138.960938 265.226562 L 138.003906 286.726562 L 112.980469 285.613281 L 113.9375 264.113281 Z M 138.960938 265.226562 " fill-opacity="1" fill-rule="nonzero"/></g></g></g><g clip-path="url(#20aea4d700)"><g clip-path="url(#a1a13506b1)"><g clip-path="url(#9c348ef358)"><g clip-path="url(#2c8c6f76ee)"><path stroke-linecap="butt" transform="matrix(-0.0366325, 0.824121, -0.824121, -0.0366325, 138.961018, 265.228066)" fill="none" stroke-linejoin="miter" d="M 13.03758 -0.0011603 L 26.077757 7.586041 L 26.074377 22.7586 L 13.040282 30.343538 L 0.000105197 22.756337 L -0.00124593 7.583988 Z M 13.03758 -0.0011603 " stroke="#141414" stroke-width="1.815373" stroke-opacity="1" stroke-miterlimit="4"/></g></g></g></g><g clip-path="url(#97bec8f4fc)"><g clip-path="url(#de20958225)"><g clip-path="url(#1326657eea)"><path fill="#242424" d="M 216.921875 78.515625 L 214.6875 128.746094 L 156.21875 126.148438 L 158.449219 75.917969 Z M 216.921875 78.515625 " fill-opacity="1" fill-rule="nonzero"/></g></g></g><g clip-path="url(#a379f913c6)"><g clip-path="url(#da14d3cef9)"><g clip-path="url(#2b4b0b7fda)"><g clip-path="url(#18d731529d)"><path stroke-linecap="butt" transform="matrix(-0.0366325, 0.824121, -0.824121, -0.0366325, 216.915937, 78.516192)" fill="none" stroke-linejoin="miter" d="M 30.467319 -0.00113832 L 60.93659 17.727317 L 60.938901 53.181643 L 30.467212 70.907724 L -0.00184857 53.184 L 0.00057024 17.729463 Z M 30.467319 -0.00113832 " stroke="#141414" stroke-width="1.815373" stroke-opacity="1" stroke-miterlimit="4"/></g></g></g></g><g clip-path="url(#70a252f298)"><g clip-path="url(#0d5a161383)"><g clip-path="url(#310ac6a7e6)"><path fill="#242424" d="M 194.714844 133.738281 L 193.902344 151.976562 L 172.671875 151.03125 L 173.484375 132.796875 Z M 194.714844 133.738281 " fill-opacity="1" fill-rule="nonzero"/></g></g></g><g clip-path="url(#1d4dba8ed2)"><g clip-path="url(#27cfa42cb9)"><g clip-path="url(#6ec8c89e3b)"><g clip-path="url(#0a8904e254)"><path stroke-linecap="butt" transform="matrix(-0.0366325, 0.824121, -0.824121, -0.0366325, 194.712724, 133.742603)" fill="none" stroke-linejoin="miter" d="M 11.057626 -0.00113829 L 22.117379 6.432242 L 22.115878 19.30113 L 11.059355 25.736427 L -0.000397688 19.303047 L 0.00110315 6.434159 Z M 11.057626 -0.00113829 " stroke="#141414" stroke-width="1.815373" stroke-opacity="1" stroke-miterlimit="4"/></g></g></g></g><g clip-path="url(#382f567242)"><g clip-path="url(#510820b516)"><g clip-path="url(#1d59610cd3)"><path fill="#242424" d="M 187.9375 155.582031 L 186.816406 180.84375 L 157.410156 179.535156 L 158.535156 154.273438 Z M 187.9375 155.582031 " fill-opacity="1" fill-rule="nonzero"/></g></g></g><g clip-path="url(#7e879799eb)"><g clip-path="url(#7784088db9)"><g clip-path="url(#dba625e429)"><g clip-path="url(#5240c79e54)"><path stroke-linecap="butt" transform="matrix(-0.0366325, 0.824121, -0.824121, -0.0366325, 187.937968, 155.582362)" fill="none" stroke-linejoin="miter" d="M 15.319042 0.00217636 L 30.64114 8.914655 L 30.641981 26.74137 L 15.320724 35.655606 L -0.00137425 26.743128 L -0.00242569 8.911682 Z M 15.319042 0.00217636 " stroke="#141414" stroke-width="1.815373" stroke-opacity="1" stroke-miterlimit="4"/></g></g></g></g><g clip-path="url(#f2c7b2ce98)"><g clip-path="url(#3a0dff9f32)"><g clip-path="url(#174510de37)"><path fill="#242424" d="M 205.253906 50.484375 L 187.023438 58.863281 L 177.269531 37.640625 L 195.5 29.261719 Z M 205.253906 50.484375 " fill-opacity="1" fill-rule="nonzero"/></g></g></g><g clip-path="url(#90565bb966)"><g clip-path="url(#1e2bcb9d8a)"><g clip-path="url(#40614d6387)"><g clip-path="url(#1152364524)"><path stroke-linecap="butt" transform="matrix(-0.749573, 0.344468, -0.344468, -0.749573, 205.251924, 50.482791)" fill="none" stroke-linejoin="miter" d="M 12.156314 -0.00216311 L 24.313699 7.075225 L 24.31273 21.218249 L 12.1567 28.290166 L 0.00164073 21.219058 L -0.00169239 7.074056 Z M 12.156314 -0.00216311 " stroke="#141414" stroke-width="1.815373" stroke-opacity="1" stroke-miterlimit="4"/></g></g></g></g><g clip-path="url(#e95437b198)"><g clip-path="url(#b1e82f0138)"><g clip-path="url(#1a25ace1d5)"><path fill="#242424" d="M 237.871094 22.746094 L 218.316406 31.730469 L 207.855469 8.96875 L 227.410156 -0.015625 Z M 237.871094 22.746094 " fill-opacity="1" fill-rule="nonzero"/></g></g></g><g clip-path="url(#1a65dfe397)"><g clip-path="url(#ded2e0ebff)"><g clip-path="url(#0240e27d73)"><g clip-path="url(#9055914dd5)"><path stroke-linecap="butt" transform="matrix(-0.749573, 0.344468, -0.344468, -0.749573, 237.86972, 22.746104)" fill="none" stroke-linejoin="miter" d="M 13.037551 -0.00154444 L 26.076153 7.585034 L 26.077198 22.75561 L 13.037664 30.343909 L -0.000938141 22.75733 L -0.00198354 7.586755 Z M 13.037551 -0.00154444 " stroke="#141414" stroke-width="1.815373" stroke-opacity="1" stroke-miterlimit="4"/></g></g></g></g><g clip-path="url(#23d2320cd5)"><g clip-path="url(#ea9070b037)"><g clip-path="url(#7efcc04ac4)"><path fill="#242424" d="M 228.109375 48.578125 L 211.523438 56.199219 L 202.648438 36.890625 L 219.234375 29.269531 Z M 228.109375 48.578125 " fill-opacity="1" fill-rule="nonzero"/></g></g></g><g clip-path="url(#035042106c)"><g clip-path="url(#3139ea39c1)"><g clip-path="url(#e5b1af8eb6)"><g clip-path="url(#55c9b02426)"><path stroke-linecap="butt" transform="matrix(-0.749573, 0.344468, -0.344468, -0.749573, 228.10507, 48.579245)" fill="none" stroke-linejoin="miter" d="M 11.057038 0.00176413 L 22.114705 6.433068 L 22.116276 19.300491 L 11.055878 25.734634 L 0.000188697 19.299027 L -0.00138266 6.431604 Z M 11.057038 0.00176413 " stroke="#141414" stroke-width="1.815373" stroke-opacity="1" stroke-miterlimit="4"/></g></g></g></g></g></g></g></g></svg>