<svg xmlns="http://www.w3.org/2000/svg" xmlns:xlink="http://www.w3.org/1999/xlink" width="50" zoomAndPan="magnify" viewBox="0 0 37.5 37.499999" height="50" preserveAspectRatio="xMidYMid meet" version="1.0"><defs><clipPath id="eac1ba3d72"><path d="M 0 0 L 37.007812 0 L 37.007812 37.007812 L 0 37.007812 Z M 0 0 " clip-rule="nonzero"/></clipPath></defs><g clip-path="url(#eac1ba3d72)"><path fill="#f4f4f4" d="M 18.503906 37.007812 C 8.300781 37.007812 0 28.707031 0 18.503906 C 0 8.300781 8.300781 0 18.503906 0 C 28.707031 0 37.007812 8.300781 37.007812 18.503906 C 37.007812 28.707031 28.707031 37.007812 18.503906 37.007812 Z M 18.503906 2.683594 C 9.777344 2.683594 2.679688 9.777344 2.679688 18.503906 C 2.679688 27.226562 9.777344 34.324219 18.503906 34.324219 C 27.226562 34.324219 34.324219 27.226562 34.324219 18.503906 C 34.324219 9.777344 27.226562 2.683594 18.503906 2.683594 Z M 18.503906 2.683594 " fill-opacity="1" fill-rule="nonzero"/></g><path fill="#f4f4f4" d="M 18.886719 28.105469 C 18.742188 28.050781 18.589844 27.964844 18.589844 27.589844 C 18.589844 27.4375 18.613281 27.257812 18.667969 27.042969 L 21.003906 15.710938 C 21.058594 15.445312 21.082031 15.167969 21.082031 14.890625 C 21.082031 14.15625 20.859375 13.601562 20.414062 13.230469 C 19.414062 12.410156 17.667969 12.570312 14.761719 13.554688 L 14.480469 13.648438 L 14.367188 15.109375 L 14.851562 15.109375 C 16.332031 15.109375 16.691406 15.226562 16.765625 15.261719 C 16.863281 15.308594 16.917969 15.367188 16.917969 15.53125 C 16.917969 15.625 16.90625 15.730469 16.882812 15.84375 C 16.851562 16 16.816406 16.175781 16.785156 16.367188 L 14.644531 26.773438 C 14.542969 27.296875 14.492188 27.746094 14.492188 28.105469 C 14.492188 28.9375 14.730469 29.578125 15.199219 30.007812 C 15.65625 30.429688 16.285156 30.644531 17.0625 30.644531 C 17.976562 30.644531 19.199219 30.394531 20.804688 29.875 L 21.09375 29.78125 L 21.207031 28.300781 L 20.722656 28.300781 C 19.625 28.300781 19.121094 28.191406 18.886719 28.105469 Z M 18.886719 28.105469 " fill-opacity="1" fill-rule="nonzero"/><path fill="#f4f4f4" d="M 21.960938 6.996094 C 21.519531 6.574219 20.953125 6.359375 20.277344 6.359375 C 19.578125 6.359375 18.988281 6.589844 18.519531 7.042969 C 18.050781 7.496094 17.8125 8.109375 17.8125 8.863281 C 17.8125 9.558594 18.039062 10.132812 18.488281 10.578125 C 18.933594 11.027344 19.507812 11.257812 20.1875 11.257812 C 20.882812 11.257812 21.46875 11.015625 21.9375 10.542969 C 22.402344 10.070312 22.636719 9.457031 22.636719 8.722656 C 22.636719 8 22.410156 7.417969 21.960938 6.996094 Z M 21.960938 6.996094 " fill-opacity="1" fill-rule="nonzero"/></svg>