<svg xmlns="http://www.w3.org/2000/svg" xmlns:xlink="http://www.w3.org/1999/xlink" width="250" zoomAndPan="magnify" viewBox="0 0 187.5 44.999999" height="60" preserveAspectRatio="xMidYMid meet" version="1.0"><defs><g/></defs><g fill="#f4f4f4" fill-opacity="1"><g transform="translate(0, 31.993402)"><g><path d="M 13 -10.578125 L 9.390625 -6.8125 L 9.390625 0 L 3.1875 0 L 3.1875 -26.921875 L 9.390625 -26.921875 L 9.390625 -14.34375 L 21.3125 -26.921875 L 28.234375 -26.921875 L 17.078125 -14.921875 L 28.890625 0 L 21.625 0 Z M 13 -10.578125 "/></g></g></g><g fill="#f4f4f4" fill-opacity="1"><g transform="translate(28.469698, 31.993402)"><g><path d="M 23.046875 -10.265625 C 23.046875 -10.191406 23.003906 -9.65625 22.921875 -8.65625 L 7.265625 -8.65625 C 7.546875 -7.375 8.210938 -6.359375 9.265625 -5.609375 C 10.316406 -4.867188 11.625 -4.5 13.1875 -4.5 C 14.269531 -4.5 15.226562 -4.660156 16.0625 -4.984375 C 16.894531 -5.304688 17.671875 -5.8125 18.390625 -6.5 L 21.578125 -3.03125 C 19.628906 -0.800781 16.785156 0.3125 13.046875 0.3125 C 10.710938 0.3125 8.644531 -0.140625 6.84375 -1.046875 C 5.050781 -1.960938 3.664062 -3.226562 2.6875 -4.84375 C 1.71875 -6.457031 1.234375 -8.289062 1.234375 -10.34375 C 1.234375 -12.375 1.710938 -14.203125 2.671875 -15.828125 C 3.628906 -17.453125 4.945312 -18.71875 6.625 -19.625 C 8.3125 -20.539062 10.191406 -21 12.265625 -21 C 14.296875 -21 16.128906 -20.5625 17.765625 -19.6875 C 19.410156 -18.820312 20.703125 -17.570312 21.640625 -15.9375 C 22.578125 -14.3125 23.046875 -12.421875 23.046875 -10.265625 Z M 12.3125 -16.46875 C 10.945312 -16.46875 9.800781 -16.082031 8.875 -15.3125 C 7.957031 -14.539062 7.394531 -13.488281 7.1875 -12.15625 L 17.390625 -12.15625 C 17.179688 -13.46875 16.613281 -14.515625 15.6875 -15.296875 C 14.769531 -16.078125 13.644531 -16.46875 12.3125 -16.46875 Z M 12.3125 -16.46875 "/></g></g></g><g fill="#f4f4f4" fill-opacity="1"><g transform="translate(52.745873, 31.993402)"><g><path d="M 23.3125 -20.703125 L 13.96875 1.265625 C 13.019531 3.648438 11.84375 5.328125 10.4375 6.296875 C 9.039062 7.273438 7.359375 7.765625 5.390625 7.765625 C 4.304688 7.765625 3.238281 7.597656 2.1875 7.265625 C 1.132812 6.929688 0.273438 6.472656 -0.390625 5.890625 L 1.8125 1.609375 C 2.269531 2.023438 2.800781 2.347656 3.40625 2.578125 C 4.007812 2.804688 4.601562 2.921875 5.1875 2.921875 C 6.007812 2.921875 6.675781 2.722656 7.1875 2.328125 C 7.707031 1.929688 8.171875 1.269531 8.578125 0.34375 L 8.65625 0.15625 L -0.3125 -20.703125 L 5.890625 -20.703125 L 11.6875 -6.65625 L 17.546875 -20.703125 Z M 23.3125 -20.703125 "/></g></g></g><g fill="#f4f4f4" fill-opacity="1"><g transform="translate(75.752476, 31.993402)"><g><path d="M 12.765625 0.3125 C 10.566406 0.3125 8.585938 -0.140625 6.828125 -1.046875 C 5.066406 -1.960938 3.691406 -3.226562 2.703125 -4.84375 C 1.722656 -6.457031 1.234375 -8.289062 1.234375 -10.34375 C 1.234375 -12.394531 1.722656 -14.226562 2.703125 -15.84375 C 3.691406 -17.457031 5.066406 -18.71875 6.828125 -19.625 C 8.585938 -20.539062 10.566406 -21 12.765625 -21 C 14.953125 -21 16.859375 -20.539062 18.484375 -19.625 C 20.109375 -18.71875 21.296875 -17.421875 22.046875 -15.734375 L 17.390625 -13.234375 C 16.304688 -15.128906 14.753906 -16.078125 12.734375 -16.078125 C 11.171875 -16.078125 9.875 -15.5625 8.84375 -14.53125 C 7.820312 -13.507812 7.3125 -12.113281 7.3125 -10.34375 C 7.3125 -8.570312 7.820312 -7.171875 8.84375 -6.140625 C 9.875 -5.117188 11.171875 -4.609375 12.734375 -4.609375 C 14.785156 -4.609375 16.335938 -5.5625 17.390625 -7.46875 L 22.046875 -4.921875 C 21.296875 -3.285156 20.109375 -2.003906 18.484375 -1.078125 C 16.859375 -0.148438 14.953125 0.3125 12.765625 0.3125 Z M 12.765625 0.3125 "/></g></g></g><g fill="#f4f4f4" fill-opacity="1"><g transform="translate(98.489774, 31.993402)"><g><path d="M 15.34375 -21 C 17.914062 -21 19.988281 -20.226562 21.5625 -18.6875 C 23.132812 -17.15625 23.921875 -14.875 23.921875 -11.84375 L 23.921875 0 L 17.921875 0 L 17.921875 -10.921875 C 17.921875 -12.566406 17.5625 -13.789062 16.84375 -14.59375 C 16.125 -15.40625 15.085938 -15.8125 13.734375 -15.8125 C 12.222656 -15.8125 11.015625 -15.34375 10.109375 -14.40625 C 9.210938 -13.46875 8.765625 -12.078125 8.765625 -10.234375 L 8.765625 0 L 2.765625 0 L 2.765625 -28.546875 L 8.765625 -28.546875 L 8.765625 -18.546875 C 9.566406 -19.335938 10.53125 -19.941406 11.65625 -20.359375 C 12.78125 -20.785156 14.007812 -21 15.34375 -21 Z M 15.34375 -21 "/></g></g></g><g fill="#f4f4f4" fill-opacity="1"><g transform="translate(125.07429, 31.993402)"><g><path d="M 11.125 -21 C 14.320312 -21 16.78125 -20.234375 18.5 -18.703125 C 20.21875 -17.179688 21.078125 -14.882812 21.078125 -11.8125 L 21.078125 0 L 15.46875 0 L 15.46875 -2.578125 C 14.332031 -0.648438 12.226562 0.3125 9.15625 0.3125 C 7.5625 0.3125 6.179688 0.0390625 5.015625 -0.5 C 3.847656 -1.039062 2.957031 -1.785156 2.34375 -2.734375 C 1.726562 -3.679688 1.421875 -4.757812 1.421875 -5.96875 C 1.421875 -7.882812 2.144531 -9.394531 3.59375 -10.5 C 5.039062 -11.601562 7.28125 -12.15625 10.3125 -12.15625 L 15.078125 -12.15625 C 15.078125 -13.46875 14.675781 -14.472656 13.875 -15.171875 C 13.082031 -15.878906 11.894531 -16.234375 10.3125 -16.234375 C 9.207031 -16.234375 8.125 -16.054688 7.0625 -15.703125 C 6 -15.359375 5.09375 -14.894531 4.34375 -14.3125 L 2.1875 -18.5 C 3.320312 -19.300781 4.675781 -19.914062 6.25 -20.34375 C 7.820312 -20.78125 9.445312 -21 11.125 -21 Z M 10.65625 -3.734375 C 11.675781 -3.734375 12.582031 -3.96875 13.375 -4.4375 C 14.175781 -4.914062 14.742188 -5.617188 15.078125 -6.546875 L 15.078125 -8.65625 L 10.96875 -8.65625 C 8.5 -8.65625 7.265625 -7.847656 7.265625 -6.234375 C 7.265625 -5.460938 7.566406 -4.851562 8.171875 -4.40625 C 8.773438 -3.957031 9.601562 -3.734375 10.65625 -3.734375 Z M 10.65625 -3.734375 "/></g></g></g><g fill="#f4f4f4" fill-opacity="1"><g transform="translate(148.811855, 31.993402)"><g><path d="M 2.765625 -20.703125 L 8.765625 -20.703125 L 8.765625 0 L 2.765625 0 Z M 5.765625 -23.578125 C 4.671875 -23.578125 3.773438 -23.894531 3.078125 -24.53125 C 2.390625 -25.175781 2.046875 -25.972656 2.046875 -26.921875 C 2.046875 -27.867188 2.390625 -28.664062 3.078125 -29.3125 C 3.773438 -29.957031 4.671875 -30.28125 5.765625 -30.28125 C 6.867188 -30.28125 7.765625 -29.96875 8.453125 -29.34375 C 9.148438 -28.726562 9.5 -27.960938 9.5 -27.046875 C 9.5 -26.046875 9.148438 -25.21875 8.453125 -24.5625 C 7.765625 -23.90625 6.867188 -23.578125 5.765625 -23.578125 Z M 5.765625 -23.578125 "/></g></g></g><g fill="#f4f4f4" fill-opacity="1"><g transform="translate(160.392108, 31.993402)"><g><path d="M 15.34375 -21 C 17.914062 -21 19.988281 -20.226562 21.5625 -18.6875 C 23.132812 -17.15625 23.921875 -14.875 23.921875 -11.84375 L 23.921875 0 L 17.921875 0 L 17.921875 -10.921875 C 17.921875 -12.566406 17.5625 -13.789062 16.84375 -14.59375 C 16.125 -15.40625 15.085938 -15.8125 13.734375 -15.8125 C 12.222656 -15.8125 11.015625 -15.34375 10.109375 -14.40625 C 9.210938 -13.46875 8.765625 -12.078125 8.765625 -10.234375 L 8.765625 0 L 2.765625 0 L 2.765625 -20.703125 L 8.5 -20.703125 L 8.5 -18.265625 C 9.289062 -19.140625 10.273438 -19.8125 11.453125 -20.28125 C 12.640625 -20.757812 13.9375 -21 15.34375 -21 Z M 15.34375 -21 "/></g></g></g></svg>