<svg xmlns="http://www.w3.org/2000/svg" xmlns:xlink="http://www.w3.org/1999/xlink" width="400" zoomAndPan="magnify" viewBox="0 0 300 299.999988" height="400" preserveAspectRatio="xMidYMid meet" version="1.0"><defs><clipPath id="e95847860b"><path d="M 16 15 L 285 15 L 285 284 L 16 284 Z M 16 15 " clip-rule="nonzero"/></clipPath><clipPath id="7c3a443ed5"><path d="M 0.863281 149.875 L 150.945312 -0.207031 L 300.496094 149.34375 L 150.414062 299.429688 Z M 0.863281 149.875 " clip-rule="nonzero"/></clipPath><clipPath id="81fc367d2a"><path d="M 0.863281 149.875 L 151.007812 -0.269531 L 301.152344 149.875 L 151.007812 300.019531 Z M 0.863281 149.875 " clip-rule="nonzero"/></clipPath><clipPath id="19e3e45614"><path d="M 27.378906 123.359375 L 124.21875 26.515625 C 138.863281 11.871094 162.605469 11.871094 177.25 26.515625 L 273.597656 122.863281 C 288.242188 137.507812 288.242188 161.253906 273.597656 175.894531 L 176.757812 272.738281 C 162.113281 287.382812 138.371094 287.382812 123.726562 272.738281 L 27.378906 176.390625 C 12.734375 161.746094 12.734375 138 27.378906 123.359375 Z M 27.378906 123.359375 " clip-rule="nonzero"/></clipPath></defs><g clip-path="url(#e95847860b)"><g clip-path="url(#7c3a443ed5)"><g clip-path="url(#81fc367d2a)"><g clip-path="url(#19e3e45614)"><path stroke-linecap="butt" transform="matrix(0.53033, -0.53033, 0.53033, 0.53033, 0.863655, 149.87328)" fill="none" stroke-linejoin="miter" d="M 49.996372 0.00126966 L 232.603029 -0.00241319 C 260.217024 -0.00241319 282.601375 22.381938 282.601375 49.995933 L 282.601375 231.67083 C 282.601375 259.284825 260.213342 281.672858 232.603029 281.669176 L 49.996372 281.672858 C 22.382377 281.672858 -0.00197405 259.288508 -0.00197405 231.674513 L -0.00197405 49.999616 C -0.00197405 22.38562 22.38606 -0.00241319 49.996372 0.00126966 Z M 49.996372 0.00126966 " stroke="#f4f4f4" stroke-width="80" stroke-opacity="1" stroke-miterlimit="4"/></g></g></g></g></svg>