<svg xmlns="http://www.w3.org/2000/svg" xmlns:xlink="http://www.w3.org/1999/xlink" width="50" zoomAndPan="magnify" viewBox="0 0 37.5 37.499999" height="50" preserveAspectRatio="xMidYMid meet" version="1.0"><defs><clipPath id="7bf3e2bb00"><path d="M 2.84375 0 L 33.929688 0 L 33.929688 37 L 2.84375 37 Z M 2.84375 0 " clip-rule="nonzero"/></clipPath></defs><g clip-path="url(#7bf3e2bb00)"><path fill="#84af6d" d="M 33.636719 7.101562 C 33.351562 6.777344 32.949219 6.589844 32.527344 6.578125 C 29.242188 6.496094 25.089844 2.984375 22.34375 1.609375 C 20.648438 0.761719 19.53125 0.199219 18.6875 0.0546875 C 18.601562 0.0429688 18.519531 0.0351562 18.433594 0.0351562 C 18.347656 0.0351562 18.261719 0.0429688 18.175781 0.0546875 C 17.332031 0.203125 16.214844 0.761719 14.519531 1.609375 C 11.773438 2.984375 7.621094 6.496094 4.339844 6.578125 C 3.914062 6.589844 3.511719 6.78125 3.226562 7.101562 C 2.9375 7.425781 2.789062 7.855469 2.8125 8.296875 C 3.515625 22.628906 8.65625 31.5 17.675781 36.652344 C 17.910156 36.789062 18.171875 36.855469 18.429688 36.855469 C 18.6875 36.855469 18.949219 36.789062 19.183594 36.652344 C 28.207031 31.5 33.34375 22.628906 34.050781 8.296875 C 34.074219 7.855469 33.925781 7.425781 33.636719 7.101562 Z M 26.464844 12.742188 L 18.851562 23.972656 C 18.578125 24.375 18.148438 24.644531 17.726562 24.644531 C 17.300781 24.644531 16.824219 24.410156 16.527344 24.113281 L 11.160156 18.746094 C 10.796875 18.378906 10.796875 17.785156 11.160156 17.421875 L 12.488281 16.09375 C 12.851562 15.730469 13.449219 15.730469 13.8125 16.09375 L 17.300781 19.582031 L 23.363281 10.632812 C 23.652344 10.207031 24.234375 10.097656 24.664062 10.386719 L 26.214844 11.4375 C 26.640625 11.730469 26.753906 12.3125 26.464844 12.742188 Z M 26.464844 12.742188 " fill-opacity="1" fill-rule="nonzero"/></g></svg>