<svg xmlns="http://www.w3.org/2000/svg" xmlns:xlink="http://www.w3.org/1999/xlink" width="50" zoomAndPan="magnify" viewBox="0 0 37.5 37.499999" height="50" preserveAspectRatio="xMidYMid meet" version="1.0"><defs><clipPath id="2dad9a559e"><path d="M 0 8.496094 L 37.007812 8.496094 L 37.007812 28.402344 L 0 28.402344 Z M 0 8.496094 " clip-rule="nonzero"/></clipPath></defs><g clip-path="url(#2dad9a559e)"><path fill="#f4f4f4" d="M 24.632812 10.597656 C 25.441406 10.855469 26.234375 11.164062 27.007812 11.527344 C 30.398438 13.109375 33.398438 15.429688 35.789062 18.3125 C 35.894531 18.433594 35.894531 18.605469 35.789062 18.730469 C 33.398438 21.613281 30.398438 23.929688 27.007812 25.515625 C 26.234375 25.875 25.441406 26.1875 24.632812 26.445312 C 29.011719 23.0625 29.816406 16.769531 26.425781 12.390625 C 25.910156 11.722656 25.304688 11.117188 24.632812 10.597656 Z M 12.375 10.597656 C 7.996094 13.980469 7.195312 20.273438 10.578125 24.652344 C 11.097656 25.324219 11.703125 25.925781 12.375 26.445312 C 11.5625 26.1875 10.769531 25.878906 10 25.515625 C 6.605469 23.929688 3.609375 21.613281 1.21875 18.730469 C 1.117188 18.609375 1.117188 18.433594 1.21875 18.3125 C 3.609375 15.429688 6.605469 13.109375 10 11.527344 C 10.769531 11.164062 11.5625 10.855469 12.375 10.597656 Z M 18.359375 9.53125 C 23.261719 9.449219 27.296875 13.359375 27.378906 18.265625 C 27.378906 18.351562 27.378906 18.4375 27.378906 18.523438 C 27.445312 23.421875 23.527344 27.453125 18.621094 27.515625 C 13.71875 27.578125 9.691406 23.660156 9.625 18.753906 C 9.625 18.679688 9.625 18.601562 9.625 18.523438 C 9.566406 13.632812 13.46875 9.613281 18.359375 9.53125 Z M 19.289062 8.515625 C 15.921875 8.390625 12.574219 9.066406 9.519531 10.492188 C 5.972656 12.148438 2.839844 14.570312 0.339844 17.585938 C -0.113281 18.128906 -0.113281 18.914062 0.339844 19.460938 C 2.839844 22.472656 5.972656 24.894531 9.519531 26.550781 C 15.214844 29.210938 21.792969 29.210938 27.488281 26.550781 C 31.035156 24.894531 34.167969 22.472656 36.667969 19.460938 C 37.121094 18.914062 37.121094 18.128906 36.667969 17.585938 C 34.167969 14.570312 31.035156 12.148438 27.488281 10.492188 C 24.917969 9.289062 22.128906 8.617188 19.289062 8.515625 " fill-opacity="1" fill-rule="nonzero"/></g><path fill="#f4f4f4" d="M 21.867188 18.523438 C 21.90625 16.664062 20.433594 15.125 18.574219 15.089844 C 16.710938 15.050781 15.175781 16.523438 15.136719 18.382812 C 15.136719 18.429688 15.136719 18.476562 15.136719 18.523438 C 15.097656 20.382812 16.570312 21.917969 18.429688 21.957031 C 20.289062 21.996094 21.828125 20.523438 21.867188 18.664062 C 21.867188 18.617188 21.867188 18.566406 21.867188 18.523438 " fill-opacity="1" fill-rule="nonzero"/></svg>