<svg xmlns="http://www.w3.org/2000/svg" xmlns:xlink="http://www.w3.org/1999/xlink" width="400" zoomAndPan="magnify" viewBox="0 0 300 299.999988" height="400" preserveAspectRatio="xMidYMid meet" version="1.0"><defs><clipPath id="1b59299b0c"><path d="M 104 127 L 130 127 L 130 151 L 104 151 Z M 104 127 " clip-rule="nonzero"/></clipPath><clipPath id="fb1f7b575f"><path d="M 121.503906 154.691406 L 101.597656 145.742188 L 112.011719 122.566406 L 131.921875 131.515625 Z M 121.503906 154.691406 " clip-rule="nonzero"/></clipPath><clipPath id="f893511c7a"><path d="M 111.550781 150.214844 L 104.199219 139.949219 L 109.40625 128.367188 L 121.964844 127.050781 L 129.316406 137.316406 L 124.109375 148.898438 Z M 111.550781 150.214844 " clip-rule="nonzero"/></clipPath><clipPath id="fb083eb41b"><path d="M 104 127 L 130 127 L 130 151 L 104 151 Z M 104 127 " clip-rule="nonzero"/></clipPath><clipPath id="e0c273e4e1"><path d="M 121.503906 154.691406 L 101.65625 145.769531 L 112.0625 122.609375 L 131.914062 131.53125 Z M 121.503906 154.691406 " clip-rule="nonzero"/></clipPath><clipPath id="326ced5b2a"><path d="M 121.503906 154.691406 L 101.597656 145.742188 L 112.007812 122.578125 L 131.917969 131.523438 Z M 121.503906 154.691406 " clip-rule="nonzero"/></clipPath><clipPath id="692aaa8297"><path d="M 111.550781 150.214844 L 104.199219 139.949219 L 109.40625 128.367188 L 121.964844 127.050781 L 129.3125 137.316406 L 124.109375 148.898438 Z M 111.550781 150.214844 " clip-rule="nonzero"/></clipPath><clipPath id="1fc4c34429"><path d="M 88 142 L 107 142 L 107 160 L 88 160 Z M 88 142 " clip-rule="nonzero"/></clipPath><clipPath id="e4487ec4ba"><path d="M 101.199219 162.851562 L 86.710938 156.339844 L 94.292969 139.480469 L 108.777344 145.988281 Z M 101.199219 162.851562 " clip-rule="nonzero"/></clipPath><clipPath id="37829cf2b4"><path d="M 93.957031 159.597656 L 88.605469 152.128906 L 92.394531 143.699219 L 101.53125 142.738281 L 106.878906 150.210938 L 103.09375 158.636719 Z M 93.957031 159.597656 " clip-rule="nonzero"/></clipPath><clipPath id="442699a5f8"><path d="M 88 142 L 107 142 L 107 160 L 88 160 Z M 88 142 " clip-rule="nonzero"/></clipPath><clipPath id="3f103a2ab9"><path d="M 101.199219 162.851562 L 86.546875 156.265625 L 94.195312 139.253906 L 108.84375 145.839844 Z M 101.199219 162.851562 " clip-rule="nonzero"/></clipPath><clipPath id="d60db93ba8"><path d="M 101.199219 162.851562 L 86.71875 156.34375 L 94.292969 139.492188 L 108.773438 146 Z M 101.199219 162.851562 " clip-rule="nonzero"/></clipPath><clipPath id="1f0ee22ea6"><path d="M 93.957031 159.597656 L 88.609375 152.128906 L 92.398438 143.707031 L 101.53125 142.746094 L 106.878906 150.214844 L 103.09375 158.640625 Z M 93.957031 159.597656 " clip-rule="nonzero"/></clipPath><clipPath id="99603d3d35"><path d="M 30 101 L 56 101 L 56 125 L 30 125 Z M 30 101 " clip-rule="nonzero"/></clipPath><clipPath id="b4126745a1"><path d="M 47.640625 129.042969 L 27.730469 120.097656 L 38.148438 96.921875 L 58.054688 105.867188 Z M 47.640625 129.042969 " clip-rule="nonzero"/></clipPath><clipPath id="914b780b31"><path d="M 37.683594 124.570312 L 30.332031 114.304688 L 35.539062 102.722656 L 48.097656 101.402344 L 55.449219 111.667969 L 50.242188 123.253906 Z M 37.683594 124.570312 " clip-rule="nonzero"/></clipPath><clipPath id="02d2dee971"><path d="M 30 101 L 56 101 L 56 125 L 30 125 Z M 30 101 " clip-rule="nonzero"/></clipPath><clipPath id="df8412f82d"><path d="M 47.640625 129.042969 L 27.789062 120.121094 L 38.199219 96.964844 L 58.046875 105.886719 Z M 47.640625 129.042969 " clip-rule="nonzero"/></clipPath><clipPath id="1671823fca"><path d="M 47.640625 129.042969 L 27.730469 120.097656 L 38.144531 96.929688 L 58.050781 105.878906 Z M 47.640625 129.042969 " clip-rule="nonzero"/></clipPath><clipPath id="07dc03712c"><path d="M 37.683594 124.570312 L 30.335938 114.304688 L 35.539062 102.722656 L 48.097656 101.40625 L 55.449219 111.671875 L 50.242188 123.253906 Z M 37.683594 124.570312 " clip-rule="nonzero"/></clipPath><clipPath id="07282d3f78"><path d="M 74 138 L 90 138 L 90 152 L 74 152 Z M 74 138 " clip-rule="nonzero"/></clipPath><clipPath id="fc282357f7"><path d="M 84.566406 154.125 L 73.070312 148.957031 L 79.085938 135.578125 L 90.582031 140.742188 Z M 84.566406 154.125 " clip-rule="nonzero"/></clipPath><clipPath id="092a2e8902"><path d="M 78.820312 151.542969 L 74.574219 145.613281 L 77.582031 138.925781 L 84.832031 138.164062 L 89.074219 144.09375 L 86.070312 150.78125 Z M 78.820312 151.542969 " clip-rule="nonzero"/></clipPath><clipPath id="d9b8657ea3"><path d="M 74 138 L 90 138 L 90 152 L 74 152 Z M 74 138 " clip-rule="nonzero"/></clipPath><clipPath id="1ebd9e7dec"><path d="M 84.566406 154.125 L 73.222656 149.027344 L 79.171875 135.792969 L 90.515625 140.890625 Z M 84.566406 154.125 " clip-rule="nonzero"/></clipPath><clipPath id="f9b609338d"><path d="M 84.566406 154.125 L 73.078125 148.957031 L 79.085938 135.589844 L 90.578125 140.753906 Z M 84.566406 154.125 " clip-rule="nonzero"/></clipPath><clipPath id="5820e35dc1"><path d="M 78.820312 151.539062 L 74.578125 145.617188 L 77.582031 138.929688 L 84.832031 138.171875 L 89.074219 144.09375 L 86.070312 150.78125 Z M 78.820312 151.539062 " clip-rule="nonzero"/></clipPath><clipPath id="3881199ebc"><path d="M 67 119 L 84 119 L 84 134 L 67 134 Z M 67 119 " clip-rule="nonzero"/></clipPath><clipPath id="e2f6f66bf4"><path d="M 78.566406 136.214844 L 66.238281 130.675781 L 72.6875 116.324219 L 85.015625 121.863281 Z M 78.566406 136.214844 " clip-rule="nonzero"/></clipPath><clipPath id="6dec6a9e5b"><path d="M 72.402344 133.445312 L 67.847656 127.089844 L 71.074219 119.914062 L 78.847656 119.097656 L 83.402344 125.457031 L 80.175781 132.628906 Z M 72.402344 133.445312 " clip-rule="nonzero"/></clipPath><clipPath id="82e7adee77"><path d="M 67 119 L 84 119 L 84 134 L 67 134 Z M 67 119 " clip-rule="nonzero"/></clipPath><clipPath id="cba9c1a2d3"><path d="M 78.566406 136.214844 L 66.277344 130.691406 L 72.648438 116.515625 L 84.9375 122.039062 Z M 78.566406 136.214844 " clip-rule="nonzero"/></clipPath><clipPath id="24da479574"><path d="M 78.566406 136.214844 L 66.242188 130.675781 L 72.6875 116.335938 L 85.011719 121.875 Z M 78.566406 136.214844 " clip-rule="nonzero"/></clipPath><clipPath id="d426613be7"><path d="M 72.402344 133.445312 L 67.851562 127.089844 L 71.074219 119.921875 L 78.847656 119.105469 L 83.398438 125.460938 L 80.175781 132.628906 Z M 72.402344 133.445312 " clip-rule="nonzero"/></clipPath><clipPath id="937fc5ceaf"><path d="M 37 126 L 74 126 L 74 160 L 37 160 Z M 37 126 " clip-rule="nonzero"/></clipPath><clipPath id="e577abb0ad"><path d="M 62.214844 166.007812 L 33.410156 153.0625 L 48.480469 119.53125 L 77.285156 132.476562 Z M 62.214844 166.007812 " clip-rule="nonzero"/></clipPath><clipPath id="1f4f79e54e"><path d="M 47.8125 159.535156 L 37.175781 144.679688 L 44.707031 127.921875 L 62.875 126.015625 L 73.511719 140.867188 L 65.980469 157.628906 Z M 47.8125 159.535156 " clip-rule="nonzero"/></clipPath><clipPath id="46ac604ff8"><path d="M 37 126 L 74 126 L 74 160 L 37 160 Z M 37 126 " clip-rule="nonzero"/></clipPath><clipPath id="a8244d44bd"><path d="M 62.214844 166.007812 L 33.386719 153.050781 L 48.464844 119.496094 L 77.296875 132.453125 Z M 62.214844 166.007812 " clip-rule="nonzero"/></clipPath><clipPath id="f01e65d076"><path d="M 62.214844 166.003906 L 33.414062 153.0625 L 48.476562 119.550781 L 77.277344 132.492188 Z M 62.214844 166.003906 " clip-rule="nonzero"/></clipPath><clipPath id="be8238d587"><path d="M 47.816406 159.53125 L 37.179688 144.683594 L 44.710938 127.925781 L 62.878906 126.019531 L 73.511719 140.871094 L 65.980469 157.625 Z M 47.816406 159.53125 " clip-rule="nonzero"/></clipPath><clipPath id="ef18fb4bbc"><path d="M 24 126 L 39 126 L 39 140 L 24 140 Z M 24 126 " clip-rule="nonzero"/></clipPath><clipPath id="61dc543c61"><path d="M 33.910156 141.507812 L 23.453125 136.804688 L 28.925781 124.632812 L 39.382812 129.332031 Z M 33.910156 141.507812 " clip-rule="nonzero"/></clipPath><clipPath id="11195e46a9"><path d="M 28.679688 139.15625 L 24.820312 133.765625 L 27.554688 127.679688 L 34.152344 126.988281 L 38.011719 132.378906 L 35.277344 138.464844 Z M 28.679688 139.15625 " clip-rule="nonzero"/></clipPath><clipPath id="7836e2d370"><path d="M 24 126 L 39 126 L 39 140 L 24 140 Z M 24 126 " clip-rule="nonzero"/></clipPath><clipPath id="8d7e3b34cf"><path d="M 33.910156 141.507812 L 23.511719 136.832031 L 29.035156 124.546875 L 39.433594 129.21875 Z M 33.910156 141.507812 " clip-rule="nonzero"/></clipPath><clipPath id="d0e5f2edbc"><path d="M 33.910156 141.503906 L 23.457031 136.808594 L 28.921875 124.644531 L 39.375 129.34375 Z M 33.910156 141.503906 " clip-rule="nonzero"/></clipPath><clipPath id="10cd723083"><path d="M 28.683594 139.15625 L 24.824219 133.769531 L 27.554688 127.6875 L 34.148438 126.996094 L 38.007812 132.382812 L 35.273438 138.464844 Z M 28.683594 139.15625 " clip-rule="nonzero"/></clipPath><clipPath id="2d4339317c"><path d="M 11 111 L 30 111 L 30 128 L 11 128 Z M 11 111 " clip-rule="nonzero"/></clipPath><clipPath id="e68997d1bd"><path d="M 23.941406 131.222656 L 9.457031 124.710938 L 17.035156 107.847656 L 31.519531 114.359375 Z M 23.941406 131.222656 " clip-rule="nonzero"/></clipPath><clipPath id="149a64a01b"><path d="M 16.699219 127.964844 L 11.351562 120.496094 L 15.136719 112.070312 L 24.273438 111.109375 L 29.625 118.578125 L 25.835938 127.007812 Z M 16.699219 127.964844 " clip-rule="nonzero"/></clipPath><clipPath id="103375fb27"><path d="M 11 111 L 30 111 L 30 128 L 11 128 Z M 11 111 " clip-rule="nonzero"/></clipPath><clipPath id="8323a368e7"><path d="M 23.941406 131.222656 L 9.289062 124.636719 L 16.9375 107.625 L 31.589844 114.207031 Z M 23.941406 131.222656 " clip-rule="nonzero"/></clipPath><clipPath id="bb21158941"><path d="M 23.941406 131.222656 L 9.460938 124.710938 L 17.035156 107.863281 L 31.515625 114.371094 Z M 23.941406 131.222656 " clip-rule="nonzero"/></clipPath><clipPath id="386f9d29dd"><path d="M 16.703125 127.96875 L 11.355469 120.5 L 15.140625 112.074219 L 24.273438 111.117188 L 29.621094 118.582031 L 25.835938 127.007812 Z M 16.703125 127.96875 " clip-rule="nonzero"/></clipPath><clipPath id="78b95dea25"><path d="M 147 8 L 173 8 L 173 33 L 147 33 Z M 147 8 " clip-rule="nonzero"/></clipPath><clipPath id="4c99123348"><path d="M 176.105469 23.394531 L 159.167969 37.164062 L 143.140625 17.445312 L 160.078125 3.679688 Z M 176.105469 23.394531 " clip-rule="nonzero"/></clipPath><clipPath id="4ad1bedca1"><path d="M 167.636719 30.277344 L 155.160156 32.234375 L 147.152344 22.378906 L 151.613281 10.570312 L 164.089844 8.613281 L 172.097656 18.46875 Z M 167.636719 30.277344 " clip-rule="nonzero"/></clipPath><clipPath id="7d845b014e"><path d="M 147 8 L 173 8 L 173 33 L 147 33 Z M 147 8 " clip-rule="nonzero"/></clipPath><clipPath id="843841ece6"><path d="M 176.105469 23.394531 L 159.21875 37.121094 L 143.203125 17.417969 L 160.089844 3.691406 Z M 176.105469 23.394531 " clip-rule="nonzero"/></clipPath><clipPath id="9f7ad90162"><path d="M 176.105469 23.394531 L 159.167969 37.160156 L 143.148438 17.453125 L 160.085938 3.6875 Z M 176.105469 23.394531 " clip-rule="nonzero"/></clipPath><clipPath id="3a8bbc827d"><path d="M 167.636719 30.277344 L 155.164062 32.234375 L 147.152344 22.378906 L 151.617188 10.570312 L 164.089844 8.613281 L 172.097656 18.46875 Z M 167.636719 30.277344 " clip-rule="nonzero"/></clipPath><clipPath id="a515a51c9d"><path d="M 153 34 L 172 34 L 172 52 L 153 52 Z M 153 34 " clip-rule="nonzero"/></clipPath><clipPath id="a2e3856bd7"><path d="M 174.273438 45.199219 L 161.949219 55.21875 L 150.289062 40.871094 L 162.613281 30.855469 Z M 174.273438 45.199219 " clip-rule="nonzero"/></clipPath><clipPath id="94f9a0aab1"><path d="M 168.113281 50.210938 L 159.035156 51.632812 L 153.207031 44.460938 L 156.457031 35.867188 L 165.53125 34.445312 L 171.359375 41.617188 Z M 168.113281 50.210938 " clip-rule="nonzero"/></clipPath><clipPath id="4b516140d0"><path d="M 153 34 L 172 34 L 172 52 L 153 52 Z M 153 34 " clip-rule="nonzero"/></clipPath><clipPath id="ac31083ba7"><path d="M 174.273438 45.199219 L 161.808594 55.332031 L 150.042969 40.855469 L 162.507812 30.726562 Z M 174.273438 45.199219 " clip-rule="nonzero"/></clipPath><clipPath id="83abb90903"><path d="M 174.273438 45.199219 L 161.953125 55.214844 L 150.300781 40.878906 L 162.621094 30.863281 Z M 174.273438 45.199219 " clip-rule="nonzero"/></clipPath><clipPath id="7e6856517a"><path d="M 168.113281 50.207031 L 159.039062 51.628906 L 153.214844 44.460938 L 156.460938 35.871094 L 165.535156 34.449219 L 171.359375 41.617188 Z M 168.113281 50.207031 " clip-rule="nonzero"/></clipPath><clipPath id="e6f7563b8f"><path d="M 127 22 L 153 22 L 153 47 L 127 47 Z M 127 22 " clip-rule="nonzero"/></clipPath><clipPath id="b10499d7d7"><path d="M 156.925781 37.429688 L 139.988281 51.195312 L 123.960938 31.480469 L 140.898438 17.710938 Z M 156.925781 37.429688 " clip-rule="nonzero"/></clipPath><clipPath id="6faf72d9b6"><path d="M 148.457031 44.3125 L 135.984375 46.269531 L 127.972656 36.414062 L 132.4375 24.601562 L 144.910156 22.648438 L 152.921875 32.5 Z M 148.457031 44.3125 " clip-rule="nonzero"/></clipPath><clipPath id="53a665a5b3"><path d="M 127 22 L 153 22 L 153 47 L 127 47 Z M 127 22 " clip-rule="nonzero"/></clipPath><clipPath id="9f9761120b"><path d="M 156.925781 37.429688 L 140.039062 51.15625 L 124.023438 31.453125 L 140.910156 17.726562 Z M 156.925781 37.429688 " clip-rule="nonzero"/></clipPath><clipPath id="3e46932346"><path d="M 156.925781 37.429688 L 139.988281 51.195312 L 123.96875 31.488281 L 140.90625 17.722656 Z M 156.925781 37.429688 " clip-rule="nonzero"/></clipPath><clipPath id="6d6fdff832"><path d="M 148.457031 44.3125 L 135.984375 46.269531 L 127.972656 36.414062 L 132.4375 24.605469 L 144.910156 22.648438 L 152.921875 32.503906 Z M 148.457031 44.3125 " clip-rule="nonzero"/></clipPath><clipPath id="be966726ec"><path d="M 142 47 L 157 47 L 157 62 L 142 62 Z M 142 47 " clip-rule="nonzero"/></clipPath><clipPath id="e0cd96d243"><path d="M 159.003906 56.140625 L 149.226562 64.089844 L 139.972656 52.707031 L 149.75 44.757812 Z M 159.003906 56.140625 " clip-rule="nonzero"/></clipPath><clipPath id="bf65d10e83"><path d="M 154.113281 60.113281 L 146.914062 61.246094 L 142.289062 55.554688 L 144.863281 48.734375 L 152.066406 47.605469 L 156.691406 53.296875 Z M 154.113281 60.113281 " clip-rule="nonzero"/></clipPath><clipPath id="1bf2833922"><path d="M 142 47 L 157 47 L 157 62 L 142 62 Z M 142 47 " clip-rule="nonzero"/></clipPath><clipPath id="d2a2c35035"><path d="M 159.003906 56.140625 L 149.355469 63.984375 L 140.203125 52.726562 L 149.851562 44.882812 Z M 159.003906 56.140625 " clip-rule="nonzero"/></clipPath><clipPath id="7e86b35c5b"><path d="M 159.003906 56.140625 L 149.226562 64.085938 L 139.980469 52.710938 L 149.757812 44.765625 Z M 159.003906 56.140625 " clip-rule="nonzero"/></clipPath><clipPath id="82469ec83d"><path d="M 154.117188 60.113281 L 146.917969 61.242188 L 142.292969 55.554688 L 144.871094 48.738281 L 152.070312 47.609375 L 156.691406 53.296875 Z M 154.117188 60.113281 " clip-rule="nonzero"/></clipPath><clipPath id="a3cf0f498a"><path d="M 117 39 L 133 39 L 133 55 L 117 55 Z M 117 39 " clip-rule="nonzero"/></clipPath><clipPath id="9cf4230a5e"><path d="M 135.121094 48.992188 L 124.628906 57.519531 L 114.707031 45.308594 L 125.195312 36.78125 Z M 135.121094 48.992188 " clip-rule="nonzero"/></clipPath><clipPath id="1d5538d116"><path d="M 129.875 53.253906 L 122.152344 54.464844 L 117.191406 48.363281 L 119.953125 41.050781 L 127.679688 39.839844 L 132.640625 45.941406 Z M 129.875 53.253906 " clip-rule="nonzero"/></clipPath><clipPath id="71dd1266b2"><path d="M 117 39 L 133 39 L 133 55 L 117 55 Z M 117 39 " clip-rule="nonzero"/></clipPath><clipPath id="b6fd225085"><path d="M 135.121094 48.992188 L 124.664062 57.488281 L 114.859375 45.425781 L 125.316406 36.929688 Z M 135.121094 48.992188 " clip-rule="nonzero"/></clipPath><clipPath id="eea96137e3"><path d="M 135.117188 48.992188 L 124.632812 57.515625 L 114.71875 45.3125 L 125.203125 36.792969 Z M 135.117188 48.992188 " clip-rule="nonzero"/></clipPath><clipPath id="e003c5926f"><path d="M 129.875 53.253906 L 122.15625 54.464844 L 117.195312 48.363281 L 119.960938 41.054688 L 127.679688 39.84375 L 132.640625 45.941406 Z M 129.875 53.253906 " clip-rule="nonzero"/></clipPath><clipPath id="f66be44013"><path d="M 93 53 L 130 53 L 130 88 L 93 88 Z M 93 53 " clip-rule="nonzero"/></clipPath><clipPath id="76990f8962"><path d="M 134.902344 74.972656 L 110.398438 94.890625 L 87.210938 66.363281 L 111.714844 46.445312 Z M 134.902344 74.972656 " clip-rule="nonzero"/></clipPath><clipPath id="c01b0c5534"><path d="M 122.648438 84.933594 L 104.601562 87.761719 L 93.011719 73.503906 L 99.472656 56.414062 L 117.519531 53.585938 L 129.109375 67.84375 Z M 122.648438 84.933594 " clip-rule="nonzero"/></clipPath><clipPath id="bf6fe4485b"><path d="M 93 53 L 130 53 L 130 88 L 93 88 Z M 93 53 " clip-rule="nonzero"/></clipPath><clipPath id="f92d653db8"><path d="M 134.902344 74.972656 L 110.375 94.90625 L 87.171875 66.359375 L 111.699219 46.425781 Z M 134.902344 74.972656 " clip-rule="nonzero"/></clipPath><clipPath id="14bf5a944e"><path d="M 134.902344 74.96875 L 110.398438 94.886719 L 87.226562 66.375 L 111.726562 46.457031 Z M 134.902344 74.96875 " clip-rule="nonzero"/></clipPath><clipPath id="592e6b6605"><path d="M 122.652344 84.925781 L 104.605469 87.757812 L 93.019531 73.5 L 99.476562 56.417969 L 117.519531 53.585938 L 129.109375 67.839844 Z M 122.652344 84.925781 " clip-rule="nonzero"/></clipPath><clipPath id="04f41d54de"><path d="M 109 87 L 123 87 L 123 101 L 109 101 Z M 109 87 " clip-rule="nonzero"/></clipPath><clipPath id="48a756b1ec"><path d="M 124.980469 95.730469 L 116.082031 102.960938 L 107.664062 92.605469 L 116.558594 85.371094 Z M 124.980469 95.730469 " clip-rule="nonzero"/></clipPath><clipPath id="0a735bf23e"><path d="M 120.53125 99.347656 L 113.976562 100.375 L 109.769531 95.195312 L 112.113281 88.992188 L 118.667969 87.964844 L 122.875 93.140625 Z M 120.53125 99.347656 " clip-rule="nonzero"/></clipPath><clipPath id="1e4e1f176d"><path d="M 109 87 L 123 87 L 123 101 L 109 101 Z M 109 87 " clip-rule="nonzero"/></clipPath><clipPath id="5578fd3e1a"><path d="M 124.980469 95.730469 L 116.132812 102.917969 L 107.636719 92.464844 L 116.480469 85.277344 Z M 124.980469 95.730469 " clip-rule="nonzero"/></clipPath><clipPath id="b9c0d5570c"><path d="M 124.976562 95.730469 L 116.085938 102.960938 L 107.675781 92.613281 L 116.566406 85.382812 Z M 124.976562 95.730469 " clip-rule="nonzero"/></clipPath><clipPath id="48be923bc6"><path d="M 120.53125 99.34375 L 113.980469 100.371094 L 109.777344 95.199219 L 112.121094 88.996094 L 118.667969 87.972656 L 122.875 93.144531 Z M 120.53125 99.34375 " clip-rule="nonzero"/></clipPath><clipPath id="32c7d0be43"><path d="M 90 89 L 109 89 L 109 107 L 90 107 Z M 90 89 " clip-rule="nonzero"/></clipPath><clipPath id="51588ea599"><path d="M 111.308594 100.015625 L 98.984375 110.03125 L 87.324219 95.6875 L 99.648438 85.667969 Z M 111.308594 100.015625 " clip-rule="nonzero"/></clipPath><clipPath id="0f55dd4459"><path d="M 105.148438 105.023438 L 96.070312 106.445312 L 90.242188 99.277344 L 93.492188 90.683594 L 102.566406 89.257812 L 108.394531 96.429688 Z M 105.148438 105.023438 " clip-rule="nonzero"/></clipPath><clipPath id="2f20055d22"><path d="M 90 89 L 109 89 L 109 107 L 90 107 Z M 90 89 " clip-rule="nonzero"/></clipPath><clipPath id="79bddf1076"><path d="M 111.308594 100.015625 L 98.84375 110.144531 L 87.078125 95.671875 L 99.542969 85.539062 Z M 111.308594 100.015625 " clip-rule="nonzero"/></clipPath><clipPath id="c3fda3f475"><path d="M 111.308594 100.015625 L 98.988281 110.027344 L 87.335938 95.691406 L 99.65625 85.679688 Z M 111.308594 100.015625 " clip-rule="nonzero"/></clipPath><clipPath id="e90abdfd1c"><path d="M 105.148438 105.023438 L 96.078125 106.445312 L 90.25 99.277344 L 93.496094 90.6875 L 102.570312 89.261719 L 108.394531 96.429688 Z M 105.148438 105.023438 " clip-rule="nonzero"/></clipPath><clipPath id="dd06dd1154"><path d="M 128 138 L 153 138 L 153 164 L 128 164 Z M 128 138 " clip-rule="nonzero"/></clipPath><clipPath id="035c7a4dba"><path d="M 123.496094 150.015625 L 138.824219 134.480469 L 156.910156 152.324219 L 141.582031 167.863281 Z M 123.496094 150.015625 " clip-rule="nonzero"/></clipPath><clipPath id="444ae69d12"><path d="M 131.160156 142.25 L 143.34375 138.9375 L 152.386719 147.859375 L 149.238281 160.085938 L 137.054688 163.394531 L 128.015625 154.476562 Z M 131.160156 142.25 " clip-rule="nonzero"/></clipPath><clipPath id="a1ab80c105"><path d="M 128 138 L 153 138 L 153 164 L 128 164 Z M 128 138 " clip-rule="nonzero"/></clipPath><clipPath id="ef428411eb"><path d="M 123.496094 150.015625 L 138.777344 134.527344 L 156.851562 152.359375 L 141.566406 167.847656 Z M 123.496094 150.015625 " clip-rule="nonzero"/></clipPath><clipPath id="3638c00610"><path d="M 123.496094 150.015625 L 138.824219 134.480469 L 156.902344 152.316406 L 141.574219 167.855469 Z M 123.496094 150.015625 " clip-rule="nonzero"/></clipPath><clipPath id="040ff8c0c6"><path d="M 131.160156 142.25 L 143.34375 138.941406 L 152.382812 147.859375 L 149.238281 160.085938 L 137.054688 163.394531 L 128.015625 154.476562 Z M 131.160156 142.25 " clip-rule="nonzero"/></clipPath><clipPath id="a0a6c912ef"><path d="M 128 119 L 146 119 L 146 138 L 128 138 Z M 128 119 " clip-rule="nonzero"/></clipPath><clipPath id="da04c65be1"><path d="M 124.875 127.496094 L 136.027344 116.191406 L 149.1875 129.175781 L 138.035156 140.480469 Z M 124.875 127.496094 " clip-rule="nonzero"/></clipPath><clipPath id="72d2ac99fe"><path d="M 130.453125 121.84375 L 139.316406 119.4375 L 145.894531 125.925781 L 143.605469 134.824219 L 134.742188 137.234375 L 128.164062 130.742188 Z M 130.453125 121.84375 " clip-rule="nonzero"/></clipPath><clipPath id="29f368ad67"><path d="M 128 119 L 146 119 L 146 138 L 128 138 Z M 128 119 " clip-rule="nonzero"/></clipPath><clipPath id="a495e8fe58"><path d="M 124.875 127.496094 L 136.15625 116.0625 L 149.433594 129.164062 L 138.152344 140.597656 Z M 124.875 127.496094 " clip-rule="nonzero"/></clipPath><clipPath id="6fa7385f52"><path d="M 124.875 127.5 L 136.027344 116.195312 L 149.175781 129.171875 L 138.027344 140.472656 Z M 124.875 127.5 " clip-rule="nonzero"/></clipPath><clipPath id="c7838af9c7"><path d="M 130.449219 121.847656 L 139.3125 119.441406 L 145.890625 125.929688 L 143.601562 134.824219 L 134.738281 137.230469 L 128.164062 130.742188 Z M 130.449219 121.847656 " clip-rule="nonzero"/></clipPath><clipPath id="559edea012"><path d="M 147 122 L 172 122 L 172 147 L 147 147 Z M 147 122 " clip-rule="nonzero"/></clipPath><clipPath id="cfae430351"><path d="M 142.972656 133.328125 L 158.304688 117.792969 L 176.390625 135.636719 L 161.0625 151.175781 Z M 142.972656 133.328125 " clip-rule="nonzero"/></clipPath><clipPath id="62ebfca6fc"><path d="M 150.640625 125.558594 L 162.824219 122.25 L 171.863281 131.171875 L 168.71875 143.398438 L 156.535156 146.707031 L 147.496094 137.789062 Z M 150.640625 125.558594 " clip-rule="nonzero"/></clipPath><clipPath id="da7b157699"><path d="M 147 122 L 172 122 L 172 147 L 147 147 Z M 147 122 " clip-rule="nonzero"/></clipPath><clipPath id="d8369d9d38"><path d="M 142.972656 133.328125 L 158.257812 117.835938 L 176.332031 135.667969 L 161.046875 151.160156 Z M 142.972656 133.328125 " clip-rule="nonzero"/></clipPath><clipPath id="850ab7f658"><path d="M 142.976562 133.328125 L 158.304688 117.792969 L 176.382812 135.628906 L 161.054688 151.164062 Z M 142.976562 133.328125 " clip-rule="nonzero"/></clipPath><clipPath id="adbca7fad9"><path d="M 150.640625 125.558594 L 162.824219 122.25 L 171.863281 131.171875 L 168.71875 143.398438 L 156.535156 146.707031 L 147.496094 137.789062 Z M 150.640625 125.558594 " clip-rule="nonzero"/></clipPath><clipPath id="ded58b96bd"><path d="M 152 83 L 167 83 L 167 98 L 152 98 Z M 152 83 " clip-rule="nonzero"/></clipPath><clipPath id="a6ef51830d"><path d="M 150.035156 90.132812 L 158.886719 81.164062 L 169.328125 91.464844 L 160.476562 100.4375 Z M 150.035156 90.132812 " clip-rule="nonzero"/></clipPath><clipPath id="74a4f5c16d"><path d="M 154.460938 85.648438 L 161.496094 83.738281 L 166.714844 88.886719 L 164.898438 95.949219 L 157.863281 97.859375 L 152.644531 92.710938 Z M 154.460938 85.648438 " clip-rule="nonzero"/></clipPath><clipPath id="32a2970683"><path d="M 152 83 L 167 83 L 167 98 L 152 98 Z M 152 83 " clip-rule="nonzero"/></clipPath><clipPath id="bc95ccf9d8"><path d="M 150.035156 90.132812 L 158.769531 81.28125 L 169.09375 91.472656 L 160.363281 100.324219 Z M 150.035156 90.132812 " clip-rule="nonzero"/></clipPath><clipPath id="b863a7546c"><path d="M 150.035156 90.136719 L 158.882812 81.167969 L 169.316406 91.464844 L 160.46875 100.429688 Z M 150.035156 90.136719 " clip-rule="nonzero"/></clipPath><clipPath id="3e91237cb9"><path d="M 154.460938 85.652344 L 161.492188 83.742188 L 166.707031 88.890625 L 164.894531 95.945312 L 157.859375 97.855469 L 152.644531 92.710938 Z M 154.460938 85.652344 " clip-rule="nonzero"/></clipPath><clipPath id="194849d6fa"><path d="M 139 106 L 155 106 L 155 122 L 139 122 Z M 139 106 " clip-rule="nonzero"/></clipPath><clipPath id="71876673b5"><path d="M 137.03125 113.671875 L 146.523438 104.050781 L 157.722656 115.101562 L 148.230469 124.722656 Z M 137.03125 113.671875 " clip-rule="nonzero"/></clipPath><clipPath id="d73667a2d7"><path d="M 141.777344 108.863281 L 149.320312 106.8125 L 154.921875 112.335938 L 152.972656 119.90625 L 145.425781 121.957031 L 139.828125 116.433594 Z M 141.777344 108.863281 " clip-rule="nonzero"/></clipPath><clipPath id="f0d654352e"><path d="M 139 106 L 155 106 L 155 122 L 139 122 Z M 139 106 " clip-rule="nonzero"/></clipPath><clipPath id="383698525e"><path d="M 137.03125 113.671875 L 146.492188 104.082031 L 157.558594 115 L 148.09375 124.589844 Z M 137.03125 113.671875 " clip-rule="nonzero"/></clipPath><clipPath id="e1a8b48379"><path d="M 137.03125 113.671875 L 146.519531 104.054688 L 157.710938 115.097656 L 148.222656 124.714844 Z M 137.03125 113.671875 " clip-rule="nonzero"/></clipPath><clipPath id="8e97acd568"><path d="M 141.773438 108.863281 L 149.316406 106.8125 L 154.914062 112.335938 L 152.96875 119.90625 L 145.425781 121.953125 L 139.828125 116.433594 Z M 141.773438 108.863281 " clip-rule="nonzero"/></clipPath><clipPath id="2424850649"><path d="M 171 122 L 207 122 L 207 159 L 171 159 Z M 171 122 " clip-rule="nonzero"/></clipPath><clipPath id="0fefa1c532"><path d="M 164.609375 138.8125 L 186.789062 116.332031 L 212.960938 142.152344 L 190.78125 164.632812 Z M 164.609375 138.8125 " clip-rule="nonzero"/></clipPath><clipPath id="eb83ef39d8"><path d="M 175.699219 127.574219 L 193.332031 122.785156 L 206.410156 135.691406 L 201.859375 153.382812 L 184.230469 158.171875 L 171.148438 145.265625 Z M 175.699219 127.574219 " clip-rule="nonzero"/></clipPath><clipPath id="f2ffb3b590"><path d="M 171 122 L 207 122 L 207 159 L 171 159 Z M 171 122 " clip-rule="nonzero"/></clipPath><clipPath id="2a002a254c"><path d="M 164.609375 138.8125 L 186.808594 116.3125 L 212.996094 142.152344 L 190.796875 164.652344 Z M 164.609375 138.8125 " clip-rule="nonzero"/></clipPath><clipPath id="cd432edb14"><path d="M 164.613281 138.816406 L 186.789062 116.339844 L 212.941406 142.144531 L 190.765625 164.621094 Z M 164.613281 138.816406 " clip-rule="nonzero"/></clipPath><clipPath id="9a469a4a50"><path d="M 175.699219 127.578125 L 193.328125 122.789062 L 206.402344 135.691406 L 201.855469 153.382812 L 184.226562 158.167969 L 171.152344 145.265625 Z M 175.699219 127.578125 " clip-rule="nonzero"/></clipPath><clipPath id="31dcf78ee4"><path d="M 139 90 L 153 90 L 153 104 L 139 104 Z M 139 90 " clip-rule="nonzero"/></clipPath><clipPath id="3e45387a6c"><path d="M 137.03125 96.324219 L 145.085938 88.164062 L 154.585938 97.535156 L 146.53125 105.699219 Z M 137.03125 96.324219 " clip-rule="nonzero"/></clipPath><clipPath id="7660fbb3a7"><path d="M 141.058594 92.242188 L 147.457031 90.503906 L 152.207031 95.191406 L 150.554688 101.613281 L 144.152344 103.351562 L 139.40625 98.667969 Z M 141.058594 92.242188 " clip-rule="nonzero"/></clipPath><clipPath id="29a2a5b28d"><path d="M 139 90 L 153 90 L 153 104 L 139 104 Z M 139 90 " clip-rule="nonzero"/></clipPath><clipPath id="7037eb880e"><path d="M 137.03125 96.324219 L 145.039062 88.210938 L 154.628906 97.671875 L 146.621094 105.785156 Z M 137.03125 96.324219 " clip-rule="nonzero"/></clipPath><clipPath id="4e855b0f19"><path d="M 137.03125 96.324219 L 145.082031 88.167969 L 154.574219 97.53125 L 146.523438 105.6875 Z M 137.03125 96.324219 " clip-rule="nonzero"/></clipPath><clipPath id="de2de602b4"><path d="M 141.058594 92.246094 L 147.453125 90.507812 L 152.199219 95.191406 L 150.546875 101.609375 L 144.152344 103.347656 L 139.40625 98.664062 Z M 141.058594 92.246094 " clip-rule="nonzero"/></clipPath><clipPath id="d5cd1b4fb8"><path d="M 129 3 L 147 3 L 147 22 L 129 22 Z M 129 3 " clip-rule="nonzero"/></clipPath><clipPath id="0b842bdbae"><path d="M 125.726562 11.300781 L 136.878906 -0.00390625 L 150.039062 12.980469 L 138.886719 24.285156 Z M 125.726562 11.300781 " clip-rule="nonzero"/></clipPath><clipPath id="bee2a87782"><path d="M 131.300781 5.648438 L 140.167969 3.242188 L 146.746094 9.730469 L 144.457031 18.628906 L 135.589844 21.039062 L 129.015625 14.546875 Z M 131.300781 5.648438 " clip-rule="nonzero"/></clipPath><clipPath id="3e20061d29"><path d="M 129 3 L 147 3 L 147 22 L 129 22 Z M 129 3 " clip-rule="nonzero"/></clipPath><clipPath id="31bebadc87"><path d="M 125.726562 11.300781 L 137.007812 -0.132812 L 150.285156 12.96875 L 139.003906 24.402344 Z M 125.726562 11.300781 " clip-rule="nonzero"/></clipPath><clipPath id="27f6e648b6"><path d="M 125.726562 11.304688 L 136.875 0 L 150.027344 12.976562 L 138.875 24.277344 Z M 125.726562 11.304688 " clip-rule="nonzero"/></clipPath><clipPath id="083e3a1f06"><path d="M 131.300781 5.652344 L 140.164062 3.246094 L 146.738281 9.734375 L 144.453125 18.628906 L 135.589844 21.035156 L 129.011719 14.546875 Z M 131.300781 5.652344 " clip-rule="nonzero"/></clipPath><clipPath id="3354ea0557"><path d="M 230 162 L 249 162 L 249 181 L 230 181 Z M 230 162 " clip-rule="nonzero"/></clipPath><clipPath id="b075e0ee6e"><path d="M 227.460938 170.980469 L 238.613281 159.671875 L 251.773438 172.65625 L 240.621094 183.964844 Z M 227.460938 170.980469 " clip-rule="nonzero"/></clipPath><clipPath id="56299f1d33"><path d="M 233.039062 165.324219 L 241.902344 162.917969 L 248.480469 169.410156 L 246.191406 178.304688 L 237.328125 180.714844 L 230.75 174.222656 Z M 233.039062 165.324219 " clip-rule="nonzero"/></clipPath><clipPath id="e2fb82733b"><path d="M 230 162 L 249 162 L 249 181 L 230 181 Z M 230 162 " clip-rule="nonzero"/></clipPath><clipPath id="207a87e2e9"><path d="M 227.460938 170.980469 L 238.742188 159.542969 L 252.019531 172.644531 L 240.738281 184.078125 Z M 227.460938 170.980469 " clip-rule="nonzero"/></clipPath><clipPath id="1a87adb15e"><path d="M 227.460938 170.980469 L 238.609375 159.675781 L 251.761719 172.652344 L 240.609375 183.953125 Z M 227.460938 170.980469 " clip-rule="nonzero"/></clipPath><clipPath id="301c4e4af2"><path d="M 233.035156 165.328125 L 241.898438 162.921875 L 248.472656 169.410156 L 246.1875 178.304688 L 237.324219 180.710938 L 230.75 174.222656 Z M 233.035156 165.328125 " clip-rule="nonzero"/></clipPath><clipPath id="de815034df"><path d="M 221 138 L 246 138 L 246 164 L 221 164 Z M 221 138 " clip-rule="nonzero"/></clipPath><clipPath id="4e16686da9"><path d="M 216.820312 149.894531 L 232.152344 134.355469 L 250.238281 152.203125 L 234.90625 167.738281 Z M 216.820312 149.894531 " clip-rule="nonzero"/></clipPath><clipPath id="de9f371563"><path d="M 224.488281 142.125 L 236.671875 138.816406 L 245.710938 147.734375 L 242.566406 159.964844 L 230.382812 163.273438 L 221.339844 154.351562 Z M 224.488281 142.125 " clip-rule="nonzero"/></clipPath><clipPath id="322fd6abc8"><path d="M 221 138 L 246 138 L 246 164 L 221 164 Z M 221 138 " clip-rule="nonzero"/></clipPath><clipPath id="2f8704e1dc"><path d="M 216.820312 149.894531 L 232.105469 134.402344 L 250.179688 152.234375 L 234.894531 167.726562 Z M 216.820312 149.894531 " clip-rule="nonzero"/></clipPath><clipPath id="c6d0331455"><path d="M 216.820312 149.894531 L 232.152344 134.355469 L 250.230469 152.195312 L 234.902344 167.730469 Z M 216.820312 149.894531 " clip-rule="nonzero"/></clipPath><clipPath id="424baeb978"><path d="M 224.484375 142.125 L 236.671875 138.816406 L 245.710938 147.734375 L 242.566406 159.960938 L 230.378906 163.269531 L 221.339844 154.351562 Z M 224.484375 142.125 " clip-rule="nonzero"/></clipPath><clipPath id="85006a3fdc"><path d="M 238 127 L 254 127 L 254 142 L 238 142 Z M 238 127 " clip-rule="nonzero"/></clipPath><clipPath id="587b9f1b9d"><path d="M 236.324219 133.691406 L 245.175781 124.71875 L 255.621094 135.023438 L 246.769531 143.992188 Z M 236.324219 133.691406 " clip-rule="nonzero"/></clipPath><clipPath id="713f7199e7"><path d="M 240.75 129.203125 L 247.785156 127.292969 L 253.007812 132.445312 L 251.191406 139.503906 L 244.15625 141.414062 L 238.9375 136.265625 Z M 240.75 129.203125 " clip-rule="nonzero"/></clipPath><clipPath id="0d75a6737c"><path d="M 238 127 L 253 127 L 253 142 L 238 142 Z M 238 127 " clip-rule="nonzero"/></clipPath><clipPath id="c41dc3b8fa"><path d="M 236.324219 133.691406 L 245.058594 124.835938 L 255.386719 135.027344 L 246.652344 143.878906 Z M 236.324219 133.691406 " clip-rule="nonzero"/></clipPath><clipPath id="a5567d19f7"><path d="M 236.328125 133.691406 L 245.175781 124.722656 L 255.609375 135.019531 L 246.761719 143.988281 Z M 236.328125 133.691406 " clip-rule="nonzero"/></clipPath><clipPath id="b09a1ee75e"><path d="M 240.75 129.207031 L 247.785156 127.296875 L 253 132.445312 L 251.1875 139.503906 L 244.152344 141.414062 L 238.9375 136.265625 Z M 240.75 129.207031 " clip-rule="nonzero"/></clipPath><clipPath id="3d3075e742"><path d="M 221 122 L 237 122 L 237 138 L 221 138 Z M 221 122 " clip-rule="nonzero"/></clipPath><clipPath id="8a8746b733"><path d="M 218.601562 129.429688 L 228.09375 119.808594 L 239.292969 130.859375 L 229.800781 140.480469 Z M 218.601562 129.429688 " clip-rule="nonzero"/></clipPath><clipPath id="17cc0089d5"><path d="M 223.347656 124.621094 L 230.894531 122.570312 L 236.492188 128.09375 L 234.542969 135.667969 L 226.996094 137.714844 L 221.398438 132.191406 Z M 223.347656 124.621094 " clip-rule="nonzero"/></clipPath><clipPath id="a2dea52326"><path d="M 221 122 L 237 122 L 237 138 L 221 138 Z M 221 122 " clip-rule="nonzero"/></clipPath><clipPath id="5adaa48842"><path d="M 218.601562 129.429688 L 228.0625 119.839844 L 239.128906 130.757812 L 229.664062 140.347656 Z M 218.601562 129.429688 " clip-rule="nonzero"/></clipPath><clipPath id="edd22113f6"><path d="M 218.601562 129.429688 L 228.089844 119.8125 L 239.28125 130.855469 L 229.792969 140.472656 Z M 218.601562 129.429688 " clip-rule="nonzero"/></clipPath><clipPath id="5f2011a118"><path d="M 223.34375 124.621094 L 230.886719 122.574219 L 236.484375 128.09375 L 234.539062 135.664062 L 226.996094 137.714844 L 221.398438 132.191406 Z M 223.34375 124.621094 " clip-rule="nonzero"/></clipPath><clipPath id="83685d42ea"><path d="M 209 134 L 222 134 L 222 147 L 209 147 Z M 209 134 " clip-rule="nonzero"/></clipPath><clipPath id="9595339366"><path d="M 206.769531 139.875 L 214.820312 131.710938 L 224.324219 141.085938 L 216.269531 149.25 Z M 206.769531 139.875 " clip-rule="nonzero"/></clipPath><clipPath id="2c09b41a8e"><path d="M 210.796875 135.792969 L 217.195312 134.054688 L 221.945312 138.742188 L 220.292969 145.164062 L 213.890625 146.902344 L 209.144531 142.21875 Z M 210.796875 135.792969 " clip-rule="nonzero"/></clipPath><clipPath id="96700b0451"><path d="M 209 134 L 222 134 L 222 147 L 209 147 Z M 209 134 " clip-rule="nonzero"/></clipPath><clipPath id="f93192c036"><path d="M 206.769531 139.875 L 214.773438 131.757812 L 224.363281 141.222656 L 216.359375 149.335938 Z M 206.769531 139.875 " clip-rule="nonzero"/></clipPath><clipPath id="8398617ed7"><path d="M 206.769531 139.871094 L 214.820312 131.714844 L 224.3125 141.082031 L 216.261719 149.238281 Z M 206.769531 139.871094 " clip-rule="nonzero"/></clipPath><clipPath id="ef13b5f0d1"><path d="M 210.792969 135.792969 L 217.191406 134.054688 L 221.9375 138.738281 L 220.285156 145.160156 L 213.890625 146.894531 L 209.144531 142.214844 Z M 210.792969 135.792969 " clip-rule="nonzero"/></clipPath><clipPath id="f2de8b668d"><path d="M 202 114 L 220 114 L 220 133 L 202 133 Z M 202 114 " clip-rule="nonzero"/></clipPath><clipPath id="a8a0c2fb2b"><path d="M 198.886719 123.039062 L 210.039062 111.734375 L 223.199219 124.71875 L 212.046875 136.023438 Z M 198.886719 123.039062 " clip-rule="nonzero"/></clipPath><clipPath id="95811d6eb8"><path d="M 204.460938 117.386719 L 213.328125 114.980469 L 219.90625 121.46875 L 217.617188 130.367188 L 208.75 132.777344 L 202.171875 126.285156 Z M 204.460938 117.386719 " clip-rule="nonzero"/></clipPath><clipPath id="6e20b26e0a"><path d="M 202 114 L 220 114 L 220 133 L 202 133 Z M 202 114 " clip-rule="nonzero"/></clipPath><clipPath id="6a830d9b7a"><path d="M 198.886719 123.039062 L 210.167969 111.605469 L 223.445312 124.707031 L 212.164062 136.140625 Z M 198.886719 123.039062 " clip-rule="nonzero"/></clipPath><clipPath id="9ca979cce2"><path d="M 198.886719 123.042969 L 210.035156 111.738281 L 223.1875 124.714844 L 212.035156 136.015625 Z M 198.886719 123.042969 " clip-rule="nonzero"/></clipPath><clipPath id="89f26776c1"><path d="M 204.460938 117.390625 L 213.324219 114.984375 L 219.898438 121.472656 L 217.609375 130.367188 L 208.75 132.773438 L 202.171875 126.285156 Z M 204.460938 117.390625 " clip-rule="nonzero"/></clipPath><clipPath id="ae72d9908c"><path d="M 270 259 L 289 259 L 289 278 L 270 278 Z M 270 259 " clip-rule="nonzero"/></clipPath><clipPath id="69899afda1"><path d="M 272.980469 279.324219 L 268.03125 264.234375 L 285.597656 258.472656 L 290.546875 273.5625 Z M 272.980469 279.324219 " clip-rule="nonzero"/></clipPath><clipPath id="f42f658b08"><path d="M 270.503906 271.78125 L 272.417969 262.792969 L 281.199219 259.914062 L 288.066406 266.019531 L 286.148438 275.003906 L 277.367188 277.886719 Z M 270.503906 271.78125 " clip-rule="nonzero"/></clipPath><clipPath id="328b13554f"><path d="M 270 259 L 289 259 L 289 278 L 270 278 Z M 270 259 " clip-rule="nonzero"/></clipPath><clipPath id="46b9f0ad3b"><path d="M 272.980469 279.324219 L 267.972656 264.0625 L 285.699219 258.25 L 290.703125 273.511719 Z M 272.980469 279.324219 " clip-rule="nonzero"/></clipPath><clipPath id="ad0186f565"><path d="M 272.980469 279.324219 L 268.03125 264.238281 L 285.585938 258.480469 L 290.535156 273.566406 Z M 272.980469 279.324219 " clip-rule="nonzero"/></clipPath><clipPath id="dbb4597081"><path d="M 270.503906 271.78125 L 272.421875 262.800781 L 281.195312 259.921875 L 288.058594 266.023438 L 286.144531 275.007812 L 277.367188 277.886719 Z M 270.503906 271.78125 " clip-rule="nonzero"/></clipPath><clipPath id="3d05ce67dc"><path d="M 249 161 L 275 161 L 275 187 L 249 187 Z M 249 161 " clip-rule="nonzero"/></clipPath><clipPath id="b45f2fc565"><path d="M 253.273438 188.332031 L 246.472656 167.589844 L 270.613281 159.671875 L 277.417969 180.414062 Z M 253.273438 188.332031 " clip-rule="nonzero"/></clipPath><clipPath id="6e9bbd7a5c"><path d="M 249.871094 177.960938 L 252.503906 165.613281 L 264.570312 161.652344 L 274.007812 170.042969 L 271.375 182.394531 L 259.308594 186.351562 Z M 249.871094 177.960938 " clip-rule="nonzero"/></clipPath><clipPath id="de7376cf3b"><path d="M 249 161 L 275 161 L 275 187 L 249 187 Z M 249 161 " clip-rule="nonzero"/></clipPath><clipPath id="50fc2c33b1"><path d="M 253.273438 188.332031 L 246.492188 167.652344 L 270.617188 159.738281 L 277.398438 180.417969 Z M 253.273438 188.332031 " clip-rule="nonzero"/></clipPath><clipPath id="e2cfa7aa21"><path d="M 253.273438 188.332031 L 246.472656 167.589844 L 270.605469 159.675781 L 277.40625 180.414062 Z M 253.273438 188.332031 " clip-rule="nonzero"/></clipPath><clipPath id="dfbd02748b"><path d="M 249.871094 177.960938 L 252.503906 165.613281 L 264.570312 161.65625 L 274.003906 170.046875 L 271.371094 182.394531 L 259.304688 186.351562 Z M 249.871094 177.960938 " clip-rule="nonzero"/></clipPath><clipPath id="2036447f1c"><path d="M 261 244 L 276 244 L 276 259 L 261 259 Z M 261 244 " clip-rule="nonzero"/></clipPath><clipPath id="a5c08afede"><path d="M 263.054688 260.046875 L 259.125 248.070312 L 273.066406 243.5 L 276.992188 255.472656 Z M 263.054688 260.046875 " clip-rule="nonzero"/></clipPath><clipPath id="f5d2a66493"><path d="M 261.089844 254.058594 L 262.609375 246.929688 L 269.578125 244.644531 L 275.023438 249.488281 L 273.503906 256.617188 L 266.539062 258.902344 Z M 261.089844 254.058594 " clip-rule="nonzero"/></clipPath><clipPath id="f93c24b37e"><path d="M 261 244 L 276 244 L 276 259 L 261 259 Z M 261 244 " clip-rule="nonzero"/></clipPath><clipPath id="ef6e7a6de1"><path d="M 263.054688 260.046875 L 259.179688 248.230469 L 272.964844 243.707031 L 276.839844 255.523438 Z M 263.054688 260.046875 " clip-rule="nonzero"/></clipPath><clipPath id="19c55ef1a7"><path d="M 263.054688 260.046875 L 259.128906 248.074219 L 273.058594 243.507812 L 276.984375 255.476562 Z M 263.054688 260.046875 " clip-rule="nonzero"/></clipPath><clipPath id="7ab0d01f71"><path d="M 261.09375 254.058594 L 262.613281 246.933594 L 269.574219 244.648438 L 275.019531 249.492188 L 273.5 256.617188 L 266.539062 258.902344 Z M 261.09375 254.058594 " clip-rule="nonzero"/></clipPath><clipPath id="f2aeff63ca"><path d="M 270 227 L 286 227 L 286 243 L 270 243 Z M 270 227 " clip-rule="nonzero"/></clipPath><clipPath id="4cf0b8d13c"><path d="M 272.242188 243.542969 L 268.03125 230.699219 L 282.980469 225.796875 L 287.191406 238.640625 Z M 272.242188 243.542969 " clip-rule="nonzero"/></clipPath><clipPath id="594b68bdb1"><path d="M 270.136719 237.121094 L 271.765625 229.476562 L 279.238281 227.023438 L 285.082031 232.21875 L 283.453125 239.867188 L 275.980469 242.320312 Z M 270.136719 237.121094 " clip-rule="nonzero"/></clipPath><clipPath id="70522e8e37"><path d="M 270 227 L 286 227 L 286 243 L 270 243 Z M 270 227 " clip-rule="nonzero"/></clipPath><clipPath id="c0f0cb61c6"><path d="M 272.242188 243.542969 L 268.042969 230.742188 L 282.816406 225.898438 L 287.011719 238.699219 Z M 272.242188 243.542969 " clip-rule="nonzero"/></clipPath><clipPath id="f2a9c528f0"><path d="M 272.242188 243.542969 L 268.03125 230.703125 L 282.972656 225.804688 L 287.183594 238.644531 Z M 272.242188 243.542969 " clip-rule="nonzero"/></clipPath><clipPath id="411e3ff191"><path d="M 270.136719 237.125 L 271.765625 229.480469 L 279.238281 227.03125 L 285.078125 232.222656 L 283.449219 239.867188 L 275.976562 242.320312 Z M 270.136719 237.125 " clip-rule="nonzero"/></clipPath><clipPath id="1392d1d393"><path d="M 234 212 L 270 212 L 270 249 L 234 249 Z M 234 212 " clip-rule="nonzero"/></clipPath><clipPath id="da1c42964c"><path d="M 239.210938 251.535156 L 229.371094 221.527344 L 264.300781 210.070312 L 274.144531 240.078125 Z M 239.210938 251.535156 " clip-rule="nonzero"/></clipPath><clipPath id="037490ec17"><path d="M 234.292969 236.53125 L 238.101562 218.664062 L 255.558594 212.9375 L 269.210938 225.078125 L 265.402344 242.945312 L 247.941406 248.671875 Z M 234.292969 236.53125 " clip-rule="nonzero"/></clipPath><clipPath id="012d2fb2fc"><path d="M 234 212 L 270 212 L 270 249 L 234 249 Z M 234 212 " clip-rule="nonzero"/></clipPath><clipPath id="df3e5c139a"><path d="M 239.210938 251.535156 L 229.363281 221.503906 L 264.316406 210.039062 L 274.167969 240.070312 Z M 239.210938 251.535156 " clip-rule="nonzero"/></clipPath><clipPath id="afb4bb5f50"><path d="M 239.214844 251.535156 L 229.375 221.535156 L 264.285156 210.082031 L 274.128906 240.085938 Z M 239.214844 251.535156 " clip-rule="nonzero"/></clipPath><clipPath id="2bb92d0215"><path d="M 234.296875 236.535156 L 238.101562 218.671875 L 255.558594 212.945312 L 269.207031 225.085938 L 265.398438 242.949219 L 247.945312 248.671875 Z M 234.296875 236.535156 " clip-rule="nonzero"/></clipPath><clipPath id="6c4975caf3"><path d="M 236 200 L 250 200 L 250 214 L 236 214 Z M 236 200 " clip-rule="nonzero"/></clipPath><clipPath id="18dd166665"><path d="M 238.246094 214.109375 L 234.671875 203.214844 L 247.355469 199.058594 L 250.925781 209.953125 Z M 238.246094 214.109375 " clip-rule="nonzero"/></clipPath><clipPath id="23f44a7437"><path d="M 236.457031 208.664062 L 237.839844 202.175781 L 244.179688 200.097656 L 249.136719 204.503906 L 247.753906 210.992188 L 241.414062 213.070312 Z M 236.457031 208.664062 " clip-rule="nonzero"/></clipPath><clipPath id="1cd79b0d7d"><path d="M 236 200 L 250 200 L 250 214 L 236 214 Z M 236 200 " clip-rule="nonzero"/></clipPath><clipPath id="40e8e5c730"><path d="M 238.246094 214.109375 L 234.691406 203.28125 L 247.492188 199.082031 L 251.046875 209.914062 Z M 238.246094 214.109375 " clip-rule="nonzero"/></clipPath><clipPath id="274aa01a8e"><path d="M 238.242188 214.109375 L 234.671875 203.21875 L 247.34375 199.066406 L 250.914062 209.953125 Z M 238.242188 214.109375 " clip-rule="nonzero"/></clipPath><clipPath id="ae5d6b9942"><path d="M 236.457031 208.664062 L 237.839844 202.183594 L 244.175781 200.105469 L 249.128906 204.507812 L 247.746094 210.992188 L 241.410156 213.070312 Z M 236.457031 208.664062 " clip-rule="nonzero"/></clipPath><clipPath id="55a64f6514"><path d="M 236 180 L 255 180 L 255 199 L 236 199 Z M 236 180 " clip-rule="nonzero"/></clipPath><clipPath id="714fed7df9"><path d="M 239.128906 199.816406 L 234.179688 184.726562 L 251.746094 178.964844 L 256.695312 194.054688 Z M 239.128906 199.816406 " clip-rule="nonzero"/></clipPath><clipPath id="ba9cb903cb"><path d="M 236.652344 192.269531 L 238.570312 183.285156 L 247.347656 180.40625 L 254.214844 186.511719 L 252.296875 195.496094 L 243.519531 198.375 Z M 236.652344 192.269531 " clip-rule="nonzero"/></clipPath><clipPath id="3ce32b5f6a"><path d="M 236 180 L 255 180 L 255 199 L 236 199 Z M 236 180 " clip-rule="nonzero"/></clipPath><clipPath id="264c6cf4c3"><path d="M 239.128906 199.816406 L 234.121094 184.554688 L 251.847656 178.742188 L 256.851562 194.003906 Z M 239.128906 199.816406 " clip-rule="nonzero"/></clipPath><clipPath id="f47634850a"><path d="M 239.128906 199.816406 L 234.179688 184.730469 L 251.734375 178.972656 L 256.683594 194.058594 Z M 239.128906 199.816406 " clip-rule="nonzero"/></clipPath><clipPath id="c114db48f1"><path d="M 236.65625 192.273438 L 238.570312 183.292969 L 247.347656 180.414062 L 254.207031 186.515625 L 252.292969 195.5 L 243.515625 198.378906 Z M 236.65625 192.273438 " clip-rule="nonzero"/></clipPath><clipPath id="b89903a598"><path d="M 254 259 L 269 259 L 269 274 L 254 274 Z M 254 259 " clip-rule="nonzero"/></clipPath><clipPath id="14ce8879c0"><path d="M 252.292969 265.414062 L 261.144531 256.441406 L 271.585938 266.746094 L 262.738281 275.714844 Z M 252.292969 265.414062 " clip-rule="nonzero"/></clipPath><clipPath id="21a329bf4b"><path d="M 256.71875 260.925781 L 263.753906 259.015625 L 268.972656 264.167969 L 267.160156 271.226562 L 260.125 273.136719 L 254.902344 267.988281 Z M 256.71875 260.925781 " clip-rule="nonzero"/></clipPath><clipPath id="f824f474ef"><path d="M 254 259 L 269 259 L 269 274 L 254 274 Z M 254 259 " clip-rule="nonzero"/></clipPath><clipPath id="e5368347bf"><path d="M 252.292969 265.414062 L 261.027344 256.5625 L 271.355469 266.75 L 262.621094 275.601562 Z M 252.292969 265.414062 " clip-rule="nonzero"/></clipPath><clipPath id="03682b7155"><path d="M 252.296875 265.414062 L 261.144531 256.445312 L 271.578125 266.742188 L 262.730469 275.710938 Z M 252.296875 265.414062 " clip-rule="nonzero"/></clipPath><clipPath id="5bf2ab48ea"><path d="M 256.71875 260.929688 L 263.75 259.019531 L 268.96875 264.167969 L 267.152344 271.226562 L 260.121094 273.136719 L 254.902344 267.988281 Z M 256.71875 260.929688 " clip-rule="nonzero"/></clipPath><clipPath id="9c936bc508"><path d="M 242 282 L 258 282 L 258 298 L 242 298 Z M 242 282 " clip-rule="nonzero"/></clipPath><clipPath id="84295a5dca"><path d="M 239.289062 288.949219 L 248.78125 279.328125 L 259.984375 290.378906 L 250.488281 300 Z M 239.289062 288.949219 " clip-rule="nonzero"/></clipPath><clipPath id="3f603b3eb8"><path d="M 244.035156 284.140625 L 251.582031 282.089844 L 257.179688 287.613281 L 255.234375 295.1875 L 247.6875 297.234375 L 242.089844 291.710938 Z M 244.035156 284.140625 " clip-rule="nonzero"/></clipPath><clipPath id="7eb764f17f"><path d="M 242 282 L 258 282 L 258 298 L 242 298 Z M 242 282 " clip-rule="nonzero"/></clipPath><clipPath id="c924ab95a5"><path d="M 239.289062 288.949219 L 248.75 279.359375 L 259.816406 290.277344 L 250.355469 299.867188 Z M 239.289062 288.949219 " clip-rule="nonzero"/></clipPath><clipPath id="4e3d9259f9"><path d="M 239.289062 288.949219 L 248.78125 279.332031 L 259.972656 290.375 L 250.480469 299.992188 Z M 239.289062 288.949219 " clip-rule="nonzero"/></clipPath><clipPath id="59dc156385"><path d="M 244.035156 284.140625 L 251.578125 282.09375 L 257.171875 287.613281 L 255.226562 295.183594 L 247.683594 297.234375 L 242.089844 291.710938 Z M 244.035156 284.140625 " clip-rule="nonzero"/></clipPath><clipPath id="6afeaff093"><path d="M 241 265 L 255 265 L 255 279 L 241 279 Z M 241 265 " clip-rule="nonzero"/></clipPath><clipPath id="b8595d6722"><path d="M 239.289062 271.605469 L 247.34375 263.441406 L 256.84375 272.816406 L 248.792969 280.976562 Z M 239.289062 271.605469 " clip-rule="nonzero"/></clipPath><clipPath id="ec9a8aa739"><path d="M 243.316406 267.523438 L 249.71875 265.785156 L 254.46875 270.46875 L 252.816406 276.894531 L 246.414062 278.632812 L 241.664062 273.945312 Z M 243.316406 267.523438 " clip-rule="nonzero"/></clipPath><clipPath id="e461d46587"><path d="M 241 265 L 255 265 L 255 279 L 241 279 Z M 241 265 " clip-rule="nonzero"/></clipPath><clipPath id="f686b195f5"><path d="M 239.289062 271.605469 L 247.296875 263.488281 L 256.886719 272.949219 L 248.878906 281.066406 Z M 239.289062 271.605469 " clip-rule="nonzero"/></clipPath><clipPath id="a430fe5b41"><path d="M 239.292969 271.601562 L 247.339844 263.445312 L 256.832031 272.808594 L 248.785156 280.96875 Z M 239.292969 271.601562 " clip-rule="nonzero"/></clipPath><clipPath id="52def3d7cb"><path d="M 243.316406 267.523438 L 249.714844 265.785156 L 254.460938 270.46875 L 252.808594 276.886719 L 246.410156 278.625 L 241.664062 273.941406 Z M 243.316406 267.523438 " clip-rule="nonzero"/></clipPath></defs><g clip-path="url(#1b59299b0c)"><g clip-path="url(#fb1f7b575f)"><g clip-path="url(#f893511c7a)"><path fill="#242424" d="M 121.503906 154.691406 L 101.597656 145.742188 L 112.011719 122.566406 L 131.921875 131.515625 Z M 121.503906 154.691406 " fill-opacity="1" fill-rule="nonzero"/></g></g></g><g clip-path="url(#fb083eb41b)"><g clip-path="url(#e0c273e4e1)"><g clip-path="url(#326ced5b2a)"><g clip-path="url(#692aaa8297)"><path stroke-linecap="butt" transform="matrix(-0.472606, -0.212411, 0.212411, -0.472606, 121.505218, 154.689669)" fill="none" stroke-linejoin="miter" d="M 21.063522 0.00150533 L 42.12664 12.256092 L 42.123916 36.76403 L 21.058074 49.01738 L 0.00183272 36.759703 L -0.00231948 12.254856 Z M 21.063522 0.00150533 " stroke="#141414" stroke-width="2.894938" stroke-opacity="1" stroke-miterlimit="4"/></g></g></g></g><g clip-path="url(#1fc4c34429)"><g clip-path="url(#e4487ec4ba)"><g clip-path="url(#37829cf2b4)"><path fill="#242424" d="M 101.199219 162.851562 L 86.710938 156.339844 L 94.292969 139.480469 L 108.777344 145.988281 Z M 101.199219 162.851562 " fill-opacity="1" fill-rule="nonzero"/></g></g></g><g clip-path="url(#442699a5f8)"><g clip-path="url(#3f103a2ab9)"><g clip-path="url(#d60db93ba8)"><g clip-path="url(#1f0ee22ea6)"><path stroke-linecap="butt" transform="matrix(-0.472606, -0.212411, 0.212411, -0.472606, 101.198875, 162.851413)" fill="none" stroke-linejoin="miter" d="M 15.322369 -0.00185208 L 30.645123 8.914733 L 30.638267 26.737873 L 15.321714 35.65509 L -0.00104014 26.738504 L -0.00415081 8.911579 Z M 15.322369 -0.00185208 " stroke="#141414" stroke-width="2.894938" stroke-opacity="1" stroke-miterlimit="4"/></g></g></g></g><g clip-path="url(#99603d3d35)"><g clip-path="url(#b4126745a1)"><g clip-path="url(#914b780b31)"><path fill="#242424" d="M 47.640625 129.042969 L 27.730469 120.097656 L 38.148438 96.921875 L 58.054688 105.867188 Z M 47.640625 129.042969 " fill-opacity="1" fill-rule="nonzero"/></g></g></g><g clip-path="url(#02d2dee971)"><g clip-path="url(#df8412f82d)"><g clip-path="url(#1671823fca)"><g clip-path="url(#07dc03712c)"><path stroke-linecap="butt" transform="matrix(-0.472606, -0.212411, 0.212411, -0.472606, 47.639021, 129.043758)" fill="none" stroke-linejoin="miter" d="M 21.064173 -0.00170587 L 42.120414 12.255972 L 42.124566 36.760819 L 21.058725 49.014169 L -0.00439307 36.759582 L -0.00166896 12.251645 Z M 21.064173 -0.00170587 " stroke="#141414" stroke-width="2.894938" stroke-opacity="1" stroke-miterlimit="4"/></g></g></g></g><g clip-path="url(#07282d3f78)"><g clip-path="url(#fc282357f7)"><g clip-path="url(#092a2e8902)"><path fill="#242424" d="M 84.566406 154.125 L 73.070312 148.957031 L 79.085938 135.578125 L 90.582031 140.742188 Z M 84.566406 154.125 " fill-opacity="1" fill-rule="nonzero"/></g></g></g><g clip-path="url(#d9b8657ea3)"><g clip-path="url(#1ebd9e7dec)"><g clip-path="url(#f9b609338d)"><g clip-path="url(#5820e35dc1)"><path stroke-linecap="butt" transform="matrix(-0.472606, -0.212411, 0.212411, -0.472606, 84.56715, 154.123067)" fill="none" stroke-linejoin="miter" d="M 12.160765 0.00196899 L 24.313675 7.070152 L 24.316765 21.219013 L 12.153889 28.28903 L 0.000978985 21.220847 L -0.00211194 7.071985 Z M 12.160765 0.00196899 " stroke="#141414" stroke-width="2.894938" stroke-opacity="1" stroke-miterlimit="4"/></g></g></g></g><g clip-path="url(#3881199ebc)"><g clip-path="url(#e2f6f66bf4)"><g clip-path="url(#6dec6a9e5b)"><path fill="#242424" d="M 78.566406 136.214844 L 66.238281 130.675781 L 72.6875 116.324219 L 85.015625 121.863281 Z M 78.566406 136.214844 " fill-opacity="1" fill-rule="nonzero"/></g></g></g><g clip-path="url(#82e7adee77)"><g clip-path="url(#cba9c1a2d3)"><g clip-path="url(#24da479574)"><g clip-path="url(#d426613be7)"><path stroke-linecap="butt" transform="matrix(-0.472606, -0.212411, 0.212411, -0.472606, 78.565166, 136.215325)" fill="none" stroke-linejoin="miter" d="M 13.040202 0.000288689 L 26.07939 7.587592 L 26.077541 22.75531 L 13.039596 30.342601 L 0.000408257 22.755298 L 0.00225661 7.58758 Z M 13.040202 0.000288689 " stroke="#141414" stroke-width="2.894938" stroke-opacity="1" stroke-miterlimit="4"/></g></g></g></g><g clip-path="url(#937fc5ceaf)"><g clip-path="url(#e577abb0ad)"><g clip-path="url(#1f4f79e54e)"><path fill="#242424" d="M 62.214844 166.007812 L 33.410156 153.0625 L 48.480469 119.53125 L 77.285156 132.476562 Z M 62.214844 166.007812 " fill-opacity="1" fill-rule="nonzero"/></g></g></g><g clip-path="url(#46ac604ff8)"><g clip-path="url(#a8244d44bd)"><g clip-path="url(#f01e65d076)"><g clip-path="url(#be8238d587)"><path stroke-linecap="butt" transform="matrix(-0.472606, -0.212411, 0.212411, -0.472606, 62.21516, 166.004694)" fill="none" stroke-linejoin="miter" d="M 30.468269 0.00351811 L 60.93955 17.724891 L 60.940363 53.182805 L 30.466804 70.91247 L -0.000691411 53.181131 L 0.00158629 17.730093 Z M 30.468269 0.00351811 " stroke="#141414" stroke-width="2.894938" stroke-opacity="1" stroke-miterlimit="4"/></g></g></g></g><g clip-path="url(#ef18fb4bbc)"><g clip-path="url(#61dc543c61)"><g clip-path="url(#11195e46a9)"><path fill="#242424" d="M 33.910156 141.507812 L 23.453125 136.804688 L 28.925781 124.632812 L 39.382812 129.332031 Z M 33.910156 141.507812 " fill-opacity="1" fill-rule="nonzero"/></g></g></g><g clip-path="url(#7836e2d370)"><g clip-path="url(#8d7e3b34cf)"><g clip-path="url(#d0e5f2edbc)"><g clip-path="url(#10cd723083)"><path stroke-linecap="butt" transform="matrix(-0.472606, -0.21241, 0.21241, -0.472606, 33.908316, 141.505726)" fill="none" stroke-linejoin="miter" d="M 11.056114 0.00220361 L 22.111744 6.431204 L 22.117146 19.297901 L 11.05695 25.731813 L 0.00131947 19.302813 L 0.0027942 6.433025 Z M 11.056114 0.00220361 " stroke="#141414" stroke-width="2.894938" stroke-opacity="1" stroke-miterlimit="4"/></g></g></g></g><g clip-path="url(#2d4339317c)"><g clip-path="url(#e68997d1bd)"><g clip-path="url(#149a64a01b)"><path fill="#242424" d="M 23.941406 131.222656 L 9.457031 124.710938 L 17.035156 107.847656 L 31.519531 114.359375 Z M 23.941406 131.222656 " fill-opacity="1" fill-rule="nonzero"/></g></g></g><g clip-path="url(#103375fb27)"><g clip-path="url(#8323a368e7)"><g clip-path="url(#bb21158941)"><g clip-path="url(#386f9d29dd)"><path stroke-linecap="butt" transform="matrix(-0.472606, -0.212411, 0.212411, -0.472606, 23.941778, 131.221235)" fill="none" stroke-linejoin="miter" d="M 15.315746 -0.00156676 L 30.6385 8.915019 L 30.64161 26.741944 L 15.321967 35.652285 L 0.00230361 26.742576 L -0.00080706 8.91565 Z M 15.315746 -0.00156676 " stroke="#141414" stroke-width="2.894938" stroke-opacity="1" stroke-miterlimit="4"/></g></g></g></g><g clip-path="url(#78b95dea25)"><g clip-path="url(#4c99123348)"><g clip-path="url(#4ad1bedca1)"><path fill="#242424" d="M 176.105469 23.394531 L 159.167969 37.164062 L 143.140625 17.445312 L 160.078125 3.679688 Z M 176.105469 23.394531 " fill-opacity="1" fill-rule="nonzero"/></g></g></g><g clip-path="url(#7d845b014e)"><g clip-path="url(#843841ece6)"><g clip-path="url(#9f7ad90162)"><g clip-path="url(#3a8bbc827d)"><path stroke-linecap="butt" transform="matrix(-0.402076, 0.326818, -0.326818, -0.402076, 176.103772, 23.395025)" fill="none" stroke-linejoin="miter" d="M 21.058431 -0.0000966731 L 42.120148 12.252128 L 42.121529 36.764723 L 21.060098 49.014488 L -0.00161934 36.762264 L 0.00285015 12.254424 Z M 21.058431 -0.0000966731 " stroke="#141414" stroke-width="2.894938" stroke-opacity="1" stroke-miterlimit="4"/></g></g></g></g><g clip-path="url(#a515a51c9d)"><g clip-path="url(#a2e3856bd7)"><g clip-path="url(#94f9a0aab1)"><path fill="#242424" d="M 174.273438 45.199219 L 161.949219 55.21875 L 150.289062 40.871094 L 162.613281 30.855469 Z M 174.273438 45.199219 " fill-opacity="1" fill-rule="nonzero"/></g></g></g><g clip-path="url(#4b516140d0)"><g clip-path="url(#ac31083ba7)"><g clip-path="url(#83abb90903)"><g clip-path="url(#7e6856517a)"><path stroke-linecap="butt" transform="matrix(-0.402076, 0.326818, -0.326818, -0.402076, 174.273889, 45.200406)" fill="none" stroke-linejoin="miter" d="M 15.32093 0.00132877 L 30.6416 8.918056 L 30.638448 26.742905 L 15.320477 35.655781 L -0.000193226 26.739053 L 0.00295839 8.914205 Z M 15.32093 0.00132877 " stroke="#141414" stroke-width="2.894938" stroke-opacity="1" stroke-miterlimit="4"/></g></g></g></g><g clip-path="url(#e6f7563b8f)"><g clip-path="url(#b10499d7d7)"><g clip-path="url(#6faf72d9b6)"><path fill="#242424" d="M 156.925781 37.429688 L 139.988281 51.195312 L 123.960938 31.480469 L 140.898438 17.710938 Z M 156.925781 37.429688 " fill-opacity="1" fill-rule="nonzero"/></g></g></g><g clip-path="url(#53a665a5b3)"><g clip-path="url(#9f9761120b)"><g clip-path="url(#3e46932346)"><g clip-path="url(#6d6fdff832)"><path stroke-linecap="butt" transform="matrix(-0.402076, 0.326818, -0.326818, -0.402076, 156.925392, 37.429131)" fill="none" stroke-linejoin="miter" d="M 21.061669 -0.000076427 L 42.123386 12.252148 L 42.124766 36.764743 L 21.063335 49.014509 L 0.00161798 36.762284 L 0.000237363 12.249689 Z M 21.061669 -0.000076427 " stroke="#141414" stroke-width="2.894938" stroke-opacity="1" stroke-miterlimit="4"/></g></g></g></g><g clip-path="url(#be966726ec)"><g clip-path="url(#e0cd96d243)"><g clip-path="url(#bf65d10e83)"><path fill="#242424" d="M 159.003906 56.140625 L 149.226562 64.089844 L 139.972656 52.707031 L 149.75 44.757812 Z M 159.003906 56.140625 " fill-opacity="1" fill-rule="nonzero"/></g></g></g><g clip-path="url(#1bf2833922)"><g clip-path="url(#d2a2c35035)"><g clip-path="url(#7e86b35c5b)"><g clip-path="url(#82469ec83d)"><path stroke-linecap="butt" transform="matrix(-0.402076, 0.326818, -0.326818, -0.402076, 159.00342, 56.139535)" fill="none" stroke-linejoin="miter" d="M 12.15505 -0.0031166 L 24.311032 7.069906 L 24.314092 21.217736 L 12.15532 28.28779 L -0.000662108 21.214767 L 0.00212831 7.071692 Z M 12.15505 -0.0031166 " stroke="#141414" stroke-width="2.894938" stroke-opacity="1" stroke-miterlimit="4"/></g></g></g></g><g clip-path="url(#a3cf0f498a)"><g clip-path="url(#9cf4230a5e)"><g clip-path="url(#1d5538d116)"><path fill="#242424" d="M 135.121094 48.992188 L 124.628906 57.519531 L 114.707031 45.308594 L 125.195312 36.78125 Z M 135.121094 48.992188 " fill-opacity="1" fill-rule="nonzero"/></g></g></g><g clip-path="url(#71dd1266b2)"><g clip-path="url(#b6fd225085)"><g clip-path="url(#eea96137e3)"><g clip-path="url(#e003c5926f)"><path stroke-linecap="butt" transform="matrix(-0.402076, 0.326818, -0.326818, -0.402076, 135.119042, 48.992456)" fill="none" stroke-linejoin="miter" d="M 13.041143 0.00157635 L 26.075048 7.58418 L 26.077172 22.761065 L 13.038447 30.339985 L 0.00454209 22.757381 L -0.00233725 7.586347 Z M 13.041143 0.00157635 " stroke="#141414" stroke-width="2.894938" stroke-opacity="1" stroke-miterlimit="4"/></g></g></g></g><g clip-path="url(#f66be44013)"><g clip-path="url(#76990f8962)"><g clip-path="url(#c01b0c5534)"><path fill="#242424" d="M 134.902344 74.972656 L 110.398438 94.890625 L 87.210938 66.363281 L 111.714844 46.445312 Z M 134.902344 74.972656 " fill-opacity="1" fill-rule="nonzero"/></g></g></g><g clip-path="url(#bf6fe4485b)"><g clip-path="url(#f92d653db8)"><g clip-path="url(#14bf5a944e)"><g clip-path="url(#592e6b6605)"><path stroke-linecap="butt" transform="matrix(-0.402076, 0.326818, -0.326818, -0.402076, 134.901425, 74.96943)" fill="none" stroke-linejoin="miter" d="M 30.464561 0.0000603819 L 60.93953 17.727432 L 60.934728 53.184042 L 30.470316 70.906335 L 0.00119705 53.183719 L -0.00460553 17.728204 Z M 30.464561 0.0000603819 " stroke="#141414" stroke-width="2.894938" stroke-opacity="1" stroke-miterlimit="4"/></g></g></g></g><g clip-path="url(#04f41d54de)"><g clip-path="url(#48a756b1ec)"><g clip-path="url(#0a735bf23e)"><path fill="#242424" d="M 124.980469 95.730469 L 116.082031 102.960938 L 107.664062 92.605469 L 116.558594 85.371094 Z M 124.980469 95.730469 " fill-opacity="1" fill-rule="nonzero"/></g></g></g><g clip-path="url(#1e4e1f176d)"><g clip-path="url(#5578fd3e1a)"><g clip-path="url(#b9c0d5570c)"><g clip-path="url(#48be923bc6)"><path stroke-linecap="butt" transform="matrix(-0.402076, 0.326818, -0.326818, -0.402076, 124.977111, 95.731295)" fill="none" stroke-linejoin="miter" d="M 11.055734 0.00189316 L 22.116966 6.437668 L 22.115891 19.299732 L 11.054679 25.736626 L 0.00405239 19.299757 L -0.000722462 6.432938 Z M 11.055734 0.00189316 " stroke="#141414" stroke-width="2.894938" stroke-opacity="1" stroke-miterlimit="4"/></g></g></g></g><g clip-path="url(#32c7d0be43)"><g clip-path="url(#51588ea599)"><g clip-path="url(#0f55dd4459)"><path fill="#242424" d="M 111.308594 100.015625 L 98.984375 110.03125 L 87.324219 95.6875 L 99.648438 85.667969 Z M 111.308594 100.015625 " fill-opacity="1" fill-rule="nonzero"/></g></g></g><g clip-path="url(#2f20055d22)"><g clip-path="url(#79bddf1076)"><g clip-path="url(#c3fda3f475)"><g clip-path="url(#e90abdfd1c)"><path stroke-linecap="butt" transform="matrix(-0.402076, 0.326818, -0.326818, -0.402076, 111.309475, 100.014726)" fill="none" stroke-linejoin="miter" d="M 15.324111 -0.00127308 L 30.638931 8.910699 L 30.64163 26.740303 L 15.323658 35.653179 L -0.00176681 26.742302 L 0.00138481 8.917453 Z M 15.324111 -0.00127308 " stroke="#141414" stroke-width="2.894938" stroke-opacity="1" stroke-miterlimit="4"/></g></g></g></g><g clip-path="url(#dd06dd1154)"><g clip-path="url(#035c7a4dba)"><g clip-path="url(#444ae69d12)"><path fill="#242424" d="M 123.496094 150.015625 L 138.824219 134.480469 L 156.910156 152.324219 L 141.582031 167.863281 Z M 123.496094 150.015625 " fill-opacity="1" fill-rule="nonzero"/></g></g></g><g clip-path="url(#a1ab80c105)"><g clip-path="url(#ef428411eb)"><g clip-path="url(#3638c00610)"><g clip-path="url(#040ff8c0c6)"><path stroke-linecap="butt" transform="matrix(0.363913, -0.368839, 0.368839, 0.363913, 123.494761, 150.016761)" fill="none" stroke-linejoin="miter" d="M 21.060516 0.00323078 L 42.120613 12.256664 L 42.121143 36.762947 L 21.061577 49.015795 L 0.00148012 36.762362 L 0.000949904 12.25608 Z M 21.060516 0.00323078 " stroke="#141414" stroke-width="2.894938" stroke-opacity="1" stroke-miterlimit="4"/></g></g></g></g><g clip-path="url(#a0a6c912ef)"><g clip-path="url(#da04c65be1)"><g clip-path="url(#72d2ac99fe)"><path fill="#242424" d="M 124.875 127.496094 L 136.027344 116.191406 L 149.1875 129.175781 L 138.035156 140.480469 Z M 124.875 127.496094 " fill-opacity="1" fill-rule="nonzero"/></g></g></g><g clip-path="url(#29f368ad67)"><g clip-path="url(#a495e8fe58)"><g clip-path="url(#6fa7385f52)"><g clip-path="url(#c7838af9c7)"><path stroke-linecap="butt" transform="matrix(0.363913, -0.368839, 0.368839, 0.363913, 124.875171, 127.498305)" fill="none" stroke-linejoin="miter" d="M 15.318553 -0.0015682 L 30.638357 8.913436 L 30.641103 26.745411 L 15.31875 35.657016 L -0.00105324 26.742012 L 0.00149556 8.915403 Z M 15.318553 -0.0015682 " stroke="#141414" stroke-width="2.894938" stroke-opacity="1" stroke-miterlimit="4"/></g></g></g></g><g clip-path="url(#559edea012)"><g clip-path="url(#cfae430351)"><g clip-path="url(#62ebfca6fc)"><path fill="#242424" d="M 142.972656 133.328125 L 158.304688 117.792969 L 176.390625 135.636719 L 161.0625 151.175781 Z M 142.972656 133.328125 " fill-opacity="1" fill-rule="nonzero"/></g></g></g><g clip-path="url(#da7b157699)"><g clip-path="url(#d8369d9d38)"><g clip-path="url(#850ab7f658)"><g clip-path="url(#adbca7fad9)"><path stroke-linecap="butt" transform="matrix(0.363913, -0.368839, 0.368839, 0.363913, 142.974707, 133.328485)" fill="none" stroke-linejoin="miter" d="M 21.065524 -0.000294289 L 42.125621 12.253139 L 42.120785 36.764716 L 21.061218 49.017565 L 0.00112173 36.764132 L 0.000591511 12.257849 Z M 21.065524 -0.000294289 " stroke="#141414" stroke-width="2.894938" stroke-opacity="1" stroke-miterlimit="4"/></g></g></g></g><g clip-path="url(#ded58b96bd)"><g clip-path="url(#a6ef51830d)"><g clip-path="url(#74a4f5c16d)"><path fill="#242424" d="M 150.035156 90.132812 L 158.886719 81.164062 L 169.328125 91.464844 L 160.476562 100.4375 Z M 150.035156 90.132812 " fill-opacity="1" fill-rule="nonzero"/></g></g></g><g clip-path="url(#32a2970683)"><g clip-path="url(#bc95ccf9d8)"><g clip-path="url(#b863a7546c)"><g clip-path="url(#3e91237cb9)"><path stroke-linecap="butt" transform="matrix(0.363913, -0.368839, 0.368839, 0.363913, 150.035209, 90.135468)" fill="none" stroke-linejoin="miter" d="M 12.158046 0.00339684 L 24.313013 7.073949 L 24.308571 21.216872 L 12.159823 28.289315 L -0.000438967 21.213396 L -0.00136352 7.075768 Z M 12.158046 0.00339684 " stroke="#141414" stroke-width="2.894938" stroke-opacity="1" stroke-miterlimit="4"/></g></g></g></g><g clip-path="url(#194849d6fa)"><g clip-path="url(#71876673b5)"><g clip-path="url(#d73667a2d7)"><path fill="#242424" d="M 137.03125 113.671875 L 146.523438 104.050781 L 157.722656 115.101562 L 148.230469 124.722656 Z M 137.03125 113.671875 " fill-opacity="1" fill-rule="nonzero"/></g></g></g><g clip-path="url(#f0d654352e)"><g clip-path="url(#383698525e)"><g clip-path="url(#e1a8b48379)"><g clip-path="url(#8e97acd568)"><path stroke-linecap="butt" transform="matrix(0.363913, -0.368839, 0.368839, 0.363913, 137.030282, 113.671911)" fill="none" stroke-linejoin="miter" d="M 13.035502 -0.00172924 L 26.07729 7.581223 L 26.076557 22.758372 L 13.039403 30.347274 L 0.00298121 22.759027 L -0.00165261 7.587173 Z M 13.035502 -0.00172924 " stroke="#141414" stroke-width="2.894938" stroke-opacity="1" stroke-miterlimit="4"/></g></g></g></g><g clip-path="url(#2424850649)"><g clip-path="url(#0fefa1c532)"><g clip-path="url(#eb83ef39d8)"><path fill="#242424" d="M 164.609375 138.8125 L 186.789062 116.332031 L 212.960938 142.152344 L 190.78125 164.632812 Z M 164.609375 138.8125 " fill-opacity="1" fill-rule="nonzero"/></g></g></g><g clip-path="url(#f2ffb3b590)"><g clip-path="url(#2a002a254c)"><g clip-path="url(#cd432edb14)"><g clip-path="url(#9a469a4a50)"><path stroke-linecap="butt" transform="matrix(0.363913, -0.368839, 0.368839, 0.363913, 164.61263, 138.815585)" fill="none" stroke-linejoin="miter" d="M 30.466032 -0.00110696 L 60.941066 17.726506 L 60.93733 53.177154 L 30.469149 70.910923 L -0.000518309 53.178016 L 0.00321764 17.727367 Z M 30.466032 -0.00110696 " stroke="#141414" stroke-width="2.894938" stroke-opacity="1" stroke-miterlimit="4"/></g></g></g></g><g clip-path="url(#31dcf78ee4)"><g clip-path="url(#3e45387a6c)"><g clip-path="url(#7660fbb3a7)"><path fill="#242424" d="M 137.03125 96.324219 L 145.085938 88.164062 L 154.585938 97.535156 L 146.53125 105.699219 Z M 137.03125 96.324219 " fill-opacity="1" fill-rule="nonzero"/></g></g></g><g clip-path="url(#29a2a5b28d)"><g clip-path="url(#7037eb880e)"><g clip-path="url(#4e855b0f19)"><g clip-path="url(#de2de602b4)"><path stroke-linecap="butt" transform="matrix(0.363913, -0.368839, 0.368839, 0.363913, 137.032862, 96.323063)" fill="none" stroke-linejoin="miter" d="M 11.057871 0.00440505 L 22.113651 6.433188 L 22.112442 19.302042 L 11.055525 25.731452 L -0.00025474 19.302668 L 0.000953948 6.433814 Z M 11.057871 0.00440505 " stroke="#141414" stroke-width="2.894938" stroke-opacity="1" stroke-miterlimit="4"/></g></g></g></g><g clip-path="url(#d5cd1b4fb8)"><g clip-path="url(#0b842bdbae)"><g clip-path="url(#bee2a87782)"><path fill="#242424" d="M 125.726562 11.300781 L 136.878906 -0.00390625 L 150.039062 12.980469 L 138.886719 24.285156 Z M 125.726562 11.300781 " fill-opacity="1" fill-rule="nonzero"/></g></g></g><g clip-path="url(#3e20061d29)"><g clip-path="url(#31bebadc87)"><g clip-path="url(#27f6e648b6)"><g clip-path="url(#083e3a1f06)"><path stroke-linecap="butt" transform="matrix(0.363913, -0.368839, 0.368839, 0.363913, 125.725616, 11.302898)" fill="none" stroke-linejoin="miter" d="M 15.319939 0.0000949613 L 30.639743 8.915099 L 30.637194 26.741708 L 15.320136 35.658679 L 0.000332616 26.743675 L -0.00241344 8.9117 Z M 15.319939 0.0000949613 " stroke="#141414" stroke-width="2.894938" stroke-opacity="1" stroke-miterlimit="4"/></g></g></g></g><g clip-path="url(#3354ea0557)"><g clip-path="url(#b075e0ee6e)"><g clip-path="url(#56299f1d33)"><path fill="#242424" d="M 227.460938 170.980469 L 238.613281 159.671875 L 251.773438 172.65625 L 240.621094 183.964844 Z M 227.460938 170.980469 " fill-opacity="1" fill-rule="nonzero"/></g></g></g><g clip-path="url(#e2fb82733b)"><g clip-path="url(#207a87e2e9)"><g clip-path="url(#1a87adb15e)"><g clip-path="url(#301c4e4af2)"><path stroke-linecap="butt" transform="matrix(0.363913, -0.368839, 0.368839, 0.363913, 227.460487, 170.979156)" fill="none" stroke-linejoin="miter" d="M 15.319922 -0.00123286 L 30.639726 8.913771 L 30.637177 26.74038 L 15.320119 35.657351 L 0.000315746 26.742347 L 0.00286455 8.915738 Z M 15.319922 -0.00123286 " stroke="#141414" stroke-width="2.894938" stroke-opacity="1" stroke-miterlimit="4"/></g></g></g></g><g clip-path="url(#de815034df)"><g clip-path="url(#4e16686da9)"><g clip-path="url(#de9f371563)"><path fill="#242424" d="M 216.820312 149.894531 L 232.152344 134.355469 L 250.238281 152.203125 L 234.90625 167.738281 Z M 216.820312 149.894531 " fill-opacity="1" fill-rule="nonzero"/></g></g></g><g clip-path="url(#322fd6abc8)"><g clip-path="url(#2f8704e1dc)"><g clip-path="url(#c6d0331455)"><g clip-path="url(#424baeb978)"><path stroke-linecap="butt" transform="matrix(0.363913, -0.368839, 0.368839, 0.363913, 216.821664, 149.893317)" fill="none" stroke-linejoin="miter" d="M 21.059015 -0.00256686 L 42.124406 12.256233 L 42.124936 36.762515 L 21.06537 49.015364 L -0.0000214273 36.756564 L -0.000551643 12.250282 Z M 21.059015 -0.00256686 " stroke="#141414" stroke-width="2.894938" stroke-opacity="1" stroke-miterlimit="4"/></g></g></g></g><g clip-path="url(#85006a3fdc)"><g clip-path="url(#587b9f1b9d)"><g clip-path="url(#713f7199e7)"><path fill="#242424" d="M 236.324219 133.691406 L 245.175781 124.71875 L 255.621094 135.023438 L 246.769531 143.992188 Z M 236.324219 133.691406 " fill-opacity="1" fill-rule="nonzero"/></g></g></g><g clip-path="url(#0d75a6737c)"><g clip-path="url(#c41dc3b8fa)"><g clip-path="url(#a5567d19f7)"><g clip-path="url(#b09a1ee75e)"><path stroke-linecap="butt" transform="matrix(0.363913, -0.368839, 0.368839, 0.363913, 236.327168, 133.691063)" fill="none" stroke-linejoin="miter" d="M 12.155366 -0.00181283 L 24.315628 7.074106 L 24.311186 21.217029 L 12.157071 28.294767 L -0.00319073 21.218848 L 0.00125123 7.075925 Z M 12.155366 -0.00181283 " stroke="#141414" stroke-width="2.894938" stroke-opacity="1" stroke-miterlimit="4"/></g></g></g></g><g clip-path="url(#3d3075e742)"><g clip-path="url(#8a8746b733)"><g clip-path="url(#17cc0089d5)"><path fill="#242424" d="M 218.601562 129.429688 L 228.09375 119.808594 L 239.292969 130.859375 L 229.800781 140.480469 Z M 218.601562 129.429688 " fill-opacity="1" fill-rule="nonzero"/></g></g></g><g clip-path="url(#a2dea52326)"><g clip-path="url(#5adaa48842)"><g clip-path="url(#edd22113f6)"><g clip-path="url(#5f2011a118)"><path stroke-linecap="butt" transform="matrix(0.363913, -0.368839, 0.368839, 0.363913, 218.600671, 129.431137)" fill="none" stroke-linejoin="miter" d="M 13.037341 -0.00375175 L 26.073762 7.584495 L 26.078396 22.756349 L 13.041242 30.345251 L -0.000546575 22.762299 L 0.000186122 7.58515 Z M 13.037341 -0.00375175 " stroke="#141414" stroke-width="2.894938" stroke-opacity="1" stroke-miterlimit="4"/></g></g></g></g><g clip-path="url(#83685d42ea)"><g clip-path="url(#9595339366)"><g clip-path="url(#2c09b41a8e)"><path fill="#242424" d="M 206.769531 139.875 L 214.820312 131.710938 L 224.324219 141.085938 L 216.269531 149.25 Z M 206.769531 139.875 " fill-opacity="1" fill-rule="nonzero"/></g></g></g><g clip-path="url(#96700b0451)"><g clip-path="url(#f93192c036)"><g clip-path="url(#8398617ed7)"><g clip-path="url(#ef13b5f0d1)"><path stroke-linecap="butt" transform="matrix(0.363913, -0.368839, 0.368839, 0.363913, 206.770756, 139.872411)" fill="none" stroke-linejoin="miter" d="M 11.056499 -0.0037804 L 22.117573 6.430369 L 22.116365 19.299223 L 11.054081 25.733928 L 0.00366783 19.299849 L -0.00049 6.43629 Z M 11.056499 -0.0037804 " stroke="#141414" stroke-width="2.894938" stroke-opacity="1" stroke-miterlimit="4"/></g></g></g></g><g clip-path="url(#f2de8b668d)"><g clip-path="url(#a8a0c2fb2b)"><g clip-path="url(#95811d6eb8)"><path fill="#242424" d="M 198.886719 123.039062 L 210.039062 111.734375 L 223.199219 124.71875 L 212.046875 136.023438 Z M 198.886719 123.039062 " fill-opacity="1" fill-rule="nonzero"/></g></g></g><g clip-path="url(#6e20b26e0a)"><g clip-path="url(#6a830d9b7a)"><g clip-path="url(#9ca979cce2)"><g clip-path="url(#89f26776c1)"><path stroke-linecap="butt" transform="matrix(0.363913, -0.368839, 0.368839, 0.363913, 198.885122, 123.041181)" fill="none" stroke-linejoin="miter" d="M 15.320823 0.000985948 L 30.640626 8.91599 L 30.638077 26.742599 L 15.315725 35.654204 L 0.00121633 26.744566 L -0.00152973 8.912591 Z M 15.320823 0.000985948 " stroke="#141414" stroke-width="2.894938" stroke-opacity="1" stroke-miterlimit="4"/></g></g></g></g><g clip-path="url(#ae72d9908c)"><g clip-path="url(#69899afda1)"><g clip-path="url(#f42f658b08)"><path fill="#242424" d="M 272.980469 279.324219 L 268.03125 264.234375 L 285.597656 258.472656 L 290.546875 273.5625 Z M 272.980469 279.324219 " fill-opacity="1" fill-rule="nonzero"/></g></g></g><g clip-path="url(#328b13554f)"><g clip-path="url(#46b9f0ad3b)"><g clip-path="url(#ad0186f565)"><g clip-path="url(#dbb4597081)"><path stroke-linecap="butt" transform="matrix(-0.16148, -0.49234, 0.49234, -0.16148, 272.979418, 279.325319)" fill="none" stroke-linejoin="miter" d="M 15.323572 -0.00214215 L 30.638714 8.916614 L 30.641185 26.737283 L 15.323816 35.653523 L -0.000838836 26.739581 L -0.000960683 8.911748 Z M 15.323572 -0.00214215 " stroke="#141414" stroke-width="2.894938" stroke-opacity="1" stroke-miterlimit="4"/></g></g></g></g><g clip-path="url(#3d05ce67dc)"><g clip-path="url(#b45f2fc565)"><g clip-path="url(#6e9bbd7a5c)"><path fill="#242424" d="M 253.273438 188.332031 L 246.472656 167.589844 L 270.613281 159.671875 L 277.417969 180.414062 Z M 253.273438 188.332031 " fill-opacity="1" fill-rule="nonzero"/></g></g></g><g clip-path="url(#de7376cf3b)"><g clip-path="url(#50fc2c33b1)"><g clip-path="url(#e2cfa7aa21)"><g clip-path="url(#dfbd02748b)"><path stroke-linecap="butt" transform="matrix(-0.16148, -0.49234, 0.49234, -0.16148, 253.273197, 188.330214)" fill="none" stroke-linejoin="miter" d="M 21.061873 -0.00207798 L 42.12194 12.252859 L 42.12089 36.76077 L 21.059772 49.013745 L -0.000295603 36.758808 L 0.000754708 12.250896 Z M 21.061873 -0.00207798 " stroke="#141414" stroke-width="2.894938" stroke-opacity="1" stroke-miterlimit="4"/></g></g></g></g><g clip-path="url(#2036447f1c)"><g clip-path="url(#a5c08afede)"><g clip-path="url(#f5d2a66493)"><path fill="#242424" d="M 263.054688 260.046875 L 259.125 248.070312 L 273.066406 243.5 L 276.992188 255.472656 Z M 263.054688 260.046875 " fill-opacity="1" fill-rule="nonzero"/></g></g></g><g clip-path="url(#f93c24b37e)"><g clip-path="url(#ef6e7a6de1)"><g clip-path="url(#19c55ef1a7)"><g clip-path="url(#7ab0d01f71)"><path stroke-linecap="butt" transform="matrix(-0.16148, -0.492341, 0.492341, -0.16148, 263.055306, 260.045458)" fill="none" stroke-linejoin="miter" d="M 12.158776 0.00375456 L 24.310932 7.075825 L 24.31473 21.215532 L 12.156859 28.287983 L 0.00470258 21.215912 L 0.000904646 7.076205 Z M 12.158776 0.00375456 " stroke="#141414" stroke-width="2.894938" stroke-opacity="1" stroke-miterlimit="4"/></g></g></g></g><g clip-path="url(#f2aeff63ca)"><g clip-path="url(#4cf0b8d13c)"><g clip-path="url(#594b68bdb1)"><path fill="#242424" d="M 272.242188 243.542969 L 268.03125 230.699219 L 282.980469 225.796875 L 287.191406 238.640625 Z M 272.242188 243.542969 " fill-opacity="1" fill-rule="nonzero"/></g></g></g><g clip-path="url(#70522e8e37)"><g clip-path="url(#c0f0cb61c6)"><g clip-path="url(#f2a9c528f0)"><g clip-path="url(#411e3ff191)"><path stroke-linecap="butt" transform="matrix(-0.16148, -0.49234, 0.49234, -0.16148, 272.242719, 243.543657)" fill="none" stroke-linejoin="miter" d="M 13.037495 -0.00142131 L 26.076604 7.58371 L 26.073481 22.760509 L 13.040763 30.347361 L 0.00165433 22.76223 L -0.00238659 7.583082 Z M 13.037495 -0.00142131 " stroke="#141414" stroke-width="2.894938" stroke-opacity="1" stroke-miterlimit="4"/></g></g></g></g><g clip-path="url(#1392d1d393)"><g clip-path="url(#da1c42964c)"><g clip-path="url(#037490ec17)"><path fill="#242424" d="M 239.210938 251.535156 L 229.371094 221.527344 L 264.300781 210.070312 L 274.144531 240.078125 Z M 239.210938 251.535156 " fill-opacity="1" fill-rule="nonzero"/></g></g></g><g clip-path="url(#012d2fb2fc)"><g clip-path="url(#df3e5c139a)"><g clip-path="url(#afb4bb5f50)"><g clip-path="url(#2bb92d0215)"><path stroke-linecap="butt" transform="matrix(-0.16148, -0.492341, 0.492341, -0.16148, 239.215606, 251.535536)" fill="none" stroke-linejoin="miter" d="M 30.466785 0.00215068 L 60.936775 17.723616 L 60.938449 53.181395 L 30.465319 70.908197 L -0.0023223 53.179568 L 0.000817793 17.731301 Z M 30.466785 0.00215068 " stroke="#141414" stroke-width="2.894938" stroke-opacity="1" stroke-miterlimit="4"/></g></g></g></g><g clip-path="url(#6c4975caf3)"><g clip-path="url(#18dd166665)"><g clip-path="url(#23f44a7437)"><path fill="#242424" d="M 238.246094 214.109375 L 234.671875 203.214844 L 247.355469 199.058594 L 250.925781 209.953125 Z M 238.246094 214.109375 " fill-opacity="1" fill-rule="nonzero"/></g></g></g><g clip-path="url(#1cd79b0d7d)"><g clip-path="url(#40e8e5c730)"><g clip-path="url(#274aa01a8e)"><g clip-path="url(#ae5d6b9942)"><path stroke-linecap="butt" transform="matrix(-0.16148, -0.49234, 0.49234, -0.16148, 238.243902, 214.108972)" fill="none" stroke-linejoin="miter" d="M 11.05985 -0.00187075 L 22.112272 6.431812 L 22.112328 19.300847 L 11.059962 25.736198 L 0.000376356 19.300166 L 0.000320281 6.431131 Z M 11.05985 -0.00187075 " stroke="#141414" stroke-width="2.894938" stroke-opacity="1" stroke-miterlimit="4"/></g></g></g></g><g clip-path="url(#55a64f6514)"><g clip-path="url(#714fed7df9)"><g clip-path="url(#ba9cb903cb)"><path fill="#242424" d="M 239.128906 199.816406 L 234.179688 184.726562 L 251.746094 178.964844 L 256.695312 194.054688 Z M 239.128906 199.816406 " fill-opacity="1" fill-rule="nonzero"/></g></g></g><g clip-path="url(#3ce32b5f6a)"><g clip-path="url(#264c6cf4c3)"><g clip-path="url(#f47634850a)"><g clip-path="url(#c114db48f1)"><path stroke-linecap="butt" transform="matrix(-0.16148, -0.49234, 0.49234, -0.16148, 239.128419, 199.816594)" fill="none" stroke-linejoin="miter" d="M 15.319889 0.00343895 L 30.63738 8.915032 L 30.637502 26.742864 L 15.322482 35.65194 L -0.00217265 26.737998 L -0.0022945 8.910166 Z M 15.319889 0.00343895 " stroke="#141414" stroke-width="2.894938" stroke-opacity="1" stroke-miterlimit="4"/></g></g></g></g><g clip-path="url(#b89903a598)"><g clip-path="url(#14ce8879c0)"><g clip-path="url(#21a329bf4b)"><path fill="#242424" d="M 252.292969 265.414062 L 261.144531 256.441406 L 271.585938 266.746094 L 262.738281 275.714844 Z M 252.292969 265.414062 " fill-opacity="1" fill-rule="nonzero"/></g></g></g><g clip-path="url(#f824f474ef)"><g clip-path="url(#e5368347bf)"><g clip-path="url(#03682b7155)"><g clip-path="url(#5bf2ab48ea)"><path stroke-linecap="butt" transform="matrix(0.363913, -0.368839, 0.368839, 0.363913, 252.294945, 265.414255)" fill="none" stroke-linejoin="miter" d="M 12.157421 -0.00120303 L 24.312388 7.069349 L 24.313241 21.217639 L 12.153832 28.29001 L -0.00113534 21.219458 L -0.00198823 7.071168 Z M 12.157421 -0.00120303 " stroke="#141414" stroke-width="2.894938" stroke-opacity="1" stroke-miterlimit="4"/></g></g></g></g><g clip-path="url(#9c936bc508)"><g clip-path="url(#84295a5dca)"><g clip-path="url(#3f603b3eb8)"><path fill="#242424" d="M 239.289062 288.949219 L 248.78125 279.328125 L 259.984375 290.378906 L 250.488281 300 Z M 239.289062 288.949219 " fill-opacity="1" fill-rule="nonzero"/></g></g></g><g clip-path="url(#7eb764f17f)"><g clip-path="url(#c924ab95a5)"><g clip-path="url(#4e3d9259f9)"><g clip-path="url(#59dc156385)"><path stroke-linecap="butt" transform="matrix(0.363913, -0.368839, 0.368839, 0.363913, 239.289992, 288.95072)" fill="none" stroke-linejoin="miter" d="M 13.040237 -0.000955596 L 26.076659 7.587291 L 26.075998 22.753779 L 13.038844 30.342681 L -0.00294456 22.759729 L 0.00308299 7.587946 Z M 13.040237 -0.000955596 " stroke="#141414" stroke-width="2.894938" stroke-opacity="1" stroke-miterlimit="4"/></g></g></g></g><g clip-path="url(#6afeaff093)"><g clip-path="url(#b8595d6722)"><g clip-path="url(#ec9a8aa739)"><path fill="#242424" d="M 239.289062 271.605469 L 247.34375 263.441406 L 256.84375 272.816406 L 248.792969 280.976562 Z M 239.289062 271.605469 " fill-opacity="1" fill-rule="nonzero"/></g></g></g><g clip-path="url(#e461d46587)"><g clip-path="url(#f686b195f5)"><g clip-path="url(#a430fe5b41)"><g clip-path="url(#52def3d7cb)"><path stroke-linecap="butt" transform="matrix(0.363913, -0.368839, 0.368839, 0.363913, 239.29257, 271.601843)" fill="none" stroke-linejoin="miter" d="M 11.057275 -0.000145488 L 22.11835 6.434004 L 22.117141 19.302858 L 11.060225 25.732268 L -0.000850302 19.298118 L 0.000358386 6.429264 Z M 11.057275 -0.000145488 " stroke="#141414" stroke-width="2.894938" stroke-opacity="1" stroke-miterlimit="4"/></g></g></g></g></svg>